<?xml version="1.0" encoding="utf-8" standalone="no"?>
<!DOCTYPE svg PUBLIC "-//W3C//DTD SVG 1.1//EN"
  "http://www.w3.org/Graphics/SVG/1.1/DTD/svg11.dtd">
<svg xmlns:xlink="http://www.w3.org/1999/xlink" width="76.32pt" height="46.8pt" viewBox="0 0 76.32 46.8" xmlns="http://www.w3.org/2000/svg" version="1.1">
 <metadata>
  <rdf:RDF xmlns:dc="http://purl.org/dc/elements/1.1/" xmlns:cc="http://creativecommons.org/ns#" xmlns:rdf="http://www.w3.org/1999/02/22-rdf-syntax-ns#">
   <cc:Work>
    <dc:type rdf:resource="http://purl.org/dc/dcmitype/StillImage"/>
    <dc:date>2025-07-28T13:38:30.765103</dc:date>
    <dc:format>image/svg+xml</dc:format>
    <dc:creator>
     <cc:Agent>
      <dc:title>Matplotlib v3.10.3, https://matplotlib.org/</dc:title>
     </cc:Agent>
    </dc:creator>
   </cc:Work>
  </rdf:RDF>
 </metadata>
 <defs>
  <style type="text/css">*{stroke-linejoin: round; stroke-linecap: butt}</style>
 </defs>
 <g id="figure_1">
  <g id="patch_1">
   <path d="M 0 46.8 
L 76.32 46.8 
L 76.32 0 
L 0 0 
z
" style="fill: #ffffff"/>
  </g>
  <g id="axes_1">
   <g id="patch_2">
    <path d="M 9.54 41.652 
L 68.688 41.652 
L 68.688 5.616 
L 9.54 5.616 
z
" style="fill: #ffffff"/>
   </g>
   <g id="patch_3">
    <path d="M -75.373615 41.652 
L -66.844093 41.652 
L -66.844093 41.597088 
L -75.373615 41.597088 
z
" clip-path="url(#p9dba7c68d7)" style="fill: #2c457d; fill-opacity: 0.75; stroke: #000000; stroke-width: 0.064013; stroke-linejoin: miter"/>
   </g>
   <g id="patch_4">
    <path d="M -66.844093 41.652 
L -58.314571 41.652 
L -58.314571 41.432352 
L -66.844093 41.432352 
z
" clip-path="url(#p9dba7c68d7)" style="fill: #2c457d; fill-opacity: 0.75; stroke: #000000; stroke-width: 0.064013; stroke-linejoin: miter"/>
   </g>
   <g id="patch_5">
    <path d="M -58.314571 41.652 
L -49.785049 41.652 
L -49.785049 41.652 
L -58.314571 41.652 
z
" clip-path="url(#p9dba7c68d7)" style="fill: #2c457d; fill-opacity: 0.75; stroke: #000000; stroke-width: 0.064013; stroke-linejoin: miter"/>
   </g>
   <g id="patch_6">
    <path d="M -49.785049 41.652 
L -41.255527 41.652 
L -41.255527 41.652 
L -49.785049 41.652 
z
" clip-path="url(#p9dba7c68d7)" style="fill: #2c457d; fill-opacity: 0.75; stroke: #000000; stroke-width: 0.064013; stroke-linejoin: miter"/>
   </g>
   <g id="patch_7">
    <path d="M -41.255527 41.652 
L -32.726005 41.652 
L -32.726005 41.652 
L -41.255527 41.652 
z
" clip-path="url(#p9dba7c68d7)" style="fill: #2c457d; fill-opacity: 0.75; stroke: #000000; stroke-width: 0.064013; stroke-linejoin: miter"/>
   </g>
   <g id="patch_8">
    <path d="M -32.726005 41.652 
L -24.196483 41.652 
L -24.196483 41.597088 
L -32.726005 41.597088 
z
" clip-path="url(#p9dba7c68d7)" style="fill: #2c457d; fill-opacity: 0.75; stroke: #000000; stroke-width: 0.064013; stroke-linejoin: miter"/>
   </g>
   <g id="patch_9">
    <path d="M -24.196483 41.652 
L -15.666961 41.652 
L -15.666961 41.597088 
L -24.196483 41.597088 
z
" clip-path="url(#p9dba7c68d7)" style="fill: #2c457d; fill-opacity: 0.75; stroke: #000000; stroke-width: 0.064013; stroke-linejoin: miter"/>
   </g>
   <g id="patch_10">
    <path d="M -15.666961 41.652 
L -7.137439 41.652 
L -7.137439 41.652 
L -15.666961 41.652 
z
" clip-path="url(#p9dba7c68d7)" style="fill: #2c457d; fill-opacity: 0.75; stroke: #000000; stroke-width: 0.064013; stroke-linejoin: miter"/>
   </g>
   <g id="patch_11">
    <path d="M -7.137439 41.652 
L 1.392083 41.652 
L 1.392083 40.993056 
L -7.137439 40.993056 
z
" clip-path="url(#p9dba7c68d7)" style="fill: #2c457d; fill-opacity: 0.75; stroke: #000000; stroke-width: 0.064013; stroke-linejoin: miter"/>
   </g>
   <g id="patch_12">
    <path d="M 1.392083 41.652 
L 9.921605 41.652 
L 9.921605 41.157792 
L 1.392083 41.157792 
z
" clip-path="url(#p9dba7c68d7)" style="fill: #2c457d; fill-opacity: 0.75; stroke: #000000; stroke-width: 0.064013; stroke-linejoin: miter"/>
   </g>
   <g id="patch_13">
    <path d="M 9.921605 41.652 
L 18.451127 41.652 
L 18.451127 40.169376 
L 9.921605 40.169376 
z
" clip-path="url(#p9dba7c68d7)" style="fill: #2c457d; fill-opacity: 0.75; stroke: #000000; stroke-width: 0.064013; stroke-linejoin: miter"/>
   </g>
   <g id="patch_14">
    <path d="M 18.451127 41.652 
L 26.980649 41.652 
L 26.980649 35.831328 
L 18.451127 35.831328 
z
" clip-path="url(#p9dba7c68d7)" style="fill: #2c457d; fill-opacity: 0.75; stroke: #000000; stroke-width: 0.064013; stroke-linejoin: miter"/>
   </g>
   <g id="patch_15">
    <path d="M 26.980649 41.652 
L 35.510171 41.652 
L 35.510171 23.421216 
L 26.980649 23.421216 
z
" clip-path="url(#p9dba7c68d7)" style="fill: #2c457d; fill-opacity: 0.75; stroke: #000000; stroke-width: 0.064013; stroke-linejoin: miter"/>
   </g>
   <g id="patch_16">
    <path d="M 35.510171 41.652 
L 44.039693 41.652 
L 44.039693 7.332 
L 35.510171 7.332 
z
" clip-path="url(#p9dba7c68d7)" style="fill: #2c457d; fill-opacity: 0.75; stroke: #000000; stroke-width: 0.064013; stroke-linejoin: miter"/>
   </g>
   <g id="patch_17">
    <path d="M 44.039693 41.652 
L 52.569215 41.652 
L 52.569215 25.672608 
L 44.039693 25.672608 
z
" clip-path="url(#p9dba7c68d7)" style="fill: #2c457d; fill-opacity: 0.75; stroke: #000000; stroke-width: 0.064013; stroke-linejoin: miter"/>
   </g>
   <g id="patch_18">
    <path d="M 52.569215 41.652 
L 61.098737 41.652 
L 61.098737 35.06256 
L 52.569215 35.06256 
z
" clip-path="url(#p9dba7c68d7)" style="fill: #2c457d; fill-opacity: 0.75; stroke: #000000; stroke-width: 0.064013; stroke-linejoin: miter"/>
   </g>
   <g id="patch_19">
    <path d="M 61.098737 41.652 
L 69.628259 41.652 
L 69.628259 36.600096 
L 61.098737 36.600096 
z
" clip-path="url(#p9dba7c68d7)" style="fill: #2c457d; fill-opacity: 0.75; stroke: #000000; stroke-width: 0.064013; stroke-linejoin: miter"/>
   </g>
   <g id="patch_20">
    <path d="M 69.628259 41.652 
L 78.157781 41.652 
L 78.157781 40.2792 
L 69.628259 40.2792 
z
" clip-path="url(#p9dba7c68d7)" style="fill: #2c457d; fill-opacity: 0.75; stroke: #000000; stroke-width: 0.064013; stroke-linejoin: miter"/>
   </g>
   <g id="patch_21">
    <path d="M 78.157781 41.652 
L 86.687304 41.652 
L 86.687304 39.400608 
L 78.157781 39.400608 
z
" clip-path="url(#p9dba7c68d7)" style="fill: #2c457d; fill-opacity: 0.75; stroke: #000000; stroke-width: 0.064013; stroke-linejoin: miter"/>
   </g>
   <g id="patch_22">
    <path d="M 86.687304 41.652 
L 95.216826 41.652 
L 95.216826 41.047968 
L 86.687304 41.047968 
z
" clip-path="url(#p9dba7c68d7)" style="fill: #2c457d; fill-opacity: 0.75; stroke: #000000; stroke-width: 0.064013; stroke-linejoin: miter"/>
   </g>
   <g id="patch_23">
    <path d="M 95.216826 41.652 
L 103.746348 41.652 
L 103.746348 40.773408 
L 95.216826 40.773408 
z
" clip-path="url(#p9dba7c68d7)" style="fill: #2c457d; fill-opacity: 0.75; stroke: #000000; stroke-width: 0.064013; stroke-linejoin: miter"/>
   </g>
   <g id="patch_24">
    <path d="M 103.746348 41.652 
L 112.27587 41.652 
L 112.27587 41.487264 
L 103.746348 41.487264 
z
" clip-path="url(#p9dba7c68d7)" style="fill: #2c457d; fill-opacity: 0.75; stroke: #000000; stroke-width: 0.064013; stroke-linejoin: miter"/>
   </g>
   <g id="patch_25">
    <path d="M 112.27587 41.652 
L 120.805392 41.652 
L 120.805392 41.652 
L 112.27587 41.652 
z
" clip-path="url(#p9dba7c68d7)" style="fill: #2c457d; fill-opacity: 0.75; stroke: #000000; stroke-width: 0.064013; stroke-linejoin: miter"/>
   </g>
   <g id="patch_26">
    <path d="M 120.805392 41.652 
L 129.334914 41.652 
L 129.334914 41.37744 
L 120.805392 41.37744 
z
" clip-path="url(#p9dba7c68d7)" style="fill: #2c457d; fill-opacity: 0.75; stroke: #000000; stroke-width: 0.064013; stroke-linejoin: miter"/>
   </g>
   <g id="patch_27">
    <path d="M 129.334914 41.652 
L 137.864436 41.652 
L 137.864436 41.652 
L 129.334914 41.652 
z
" clip-path="url(#p9dba7c68d7)" style="fill: #2c457d; fill-opacity: 0.75; stroke: #000000; stroke-width: 0.064013; stroke-linejoin: miter"/>
   </g>
   <g id="patch_28">
    <path d="M 137.864436 41.652 
L 146.393958 41.652 
L 146.393958 41.652 
L 137.864436 41.652 
z
" clip-path="url(#p9dba7c68d7)" style="fill: #2c457d; fill-opacity: 0.75; stroke: #000000; stroke-width: 0.064013; stroke-linejoin: miter"/>
   </g>
   <g id="patch_29">
    <path d="M 146.393958 41.652 
L 154.92348 41.652 
L 154.92348 41.487264 
L 146.393958 41.487264 
z
" clip-path="url(#p9dba7c68d7)" style="fill: #2c457d; fill-opacity: 0.75; stroke: #000000; stroke-width: 0.064013; stroke-linejoin: miter"/>
   </g>
   <g id="patch_30">
    <path d="M 154.92348 41.652 
L 163.453002 41.652 
L 163.453002 41.597088 
L 154.92348 41.597088 
z
" clip-path="url(#p9dba7c68d7)" style="fill: #2c457d; fill-opacity: 0.75; stroke: #000000; stroke-width: 0.064013; stroke-linejoin: miter"/>
   </g>
   <g id="patch_31">
    <path d="M 163.453002 41.652 
L 171.982524 41.652 
L 171.982524 41.597088 
L 163.453002 41.597088 
z
" clip-path="url(#p9dba7c68d7)" style="fill: #2c457d; fill-opacity: 0.75; stroke: #000000; stroke-width: 0.064013; stroke-linejoin: miter"/>
   </g>
   <g id="patch_32">
    <path d="M 171.982524 41.652 
L 180.512046 41.652 
L 180.512046 41.652 
L 171.982524 41.652 
z
" clip-path="url(#p9dba7c68d7)" style="fill: #2c457d; fill-opacity: 0.75; stroke: #000000; stroke-width: 0.064013; stroke-linejoin: miter"/>
   </g>
   <g id="patch_33">
    <path d="M 180.512046 41.652 
L 189.041568 41.652 
L 189.041568 41.597088 
L 180.512046 41.597088 
z
" clip-path="url(#p9dba7c68d7)" style="fill: #2c457d; fill-opacity: 0.75; stroke: #000000; stroke-width: 0.064013; stroke-linejoin: miter"/>
   </g>
   <g id="patch_34">
    <path d="M 189.041568 41.652 
L 197.57109 41.652 
L 197.57109 41.652 
L 189.041568 41.652 
z
" clip-path="url(#p9dba7c68d7)" style="fill: #2c457d; fill-opacity: 0.75; stroke: #000000; stroke-width: 0.064013; stroke-linejoin: miter"/>
   </g>
   <g id="patch_35">
    <path d="M 197.57109 41.652 
L 206.100612 41.652 
L 206.100612 41.652 
L 197.57109 41.652 
z
" clip-path="url(#p9dba7c68d7)" style="fill: #2c457d; fill-opacity: 0.75; stroke: #000000; stroke-width: 0.064013; stroke-linejoin: miter"/>
   </g>
   <g id="patch_36">
    <path d="M 206.100612 41.652 
L 214.630134 41.652 
L 214.630134 41.652 
L 206.100612 41.652 
z
" clip-path="url(#p9dba7c68d7)" style="fill: #2c457d; fill-opacity: 0.75; stroke: #000000; stroke-width: 0.064013; stroke-linejoin: miter"/>
   </g>
   <g id="patch_37">
    <path d="M 214.630134 41.652 
L 223.159656 41.652 
L 223.159656 41.652 
L 214.630134 41.652 
z
" clip-path="url(#p9dba7c68d7)" style="fill: #2c457d; fill-opacity: 0.75; stroke: #000000; stroke-width: 0.064013; stroke-linejoin: miter"/>
   </g>
   <g id="patch_38">
    <path d="M 223.159656 41.652 
L 231.689178 41.652 
L 231.689178 41.597088 
L 223.159656 41.597088 
z
" clip-path="url(#p9dba7c68d7)" style="fill: #2c457d; fill-opacity: 0.75; stroke: #000000; stroke-width: 0.064013; stroke-linejoin: miter"/>
   </g>
   <g id="patch_39">
    <path d="M 231.689178 41.652 
L 240.2187 41.652 
L 240.2187 41.652 
L 231.689178 41.652 
z
" clip-path="url(#p9dba7c68d7)" style="fill: #2c457d; fill-opacity: 0.75; stroke: #000000; stroke-width: 0.064013; stroke-linejoin: miter"/>
   </g>
   <g id="patch_40">
    <path d="M 240.2187 41.652 
L 248.748222 41.652 
L 248.748222 41.597088 
L 240.2187 41.597088 
z
" clip-path="url(#p9dba7c68d7)" style="fill: #2c457d; fill-opacity: 0.75; stroke: #000000; stroke-width: 0.064013; stroke-linejoin: miter"/>
   </g>
   <g id="patch_41">
    <path d="M 248.748222 41.652 
L 257.277744 41.652 
L 257.277744 41.652 
L 248.748222 41.652 
z
" clip-path="url(#p9dba7c68d7)" style="fill: #2c457d; fill-opacity: 0.75; stroke: #000000; stroke-width: 0.064013; stroke-linejoin: miter"/>
   </g>
   <g id="patch_42">
    <path d="M 257.277744 41.652 
L 265.807266 41.652 
L 265.807266 41.652 
L 257.277744 41.652 
z
" clip-path="url(#p9dba7c68d7)" style="fill: #2c457d; fill-opacity: 0.75; stroke: #000000; stroke-width: 0.064013; stroke-linejoin: miter"/>
   </g>
   <g id="patch_43">
    <path d="M 265.807266 41.652 
L 274.336788 41.652 
L 274.336788 41.652 
L 265.807266 41.652 
z
" clip-path="url(#p9dba7c68d7)" style="fill: #2c457d; fill-opacity: 0.75; stroke: #000000; stroke-width: 0.064013; stroke-linejoin: miter"/>
   </g>
   <g id="patch_44">
    <path d="M 274.336788 41.652 
L 282.86631 41.652 
L 282.86631 41.652 
L 274.336788 41.652 
z
" clip-path="url(#p9dba7c68d7)" style="fill: #2c457d; fill-opacity: 0.75; stroke: #000000; stroke-width: 0.064013; stroke-linejoin: miter"/>
   </g>
   <g id="patch_45">
    <path d="M 282.86631 41.652 
L 291.395832 41.652 
L 291.395832 41.652 
L 282.86631 41.652 
z
" clip-path="url(#p9dba7c68d7)" style="fill: #2c457d; fill-opacity: 0.75; stroke: #000000; stroke-width: 0.064013; stroke-linejoin: miter"/>
   </g>
   <g id="patch_46">
    <path d="M 291.395832 41.652 
L 299.925354 41.652 
L 299.925354 41.652 
L 291.395832 41.652 
z
" clip-path="url(#p9dba7c68d7)" style="fill: #2c457d; fill-opacity: 0.75; stroke: #000000; stroke-width: 0.064013; stroke-linejoin: miter"/>
   </g>
   <g id="patch_47">
    <path d="M 299.925354 41.652 
L 308.454876 41.652 
L 308.454876 41.652 
L 299.925354 41.652 
z
" clip-path="url(#p9dba7c68d7)" style="fill: #2c457d; fill-opacity: 0.75; stroke: #000000; stroke-width: 0.064013; stroke-linejoin: miter"/>
   </g>
   <g id="patch_48">
    <path d="M 308.454876 41.652 
L 316.984398 41.652 
L 316.984398 41.487264 
L 308.454876 41.487264 
z
" clip-path="url(#p9dba7c68d7)" style="fill: #2c457d; fill-opacity: 0.75; stroke: #000000; stroke-width: 0.064013; stroke-linejoin: miter"/>
   </g>
   <g id="patch_49">
    <path d="M 316.984398 41.652 
L 325.51392 41.652 
L 325.51392 41.652 
L 316.984398 41.652 
z
" clip-path="url(#p9dba7c68d7)" style="fill: #2c457d; fill-opacity: 0.75; stroke: #000000; stroke-width: 0.064013; stroke-linejoin: miter"/>
   </g>
   <g id="patch_50">
    <path d="M 325.51392 41.652 
L 334.043442 41.652 
L 334.043442 41.652 
L 325.51392 41.652 
z
" clip-path="url(#p9dba7c68d7)" style="fill: #2c457d; fill-opacity: 0.75; stroke: #000000; stroke-width: 0.064013; stroke-linejoin: miter"/>
   </g>
   <g id="patch_51">
    <path d="M 334.043442 41.652 
L 342.572964 41.652 
L 342.572964 41.652 
L 334.043442 41.652 
z
" clip-path="url(#p9dba7c68d7)" style="fill: #2c457d; fill-opacity: 0.75; stroke: #000000; stroke-width: 0.064013; stroke-linejoin: miter"/>
   </g>
   <g id="patch_52">
    <path d="M 342.572964 41.652 
L 351.102486 41.652 
L 351.102486 41.652 
L 342.572964 41.652 
z
" clip-path="url(#p9dba7c68d7)" style="fill: #2c457d; fill-opacity: 0.75; stroke: #000000; stroke-width: 0.064013; stroke-linejoin: miter"/>
   </g>
   <g id="patch_53">
    <path d="M 351.102486 41.652 
L 359.632008 41.652 
L 359.632008 41.652 
L 351.102486 41.652 
z
" clip-path="url(#p9dba7c68d7)" style="fill: #2c457d; fill-opacity: 0.75; stroke: #000000; stroke-width: 0.064013; stroke-linejoin: miter"/>
   </g>
   <g id="patch_54">
    <path d="M 359.632008 41.652 
L 368.16153 41.652 
L 368.16153 41.652 
L 359.632008 41.652 
z
" clip-path="url(#p9dba7c68d7)" style="fill: #2c457d; fill-opacity: 0.75; stroke: #000000; stroke-width: 0.064013; stroke-linejoin: miter"/>
   </g>
   <g id="patch_55">
    <path d="M 368.16153 41.652 
L 376.691052 41.652 
L 376.691052 41.652 
L 368.16153 41.652 
z
" clip-path="url(#p9dba7c68d7)" style="fill: #2c457d; fill-opacity: 0.75; stroke: #000000; stroke-width: 0.064013; stroke-linejoin: miter"/>
   </g>
   <g id="patch_56">
    <path d="M 376.691052 41.652 
L 385.220574 41.652 
L 385.220574 41.652 
L 376.691052 41.652 
z
" clip-path="url(#p9dba7c68d7)" style="fill: #2c457d; fill-opacity: 0.75; stroke: #000000; stroke-width: 0.064013; stroke-linejoin: miter"/>
   </g>
   <g id="patch_57">
    <path d="M 385.220574 41.652 
L 393.750096 41.652 
L 393.750096 41.652 
L 385.220574 41.652 
z
" clip-path="url(#p9dba7c68d7)" style="fill: #2c457d; fill-opacity: 0.75; stroke: #000000; stroke-width: 0.064013; stroke-linejoin: miter"/>
   </g>
   <g id="patch_58">
    <path d="M 393.750096 41.652 
L 402.279618 41.652 
L 402.279618 41.652 
L 393.750096 41.652 
z
" clip-path="url(#p9dba7c68d7)" style="fill: #2c457d; fill-opacity: 0.75; stroke: #000000; stroke-width: 0.064013; stroke-linejoin: miter"/>
   </g>
   <g id="patch_59">
    <path d="M 402.279618 41.652 
L 410.80914 41.652 
L 410.80914 41.652 
L 402.279618 41.652 
z
" clip-path="url(#p9dba7c68d7)" style="fill: #2c457d; fill-opacity: 0.75; stroke: #000000; stroke-width: 0.064013; stroke-linejoin: miter"/>
   </g>
   <g id="patch_60">
    <path d="M 410.80914 41.652 
L 419.338662 41.652 
L 419.338662 41.652 
L 410.80914 41.652 
z
" clip-path="url(#p9dba7c68d7)" style="fill: #2c457d; fill-opacity: 0.75; stroke: #000000; stroke-width: 0.064013; stroke-linejoin: miter"/>
   </g>
   <g id="patch_61">
    <path d="M 419.338662 41.652 
L 427.868184 41.652 
L 427.868184 41.542176 
L 419.338662 41.542176 
z
" clip-path="url(#p9dba7c68d7)" style="fill: #2c457d; fill-opacity: 0.75; stroke: #000000; stroke-width: 0.064013; stroke-linejoin: miter"/>
   </g>
   <g id="patch_62">
    <path d="M 427.868184 41.652 
L 436.397706 41.652 
L 436.397706 41.652 
L 427.868184 41.652 
z
" clip-path="url(#p9dba7c68d7)" style="fill: #2c457d; fill-opacity: 0.75; stroke: #000000; stroke-width: 0.064013; stroke-linejoin: miter"/>
   </g>
   <g id="patch_63">
    <path d="M 436.397706 41.652 
L 444.927228 41.652 
L 444.927228 41.652 
L 436.397706 41.652 
z
" clip-path="url(#p9dba7c68d7)" style="fill: #2c457d; fill-opacity: 0.75; stroke: #000000; stroke-width: 0.064013; stroke-linejoin: miter"/>
   </g>
   <g id="patch_64">
    <path d="M 444.927228 41.652 
L 453.45675 41.652 
L 453.45675 41.652 
L 444.927228 41.652 
z
" clip-path="url(#p9dba7c68d7)" style="fill: #2c457d; fill-opacity: 0.75; stroke: #000000; stroke-width: 0.064013; stroke-linejoin: miter"/>
   </g>
   <g id="patch_65">
    <path d="M 453.45675 41.652 
L 461.986272 41.652 
L 461.986272 41.652 
L 453.45675 41.652 
z
" clip-path="url(#p9dba7c68d7)" style="fill: #2c457d; fill-opacity: 0.75; stroke: #000000; stroke-width: 0.064013; stroke-linejoin: miter"/>
   </g>
   <g id="patch_66">
    <path d="M 461.986272 41.652 
L 470.515794 41.652 
L 470.515794 41.652 
L 461.986272 41.652 
z
" clip-path="url(#p9dba7c68d7)" style="fill: #2c457d; fill-opacity: 0.75; stroke: #000000; stroke-width: 0.064013; stroke-linejoin: miter"/>
   </g>
   <g id="patch_67">
    <path d="M 470.515794 41.652 
L 479.045316 41.652 
L 479.045316 41.652 
L 470.515794 41.652 
z
" clip-path="url(#p9dba7c68d7)" style="fill: #2c457d; fill-opacity: 0.75; stroke: #000000; stroke-width: 0.064013; stroke-linejoin: miter"/>
   </g>
   <g id="patch_68">
    <path d="M 479.045316 41.652 
L 487.574838 41.652 
L 487.574838 41.652 
L 479.045316 41.652 
z
" clip-path="url(#p9dba7c68d7)" style="fill: #2c457d; fill-opacity: 0.75; stroke: #000000; stroke-width: 0.064013; stroke-linejoin: miter"/>
   </g>
   <g id="patch_69">
    <path d="M 487.574838 41.652 
L 496.10436 41.652 
L 496.10436 41.652 
L 487.574838 41.652 
z
" clip-path="url(#p9dba7c68d7)" style="fill: #2c457d; fill-opacity: 0.75; stroke: #000000; stroke-width: 0.064013; stroke-linejoin: miter"/>
   </g>
   <g id="patch_70">
    <path d="M 496.10436 41.652 
L 504.633882 41.652 
L 504.633882 41.652 
L 496.10436 41.652 
z
" clip-path="url(#p9dba7c68d7)" style="fill: #2c457d; fill-opacity: 0.75; stroke: #000000; stroke-width: 0.064013; stroke-linejoin: miter"/>
   </g>
   <g id="patch_71">
    <path d="M 504.633882 41.652 
L 513.163404 41.652 
L 513.163404 41.652 
L 504.633882 41.652 
z
" clip-path="url(#p9dba7c68d7)" style="fill: #2c457d; fill-opacity: 0.75; stroke: #000000; stroke-width: 0.064013; stroke-linejoin: miter"/>
   </g>
   <g id="patch_72">
    <path d="M 513.163404 41.652 
L 521.692926 41.652 
L 521.692926 41.652 
L 513.163404 41.652 
z
" clip-path="url(#p9dba7c68d7)" style="fill: #2c457d; fill-opacity: 0.75; stroke: #000000; stroke-width: 0.064013; stroke-linejoin: miter"/>
   </g>
   <g id="patch_73">
    <path d="M 521.692926 41.652 
L 530.222448 41.652 
L 530.222448 41.652 
L 521.692926 41.652 
z
" clip-path="url(#p9dba7c68d7)" style="fill: #2c457d; fill-opacity: 0.75; stroke: #000000; stroke-width: 0.064013; stroke-linejoin: miter"/>
   </g>
   <g id="patch_74">
    <path d="M 530.222448 41.652 
L 538.75197 41.652 
L 538.75197 41.652 
L 530.222448 41.652 
z
" clip-path="url(#p9dba7c68d7)" style="fill: #2c457d; fill-opacity: 0.75; stroke: #000000; stroke-width: 0.064013; stroke-linejoin: miter"/>
   </g>
   <g id="patch_75">
    <path d="M 538.75197 41.652 
L 547.281492 41.652 
L 547.281492 41.652 
L 538.75197 41.652 
z
" clip-path="url(#p9dba7c68d7)" style="fill: #2c457d; fill-opacity: 0.75; stroke: #000000; stroke-width: 0.064013; stroke-linejoin: miter"/>
   </g>
   <g id="patch_76">
    <path d="M 547.281492 41.652 
L 555.811014 41.652 
L 555.811014 41.652 
L 547.281492 41.652 
z
" clip-path="url(#p9dba7c68d7)" style="fill: #2c457d; fill-opacity: 0.75; stroke: #000000; stroke-width: 0.064013; stroke-linejoin: miter"/>
   </g>
   <g id="patch_77">
    <path d="M 555.811014 41.652 
L 564.340536 41.652 
L 564.340536 41.652 
L 555.811014 41.652 
z
" clip-path="url(#p9dba7c68d7)" style="fill: #2c457d; fill-opacity: 0.75; stroke: #000000; stroke-width: 0.064013; stroke-linejoin: miter"/>
   </g>
   <g id="patch_78">
    <path d="M 564.340536 41.652 
L 572.870058 41.652 
L 572.870058 41.652 
L 564.340536 41.652 
z
" clip-path="url(#p9dba7c68d7)" style="fill: #2c457d; fill-opacity: 0.75; stroke: #000000; stroke-width: 0.064013; stroke-linejoin: miter"/>
   </g>
   <g id="patch_79">
    <path d="M 572.870058 41.652 
L 581.39958 41.652 
L 581.39958 41.652 
L 572.870058 41.652 
z
" clip-path="url(#p9dba7c68d7)" style="fill: #2c457d; fill-opacity: 0.75; stroke: #000000; stroke-width: 0.064013; stroke-linejoin: miter"/>
   </g>
   <g id="patch_80">
    <path d="M 581.39958 41.652 
L 589.929102 41.652 
L 589.929102 41.652 
L 581.39958 41.652 
z
" clip-path="url(#p9dba7c68d7)" style="fill: #2c457d; fill-opacity: 0.75; stroke: #000000; stroke-width: 0.064013; stroke-linejoin: miter"/>
   </g>
   <g id="patch_81">
    <path d="M 589.929102 41.652 
L 598.458624 41.652 
L 598.458624 41.652 
L 589.929102 41.652 
z
" clip-path="url(#p9dba7c68d7)" style="fill: #2c457d; fill-opacity: 0.75; stroke: #000000; stroke-width: 0.064013; stroke-linejoin: miter"/>
   </g>
   <g id="patch_82">
    <path d="M 598.458624 41.652 
L 606.988146 41.652 
L 606.988146 41.652 
L 598.458624 41.652 
z
" clip-path="url(#p9dba7c68d7)" style="fill: #2c457d; fill-opacity: 0.75; stroke: #000000; stroke-width: 0.064013; stroke-linejoin: miter"/>
   </g>
   <g id="patch_83">
    <path d="M 606.988146 41.652 
L 615.517668 41.652 
L 615.517668 41.652 
L 606.988146 41.652 
z
" clip-path="url(#p9dba7c68d7)" style="fill: #2c457d; fill-opacity: 0.75; stroke: #000000; stroke-width: 0.064013; stroke-linejoin: miter"/>
   </g>
   <g id="patch_84">
    <path d="M 615.517668 41.652 
L 624.04719 41.652 
L 624.04719 41.652 
L 615.517668 41.652 
z
" clip-path="url(#p9dba7c68d7)" style="fill: #2c457d; fill-opacity: 0.75; stroke: #000000; stroke-width: 0.064013; stroke-linejoin: miter"/>
   </g>
   <g id="patch_85">
    <path d="M 624.04719 41.652 
L 632.576712 41.652 
L 632.576712 41.652 
L 624.04719 41.652 
z
" clip-path="url(#p9dba7c68d7)" style="fill: #2c457d; fill-opacity: 0.75; stroke: #000000; stroke-width: 0.064013; stroke-linejoin: miter"/>
   </g>
   <g id="patch_86">
    <path d="M 632.576712 41.652 
L 641.106235 41.652 
L 641.106235 41.597088 
L 632.576712 41.597088 
z
" clip-path="url(#p9dba7c68d7)" style="fill: #2c457d; fill-opacity: 0.75; stroke: #000000; stroke-width: 0.064013; stroke-linejoin: miter"/>
   </g>
   <g id="matplotlib.axis_1">
    <g id="xtick_1">
     <g id="line2d_1">
      <defs>
       <path id="ma56ab00048" d="M 0 0 
L 0 3.5 
" style="stroke: #000000; stroke-width: 0.8"/>
      </defs>
      <g>
       <use xlink:href="#ma56ab00048" x="9.54" y="41.652" style="stroke: #000000; stroke-width: 0.8"/>
      </g>
     </g>
     <g id="text_1">
      <text style="font-size: 6px; font-family: 'Arial', sans-serif; text-anchor: middle" x="9.54" y="52.946688" transform="rotate(-0 9.54 52.946688)">−1000</text>
     </g>
    </g>
    <g id="xtick_2">
     <g id="line2d_2">
      <g>
       <use xlink:href="#ma56ab00048" x="39.114" y="41.652" style="stroke: #000000; stroke-width: 0.8"/>
      </g>
     </g>
     <g id="text_2">
      <text style="font-size: 6px; font-family: 'Arial', sans-serif; text-anchor: middle" x="39.114" y="52.946688" transform="rotate(-0 39.114 52.946688)">0</text>
     </g>
    </g>
    <g id="xtick_3">
     <g id="line2d_3">
      <g>
       <use xlink:href="#ma56ab00048" x="68.688" y="41.652" style="stroke: #000000; stroke-width: 0.8"/>
      </g>
     </g>
     <g id="text_3">
      <text style="font-size: 6px; font-family: 'Arial', sans-serif; text-anchor: middle" x="68.688" y="52.946688" transform="rotate(-0 68.688 52.946688)">1000</text>
     </g>
    </g>
   </g>
   <g id="matplotlib.axis_2">
    <g id="ytick_1"/>
    <g id="ytick_2"/>
    <g id="ytick_3"/>
   </g>
   <g id="patch_87">
    <path d="M 9.54 41.652 
L 9.54 5.616 
" style="fill: none; stroke: #000000; stroke-linejoin: miter; stroke-linecap: square"/>
   </g>
   <g id="patch_88">
    <path d="M 68.688 41.652 
L 68.688 5.616 
" style="fill: none; stroke: #000000; stroke-linejoin: miter; stroke-linecap: square"/>
   </g>
   <g id="patch_89">
    <path d="M 9.54 41.652 
L 68.688 41.652 
" style="fill: none; stroke: #000000; stroke-linejoin: miter; stroke-linecap: square"/>
   </g>
   <g id="patch_90">
    <path d="M 9.54 5.616 
L 68.688 5.616 
" style="fill: none; stroke: #000000; stroke-linejoin: miter; stroke-linecap: square"/>
   </g>
  </g>
 </g>
 <defs>
  <clipPath id="p9dba7c68d7">
   <rect x="9.54" y="5.616" width="59.148" height="36.036"/>
  </clipPath>
 </defs>
</svg>
