<?xml version="1.0" encoding="utf-8" standalone="no"?>
<!DOCTYPE svg PUBLIC "-//W3C//DTD SVG 1.1//EN"
  "http://www.w3.org/Graphics/SVG/1.1/DTD/svg11.dtd">
<svg xmlns:xlink="http://www.w3.org/1999/xlink" width="195.738833pt" height="193.677375pt" viewBox="0 0 195.738833 193.677375" xmlns="http://www.w3.org/2000/svg" version="1.1">
 <metadata>
  <rdf:RDF xmlns:dc="http://purl.org/dc/elements/1.1/" xmlns:cc="http://creativecommons.org/ns#" xmlns:rdf="http://www.w3.org/1999/02/22-rdf-syntax-ns#">
   <cc:Work>
    <dc:type rdf:resource="http://purl.org/dc/dcmitype/StillImage"/>
    <dc:date>2026-01-20T10:59:16.251615</dc:date>
    <dc:format>image/svg+xml</dc:format>
    <dc:creator>
     <cc:Agent>
      <dc:title>Matplotlib v3.9.2, https://matplotlib.org/</dc:title>
     </cc:Agent>
    </dc:creator>
   </cc:Work>
  </rdf:RDF>
 </metadata>
 <defs>
  <style type="text/css">*{stroke-linejoin: round; stroke-linecap: butt}</style>
 </defs>
 <g id="figure_1">
  <g id="patch_1">
   <path d="M 0 193.677375 
L 195.738833 193.677375 
L 195.738833 0 
L 0 0 
z
" style="fill: #ffffff"/>
  </g>
  <g id="axes_1">
   <g id="patch_2">
    <path d="M 33.619687 162.589875 
L 182.658833 162.589875 
L 182.658833 7.2 
L 33.619687 7.2 
z
" style="fill: #ffffff"/>
   </g>
   <g id="matplotlib.axis_1">
    <g id="xtick_1">
     <g id="line2d_1">
      <defs>
       <path id="mdfa08ad2f6" d="M 0 0 
L 0 3.5 
" style="stroke: #000000; stroke-width: 0.8"/>
      </defs>
      <g>
       <use xlink:href="#mdfa08ad2f6" x="48.042831" y="162.589875" style="stroke: #000000; stroke-width: 0.8"/>
      </g>
     </g>
     <g id="text_1">
      <!-- $\mathdefault{10^{1}}$ -->
      <g transform="translate(43.332831 175.777375)">
       <text>
        <tspan style="font: 6px 'Arial'" x="0 3.336914" y="-0.7996250000000007">10</tspan>
        <tspan style="font: 4.2px 'Arial'" x="6.778369" y="-4.98125">1</tspan>
       </text>
      </g>
     </g>
    </g>
    <g id="xtick_2">
     <g id="line2d_2">
      <g>
       <use xlink:href="#mdfa08ad2f6" x="67.273688" y="162.589875" style="stroke: #000000; stroke-width: 0.8"/>
      </g>
     </g>
     <g id="text_2">
      <!-- $\mathdefault{10^{3}}$ -->
      <g transform="translate(62.563688 175.777375)">
       <text>
        <tspan style="font: 6px 'Arial'" x="0 3.336914" y="-0.7996250000000007">10</tspan>
        <tspan style="font: 4.2px 'Arial'" x="6.778369" y="-4.98125">3</tspan>
       </text>
      </g>
     </g>
    </g>
    <g id="xtick_3">
     <g id="line2d_3">
      <g>
       <use xlink:href="#mdfa08ad2f6" x="86.504546" y="162.589875" style="stroke: #000000; stroke-width: 0.8"/>
      </g>
     </g>
     <g id="text_3">
      <!-- $\mathdefault{10^{5}}$ -->
      <g transform="translate(81.794546 175.717375)">
       <text>
        <tspan style="font: 6px 'Arial'" x="0 3.336914" y="-0.8543125000000007">10</tspan>
        <tspan style="font: 4.2px 'Arial'" x="6.778369" y="-5.0359375">5</tspan>
       </text>
      </g>
     </g>
    </g>
    <g id="xtick_4">
     <g id="line2d_4">
      <g>
       <use xlink:href="#mdfa08ad2f6" x="105.735403" y="162.589875" style="stroke: #000000; stroke-width: 0.8"/>
      </g>
     </g>
     <g id="text_4">
      <!-- $\mathdefault{10^{7}}$ -->
      <g transform="translate(101.025403 175.717375)">
       <text>
        <tspan style="font: 6px 'Arial'" x="0 3.336914" y="-0.8543125000000007">10</tspan>
        <tspan style="font: 4.2px 'Arial'" x="6.778369" y="-5.0359375">7</tspan>
       </text>
      </g>
     </g>
    </g>
    <g id="xtick_5">
     <g id="line2d_5">
      <g>
       <use xlink:href="#mdfa08ad2f6" x="124.966261" y="162.589875" style="stroke: #000000; stroke-width: 0.8"/>
      </g>
     </g>
     <g id="text_5">
      <!-- $\mathdefault{10^{9}}$ -->
      <g transform="translate(120.256261 175.777375)">
       <text>
        <tspan style="font: 6px 'Arial'" x="0 3.336914" y="-0.7996250000000007">10</tspan>
        <tspan style="font: 4.2px 'Arial'" x="6.778369" y="-4.98125">9</tspan>
       </text>
      </g>
     </g>
    </g>
    <g id="xtick_6">
     <g id="line2d_6">
      <g>
       <use xlink:href="#mdfa08ad2f6" x="144.197118" y="162.589875" style="stroke: #000000; stroke-width: 0.8"/>
      </g>
     </g>
     <g id="text_6">
      <!-- $\mathdefault{10^{11}}$ -->
      <g transform="translate(138.317118 175.777375)">
       <text>
        <tspan style="font: 6px 'Arial'" x="0 3.336914" y="-0.7996250000000007">10</tspan>
        <tspan style="font: 4.2px 'Arial'" x="6.778369 9.114209" y="-4.98125">11</tspan>
       </text>
      </g>
     </g>
    </g>
    <g id="xtick_7">
     <g id="line2d_7">
      <g>
       <use xlink:href="#mdfa08ad2f6" x="163.427976" y="162.589875" style="stroke: #000000; stroke-width: 0.8"/>
      </g>
     </g>
     <g id="text_7">
      <!-- $\mathdefault{10^{13}}$ -->
      <g transform="translate(157.547976 175.777375)">
       <text>
        <tspan style="font: 6px 'Arial'" x="0 3.336914" y="-0.7996250000000007">10</tspan>
        <tspan style="font: 4.2px 'Arial'" x="6.778369 9.114209" y="-4.98125">13</tspan>
       </text>
      </g>
     </g>
    </g>
    <g id="xtick_8">
     <g id="line2d_8">
      <g>
       <use xlink:href="#mdfa08ad2f6" x="182.658833" y="162.589875" style="stroke: #000000; stroke-width: 0.8"/>
      </g>
     </g>
     <g id="text_8">
      <!-- $\mathdefault{10^{15}}$ -->
      <g transform="translate(176.778833 175.777375)">
       <text>
        <tspan style="font: 6px 'Arial'" x="0 3.336914" y="-0.7996250000000007">10</tspan>
        <tspan style="font: 4.2px 'Arial'" x="6.778369 9.114209" y="-4.98125">15</tspan>
       </text>
      </g>
     </g>
    </g>
    <g id="text_9">
     <text style="font: 700 8px 'Arial', sans-serif; text-anchor: middle" x="108.13926" y="184.793625" transform="rotate(-0 108.13926 184.793625)">Ratio of Operating to Exchange Current,</text>
    </g>
   </g>
   <g id="matplotlib.axis_2">
    <g id="ytick_1">
     <g id="line2d_9">
      <defs>
       <path id="m49e9989219" d="M 0 0 
L -3.5 0 
" style="stroke: #000000; stroke-width: 0.8"/>
      </defs>
      <g>
       <use xlink:href="#m49e9989219" x="33.619687" y="162.589875" style="stroke: #000000; stroke-width: 0.8"/>
      </g>
     </g>
     <g id="text_10">
      <text style="font: 6px 'Arial', sans-serif; text-anchor: end" x="26.619687" y="164.737219" transform="rotate(-0 26.619687 164.737219)">0</text>
     </g>
    </g>
    <g id="ytick_2">
     <g id="line2d_10">
      <g>
       <use xlink:href="#m49e9989219" x="33.619687" y="138.68374" style="stroke: #000000; stroke-width: 0.8"/>
      </g>
     </g>
     <g id="text_11">
      <text style="font: 6px 'Arial', sans-serif; text-anchor: end" x="26.619687" y="140.831084" transform="rotate(-0 26.619687 140.831084)">20</text>
     </g>
    </g>
    <g id="ytick_3">
     <g id="line2d_11">
      <g>
       <use xlink:href="#m49e9989219" x="33.619687" y="114.777606" style="stroke: #000000; stroke-width: 0.8"/>
      </g>
     </g>
     <g id="text_12">
      <text style="font: 6px 'Arial', sans-serif; text-anchor: end" x="26.619687" y="116.92495" transform="rotate(-0 26.619687 116.92495)">40</text>
     </g>
    </g>
    <g id="ytick_4">
     <g id="line2d_12">
      <g>
       <use xlink:href="#m49e9989219" x="33.619687" y="90.871471" style="stroke: #000000; stroke-width: 0.8"/>
      </g>
     </g>
     <g id="text_13">
      <text style="font: 6px 'Arial', sans-serif; text-anchor: end" x="26.619687" y="93.018815" transform="rotate(-0 26.619687 93.018815)">60</text>
     </g>
    </g>
    <g id="ytick_5">
     <g id="line2d_13">
      <g>
       <use xlink:href="#m49e9989219" x="33.619687" y="66.965337" style="stroke: #000000; stroke-width: 0.8"/>
      </g>
     </g>
     <g id="text_14">
      <text style="font: 6px 'Arial', sans-serif; text-anchor: end" x="26.619687" y="69.11268" transform="rotate(-0 26.619687 69.11268)">80</text>
     </g>
    </g>
    <g id="ytick_6">
     <g id="line2d_14">
      <g>
       <use xlink:href="#m49e9989219" x="33.619687" y="43.059202" style="stroke: #000000; stroke-width: 0.8"/>
      </g>
     </g>
     <g id="text_15">
      <text style="font: 6px 'Arial', sans-serif; text-anchor: end" x="26.619687" y="45.206546" transform="rotate(-0 26.619687 45.206546)">100</text>
     </g>
    </g>
    <g id="ytick_7">
     <g id="line2d_15">
      <g>
       <use xlink:href="#m49e9989219" x="33.619687" y="19.153067" style="stroke: #000000; stroke-width: 0.8"/>
      </g>
     </g>
     <g id="text_16">
      <text style="font: 6px 'Arial', sans-serif; text-anchor: end" x="26.619687" y="21.300411" transform="rotate(-0 26.619687 21.300411)">120</text>
     </g>
    </g>
    <g id="text_17">
     <text style="font: 700 8px 'Arial', sans-serif; text-anchor: middle" x="12.92625" y="84.894938" transform="rotate(-90 12.92625 84.894938)">Activation Energy,</text>
    </g>
   </g>
   <g id="QuadContourSet_1">
    <path d="M 33.619687 155.688952 
L 182.658833 49.994295 
L 182.658833 49.994295 
" clip-path="url(#p06edf9e476)" style="fill: none; stroke: #0073b2; stroke-width: 0.5"/>
    <path d="M 33.619687 145.378525 
L 61.564842 125.56096 
L 95.980411 101.153933 
L 108.064666 92.584096 
L 182.658833 39.683867 
L 182.658833 39.683867 
" clip-path="url(#p06edf9e476)" style="fill: none; stroke: #0073b2; stroke-width: 0.5"/>
   </g>
   <g id="QuadContourSet_2">
    <path d="M 33.619687 148.815334 
L 77.815424 117.47322 
L 122.685123 85.65246 
L 149.751372 66.458247 
L 175.199417 48.410699 
L 182.658833 43.120676 
L 182.658833 43.120676 
" clip-path="url(#p06edf9e476)" style="fill: none; stroke: #c6c0fe; stroke-width: 0.5"/>
    <path d="M 33.619687 131.631287 
L 44.811245 123.694558 
L 182.658833 25.93663 
L 182.658833 25.93663 
" clip-path="url(#p06edf9e476)" style="fill: none; stroke: #c6c0fe; stroke-width: 0.5"/>
   </g>
   <g id="QuadContourSet_3">
    <path d="M 33.619687 141.941715 
L 53.909301 127.552853 
L 182.658833 36.247058 
L 182.658833 36.247058 
" clip-path="url(#p06edf9e476)" style="fill: none; stroke: #e5a024; stroke-width: 0.5"/>
    <path d="M 33.619687 117.88405 
L 182.658833 12.189393 
L 182.658833 12.189393 
" clip-path="url(#p06edf9e476)" style="fill: none; stroke: #e5a024; stroke-width: 0.5"/>
   </g>
   <g id="patch_3">
    <path d="M 33.619687 162.589875 
L 33.619687 7.2 
" style="fill: none; stroke: #000000; stroke-linejoin: miter; stroke-linecap: square"/>
   </g>
   <g id="patch_4">
    <path d="M 182.658833 162.589875 
L 182.658833 7.2 
" style="fill: none; stroke: #000000; stroke-linejoin: miter; stroke-linecap: square"/>
   </g>
   <g id="patch_5">
    <path d="M 33.619687 162.589875 
L 182.658833 162.589875 
" style="fill: none; stroke: #000000; stroke-linejoin: miter; stroke-linecap: square"/>
   </g>
   <g id="patch_6">
    <path d="M 33.619687 7.2 
L 182.658833 7.2 
" style="fill: none; stroke: #000000; stroke-linejoin: miter; stroke-linecap: square"/>
   </g>
   <g id="PathCollection_1">
    <defs>
     <path id="ma24a5ceb34" d="M 0 1.936492 
C 0.513564 1.936492 1.006162 1.732451 1.369306 1.369306 
C 1.732451 1.006162 1.936492 0.513564 1.936492 0 
C 1.936492 -0.513564 1.732451 -1.006162 1.369306 -1.369306 
C 1.006162 -1.732451 0.513564 -1.936492 0 -1.936492 
C -0.513564 -1.936492 -1.006162 -1.732451 -1.369306 -1.369306 
C -1.732451 -1.006162 -1.936492 -0.513564 -1.936492 0 
C -1.936492 0.513564 -1.732451 1.006162 -1.369306 1.369306 
C -1.006162 1.732451 -0.513564 1.936492 0 1.936492 
z
" style="stroke: #5ab4e5; stroke-width: 0.6"/>
    </defs>
    <g clip-path="url(#p06edf9e476)">
     <use xlink:href="#ma24a5ceb34" x="98.373554" y="89.676164" style="fill: #5ab4e5; stroke: #5ab4e5; stroke-width: 0.6"/>
    </g>
   </g>
   <g id="PathCollection_2">
    <defs>
     <path id="m36ba5f5956" d="M 0 1.936492 
C 0.513564 1.936492 1.006162 1.732451 1.369306 1.369306 
C 1.732451 1.006162 1.936492 0.513564 1.936492 0 
C 1.936492 -0.513564 1.732451 -1.006162 1.369306 -1.369306 
C 1.006162 -1.732451 0.513564 -1.936492 0 -1.936492 
C -0.513564 -1.936492 -1.006162 -1.732451 -1.369306 -1.369306 
C -1.732451 -1.006162 -1.936492 -0.513564 -1.936492 0 
C -1.936492 0.513564 -1.732451 1.006162 -1.369306 1.369306 
C -1.006162 1.732451 -0.513564 1.936492 0 1.936492 
z
" style="stroke: #5a4a85; stroke-width: 0.6"/>
    </defs>
    <g clip-path="url(#p06edf9e476)">
     <use xlink:href="#m36ba5f5956" x="87.488905" y="57.64033" style="fill: #5a4a85; stroke: #5a4a85; stroke-width: 0.6"/>
    </g>
   </g>
   <g id="PathCollection_3">
    <defs>
     <path id="mf5b99dde10" d="M 0 2.738613 
L 2.738613 0 
L 0 -2.738613 
L -2.738613 0 
z
" style="stroke: #d36027; stroke-width: 0.6"/>
    </defs>
    <g clip-path="url(#p06edf9e476)">
     <use xlink:href="#mf5b99dde10" x="51.56816" y="142.866119" style="fill: #d36027; stroke: #d36027; stroke-width: 0.6"/>
    </g>
   </g>
   <g id="PathCollection_4">
    <defs>
     <path id="me259a99686" d="M -0 1.936492 
L 1.936492 -1.936492 
L -1.936492 -1.936492 
z
" style="stroke: #d36027; stroke-width: 0.6"/>
    </defs>
    <g clip-path="url(#p06edf9e476)">
     <use xlink:href="#me259a99686" x="57.80521" y="149.152237" style="fill: #d36027; stroke: #d36027; stroke-width: 0.6"/>
    </g>
   </g>
   <g id="PathCollection_5">
    <defs>
     <path id="mb5a6a4bdee" d="M -1.936492 1.936492 
L 1.936492 1.936492 
L 1.936492 -1.936492 
L -1.936492 -1.936492 
z
" style="stroke: #d36027; stroke-width: 0.6"/>
    </defs>
    <g clip-path="url(#p06edf9e476)">
     <use xlink:href="#mb5a6a4bdee" x="62.463885" y="114.722622" style="fill: #d36027; stroke: #d36027; stroke-width: 0.6"/>
    </g>
   </g>
   <g id="PathCollection_6">
    <defs>
     <path id="mf04ad7f18f" d="M 0 -1.936492 
L -0.434769 -0.598409 
L -1.841713 -0.598409 
L -0.703472 0.228572 
L -1.138241 1.566655 
L -0 0.739674 
L 1.138241 1.566655 
L 0.703472 0.228572 
L 1.841713 -0.598409 
L 0.434769 -0.598409 
z
" style="stroke: #e5a024; stroke-width: 0.6"/>
    </defs>
    <g clip-path="url(#p06edf9e476)">
     <use xlink:href="#mf04ad7f18f" x="38.95843" y="143.464967" style="fill: #e5a024; stroke: #e5a024; stroke-width: 0.6"/>
    </g>
   </g>
   <g id="PathCollection_7">
    <defs>
     <path id="mcf2ba70696" d="M 0 1.936492 
C 0.513564 1.936492 1.006162 1.732451 1.369306 1.369306 
C 1.732451 1.006162 1.936492 0.513564 1.936492 0 
C 1.936492 -0.513564 1.732451 -1.006162 1.369306 -1.369306 
C 1.006162 -1.732451 0.513564 -1.936492 0 -1.936492 
C -0.513564 -1.936492 -1.006162 -1.732451 -1.369306 -1.369306 
C -1.732451 -1.006162 -1.936492 -0.513564 -1.936492 0 
C -1.936492 0.513564 -1.732451 1.006162 -1.369306 1.369306 
C -1.006162 1.732451 -0.513564 1.936492 0 1.936492 
z
" style="stroke: #e5a024; stroke-width: 0.6"/>
    </defs>
    <g clip-path="url(#p06edf9e476)">
     <use xlink:href="#mcf2ba70696" x="44.228457" y="139.879047" style="fill: #e5a024; stroke: #e5a024; stroke-width: 0.6"/>
    </g>
   </g>
   <g id="PathCollection_8">
    <defs>
     <path id="m00a5cb3223" d="M -0.645497 1.936492 
L 0.645497 1.936492 
L 0.645497 0.645497 
L 1.936492 0.645497 
L 1.936492 -0.645497 
L 0.645497 -0.645497 
L 0.645497 -1.936492 
L -0.645497 -1.936492 
L -0.645497 -0.645497 
L -1.936492 -0.645497 
L -1.936492 0.645497 
L -0.645497 0.645497 
z
" style="stroke: #e5a024; stroke-width: 0.6"/>
    </defs>
    <g clip-path="url(#p06edf9e476)">
     <use xlink:href="#m00a5cb3223" x="55.57454" y="125.535366" style="fill: #e5a024; stroke: #e5a024; stroke-width: 0.6"/>
    </g>
   </g>
   <g id="PathCollection_9">
    <defs>
     <path id="maf0bce2b60" d="M -1.936492 1.936492 
L 1.936492 -1.936492 
M -1.936492 -1.936492 
L 1.936492 1.936492 
" style="stroke: #e5a024; stroke-width: 0.6"/>
    </defs>
    <g clip-path="url(#p06edf9e476)">
     <use xlink:href="#maf0bce2b60" x="53.199046" y="129.121287" style="fill: #e5a024; stroke: #e5a024; stroke-width: 0.6"/>
    </g>
   </g>
   <g id="PathCollection_10">
    <defs>
     <path id="m44fd5f670d" d="M 0 1.936492 
C 0.513564 1.936492 1.006162 1.732451 1.369306 1.369306 
C 1.732451 1.006162 1.936492 0.513564 1.936492 0 
C 1.936492 -0.513564 1.732451 -1.006162 1.369306 -1.369306 
C 1.006162 -1.732451 0.513564 -1.936492 0 -1.936492 
C -0.513564 -1.936492 -1.006162 -1.732451 -1.369306 -1.369306 
C -1.732451 -1.006162 -1.936492 -0.513564 -1.936492 0 
C -1.936492 0.513564 -1.732451 1.006162 -1.369306 1.369306 
C -1.006162 1.732451 -0.513564 1.936492 0 1.936492 
z
" style="stroke: #cc79a7; stroke-width: 0.6"/>
    </defs>
    <g clip-path="url(#p06edf9e476)">
     <use xlink:href="#m44fd5f670d" x="92.903541" y="82.504324" style="fill: #ffffff; stroke: #cc79a7; stroke-width: 0.6"/>
    </g>
   </g>
   <g id="PathCollection_11">
    <defs>
     <path id="m917c3338fc" d="M 0 2.738613 
L 2.738613 0 
L 0 -2.738613 
L -2.738613 0 
z
" style="stroke: #cc79a7; stroke-width: 0.6"/>
    </defs>
    <g clip-path="url(#p06edf9e476)">
     <use xlink:href="#m917c3338fc" x="111.721898" y="82.237384" style="fill: #cc79a7; stroke: #cc79a7; stroke-width: 0.6"/>
    </g>
   </g>
   <g id="PathCollection_12">
    <defs>
     <path id="m69e145afae" d="M -0 1.936492 
L 1.936492 -1.936492 
L -1.936492 -1.936492 
z
" style="stroke: #cc79a7; stroke-width: 0.6"/>
    </defs>
    <g clip-path="url(#p06edf9e476)">
     <use xlink:href="#m69e145afae" x="112.910496" y="84.622451" style="fill: #cc79a7; stroke: #cc79a7; stroke-width: 0.6"/>
    </g>
   </g>
   <g id="PathCollection_13">
    <defs>
     <path id="m979957c88b" d="M -1.936492 1.936492 
L 1.936492 1.936492 
L 1.936492 -1.936492 
L -1.936492 -1.936492 
z
" style="stroke: #cc79a7; stroke-width: 0.6"/>
    </defs>
    <g clip-path="url(#p06edf9e476)">
     <use xlink:href="#m979957c88b" x="114.280564" y="71.405204" style="fill: #cc79a7; stroke: #cc79a7; stroke-width: 0.6"/>
    </g>
   </g>
   <g id="PathCollection_14">
    <defs>
     <path id="m6c04292ee0" d="M -1.936492 1.936492 
L 1.936492 1.936492 
L 1.936492 -1.936492 
L -1.936492 -1.936492 
z
" style="stroke: #e5a024; stroke-width: 0.6"/>
    </defs>
    <g clip-path="url(#p06edf9e476)">
     <use xlink:href="#m6c04292ee0" x="55.559472" y="135.757869" style="fill: #ffffff; stroke: #e5a024; stroke-width: 0.6"/>
    </g>
   </g>
   <g id="PathCollection_15">
    <defs>
     <path id="m0d5f6f601c" d="M -0 1.936492 
L 1.936492 -1.936492 
L -1.936492 -1.936492 
z
" style="stroke: #e5a024; stroke-width: 0.6"/>
    </defs>
    <g clip-path="url(#p06edf9e476)">
     <use xlink:href="#m0d5f6f601c" x="56.502054" y="137.238598" style="fill: #ffffff; stroke: #e5a024; stroke-width: 0.6"/>
    </g>
   </g>
   <g id="PathCollection_16">
    <defs>
     <path id="me08d983806" d="M 0 2.738613 
L 2.738613 0 
L 0 -2.738613 
L -2.738613 0 
z
" style="stroke: #e5a024; stroke-width: 0.6"/>
    </defs>
    <g clip-path="url(#p06edf9e476)">
     <use xlink:href="#me08d983806" x="57.809213" y="129.407627" style="fill: #ffffff; stroke: #e5a024; stroke-width: 0.6"/>
    </g>
   </g>
   <g id="PathCollection_17">
    <defs>
     <path id="m3e302a6437" d="M 0 -1.936492 
L -1.936492 1.936492 
L 1.936492 1.936492 
z
" style="stroke: #e5a024; stroke-width: 0.6"/>
    </defs>
    <g clip-path="url(#p06edf9e476)">
     <use xlink:href="#m3e302a6437" x="58.972469" y="121.934416" style="fill: #ffffff; stroke: #e5a024; stroke-width: 0.6"/>
    </g>
   </g>
   <g id="PathCollection_18">
    <defs>
     <path id="mfdac8569db" d="M 0 1.936492 
C 0.513564 1.936492 1.006162 1.732451 1.369306 1.369306 
C 1.732451 1.006162 1.936492 0.513564 1.936492 0 
C 1.936492 -0.513564 1.732451 -1.006162 1.369306 -1.369306 
C 1.006162 -1.732451 0.513564 -1.936492 0 -1.936492 
C -0.513564 -1.936492 -1.006162 -1.732451 -1.369306 -1.369306 
C -1.732451 -1.006162 -1.936492 -0.513564 -1.936492 0 
C -1.936492 0.513564 -1.732451 1.006162 -1.369306 1.369306 
C -1.006162 1.732451 -0.513564 1.936492 0 1.936492 
z
" style="stroke: #e5a024; stroke-width: 0.6"/>
    </defs>
    <g clip-path="url(#p06edf9e476)">
     <use xlink:href="#mfdac8569db" x="67.585728" y="109.720885" style="fill: #ffffff; stroke: #e5a024; stroke-width: 0.6"/>
    </g>
   </g>
   <g id="PathCollection_19">
    <defs>
     <path id="mec47abd1d0" d="M 0 1.936492 
C 0.513564 1.936492 1.006162 1.732451 1.369306 1.369306 
C 1.732451 1.006162 1.936492 0.513564 1.936492 0 
C 1.936492 -0.513564 1.732451 -1.006162 1.369306 -1.369306 
C 1.006162 -1.732451 0.513564 -1.936492 0 -1.936492 
C -0.513564 -1.936492 -1.006162 -1.732451 -1.369306 -1.369306 
C -1.732451 -1.006162 -1.936492 -0.513564 -1.936492 0 
C -1.936492 0.513564 -1.732451 1.006162 -1.369306 1.369306 
C -1.006162 1.732451 -0.513564 1.936492 0 1.936492 
z
" style="stroke: #0073b2; stroke-width: 0.6"/>
    </defs>
    <g clip-path="url(#p06edf9e476)">
     <use xlink:href="#mec47abd1d0" x="172.081862" y="25.129601" style="fill: #0073b2; stroke: #0073b2; stroke-width: 0.6"/>
    </g>
   </g>
  </g>
 </g>
 <defs>
  <clipPath id="p06edf9e476">
   <rect x="33.619687" y="7.2" width="149.039146" height="155.389875"/>
  </clipPath>
 </defs>
</svg>
