<?xml version="1.0" encoding="utf-8" standalone="no"?>
<!DOCTYPE svg PUBLIC "-//W3C//DTD SVG 1.1//EN"
  "http://www.w3.org/Graphics/SVG/1.1/DTD/svg11.dtd">
<svg xmlns:xlink="http://www.w3.org/1999/xlink" width="230.4pt" height="180pt" viewBox="0 0 230.4 180" xmlns="http://www.w3.org/2000/svg" version="1.1">
 <metadata>
  <rdf:RDF xmlns:dc="http://purl.org/dc/elements/1.1/" xmlns:cc="http://creativecommons.org/ns#" xmlns:rdf="http://www.w3.org/1999/02/22-rdf-syntax-ns#">
   <cc:Work>
    <dc:type rdf:resource="http://purl.org/dc/dcmitype/StillImage"/>
    <dc:date>2025-09-22T14:44:18.743376</dc:date>
    <dc:format>image/svg+xml</dc:format>
    <dc:creator>
     <cc:Agent>
      <dc:title>Matplotlib v3.8.4, https://matplotlib.org/</dc:title>
     </cc:Agent>
    </dc:creator>
   </cc:Work>
  </rdf:RDF>
 </metadata>
 <defs>
  <style type="text/css">*{stroke-linejoin: round; stroke-linecap: butt}</style>
 </defs>
 <g id="figure_1">
  <g id="patch_1">
   <path d="M 0 180 
L 230.4 180 
L 230.4 0 
L 0 0 
z
" style="fill: #ffffff"/>
  </g>
  <g id="axes_1">
   <g id="patch_2">
    <path d="M 28.8 160.2 
L 207.36 160.2 
L 207.36 21.6 
L 28.8 21.6 
z
" style="fill: #ffffff"/>
   </g>
   <g id="PolyCollection_1">
    <defs>
     <path id="mb89b9df7d4" d="M 150.659197 -26.1 
L 150.659197 -28.542192 
L 150.821687 -28.524267 
L 150.984177 -28.506471 
L 151.146667 -28.488804 
L 151.309156 -28.471264 
L 151.471646 -28.45385 
L 151.634136 -28.436562 
L 151.796626 -28.419398 
L 151.959115 -28.402358 
L 152.121605 -28.385441 
L 152.284095 -28.368646 
L 152.446585 -28.351973 
L 152.609075 -28.335419 
L 152.771564 -28.318985 
L 152.934054 -28.30267 
L 153.096544 -28.286473 
L 153.259034 -28.270392 
L 153.421523 -28.254428 
L 153.584013 -28.238579 
L 153.746503 -28.222845 
L 153.908993 -28.207224 
L 154.071482 -28.191716 
L 154.233972 -28.176321 
L 154.396462 -28.161036 
L 154.558952 -28.145863 
L 154.721441 -28.130799 
L 154.883931 -28.115844 
L 155.046421 -28.100997 
L 155.208911 -28.086258 
L 155.3714 -28.071625 
L 155.53389 -28.057099 
L 155.69638 -28.042677 
L 155.85887 -28.02836 
L 156.02136 -28.014147 
L 156.183849 -28.000037 
L 156.346339 -27.986029 
L 156.508829 -27.972123 
L 156.671319 -27.958317 
L 156.833808 -27.944612 
L 156.996298 -27.931006 
L 157.158788 -27.917498 
L 157.321278 -27.904089 
L 157.483767 -27.890777 
L 157.646257 -27.877561 
L 157.808747 -27.864442 
L 157.971237 -27.851418 
L 158.133726 -27.838488 
L 158.296216 -27.825652 
L 158.458706 -27.812909 
L 158.621196 -27.800259 
L 158.783686 -27.787701 
L 158.946175 -27.775235 
L 159.108665 -27.762858 
L 159.271155 -27.750572 
L 159.433645 -27.738375 
L 159.596134 -27.726267 
L 159.758624 -27.714247 
L 159.921114 -27.702314 
L 160.083604 -27.690468 
L 160.246093 -27.678709 
L 160.408583 -27.667035 
L 160.571073 -27.655446 
L 160.733563 -27.643941 
L 160.896052 -27.63252 
L 161.058542 -27.621182 
L 161.221032 -27.609927 
L 161.383522 -27.598754 
L 161.546011 -27.587662 
L 161.708501 -27.576651 
L 161.870991 -27.56572 
L 162.033481 -27.554869 
L 162.195971 -27.544097 
L 162.35846 -27.533404 
L 162.52095 -27.522789 
L 162.68344 -27.512251 
L 162.84593 -27.50179 
L 163.008419 -27.491405 
L 163.170909 -27.481096 
L 163.333399 -27.470863 
L 163.495889 -27.460704 
L 163.658378 -27.450619 
L 163.820868 -27.440608 
L 163.983358 -27.43067 
L 164.145848 -27.420804 
L 164.308337 -27.411011 
L 164.470827 -27.401289 
L 164.633317 -27.391638 
L 164.795807 -27.382058 
L 164.958296 -27.372548 
L 165.120786 -27.363107 
L 165.283276 -27.353735 
L 165.445766 -27.344432 
L 165.608256 -27.335197 
L 165.770745 -27.32603 
L 165.933235 -27.316929 
L 166.095725 -27.307895 
L 166.258215 -27.298928 
L 166.420704 -27.290025 
L 166.583194 -27.281189 
L 166.745684 -27.272416 
L 166.908174 -27.263708 
L 167.070663 -27.255064 
L 167.233153 -27.246483 
L 167.395643 -27.237965 
L 167.558133 -27.22951 
L 167.720622 -27.221116 
L 167.883112 -27.212784 
L 168.045602 -27.204513 
L 168.208092 -27.196302 
L 168.370581 -27.188152 
L 168.533071 -27.180062 
L 168.695561 -27.17203 
L 168.858051 -27.164058 
L 169.020541 -27.156144 
L 169.18303 -27.148289 
L 169.34552 -27.140491 
L 169.50801 -27.13275 
L 169.6705 -27.125066 
L 169.832989 -27.117438 
L 169.995479 -27.109867 
L 170.157969 -27.102351 
L 170.320459 -27.09489 
L 170.482948 -27.087484 
L 170.645438 -27.080132 
L 170.807928 -27.072835 
L 170.970418 -27.065591 
L 171.132907 -27.0584 
L 171.295397 -27.051262 
L 171.457887 -27.044177 
L 171.620377 -27.037144 
L 171.782867 -27.030162 
L 171.945356 -27.023232 
L 172.107846 -27.016353 
L 172.270336 -27.009524 
L 172.432826 -27.002746 
L 172.595315 -26.996017 
L 172.757805 -26.989338 
L 172.920295 -26.982708 
L 173.082785 -26.976127 
L 173.245274 -26.969595 
L 173.407764 -26.96311 
L 173.570254 -26.956673 
L 173.732744 -26.950284 
L 173.895233 -26.943941 
L 174.057723 -26.937646 
L 174.220213 -26.931397 
L 174.382703 -26.925193 
L 174.545192 -26.919036 
L 174.707682 -26.912924 
L 174.870172 -26.906857 
L 175.032662 -26.900835 
L 175.195152 -26.894857 
L 175.357641 -26.888923 
L 175.520131 -26.883033 
L 175.682621 -26.877186 
L 175.845111 -26.871383 
L 176.0076 -26.865622 
L 176.17009 -26.859904 
L 176.33258 -26.854228 
L 176.49507 -26.848594 
L 176.657559 -26.843001 
L 176.820049 -26.83745 
L 176.982539 -26.831939 
L 177.145029 -26.82647 
L 177.307518 -26.821041 
L 177.470008 -26.815652 
L 177.632498 -26.810302 
L 177.794988 -26.804992 
L 177.957477 -26.799722 
L 178.119967 -26.79449 
L 178.282457 -26.789297 
L 178.444947 -26.784143 
L 178.607437 -26.779026 
L 178.769926 -26.773948 
L 178.932416 -26.768907 
L 179.094906 -26.763903 
L 179.257396 -26.758936 
L 179.419885 -26.754006 
L 179.582375 -26.749112 
L 179.744865 -26.744255 
L 179.907355 -26.739433 
L 180.069844 -26.734647 
L 180.232334 -26.729897 
L 180.394824 -26.725182 
L 180.557314 -26.720501 
L 180.719803 -26.715856 
L 180.882293 -26.711244 
L 181.044783 -26.706667 
L 181.207273 -26.702124 
L 181.369762 -26.697614 
L 181.532252 -26.693138 
L 181.694742 -26.688695 
L 181.857232 -26.684285 
L 182.019722 -26.679907 
L 182.182211 -26.675562 
L 182.344701 -26.671249 
L 182.507191 -26.666968 
L 182.669681 -26.662719 
L 182.83217 -26.658501 
L 182.99466 -26.654315 
L 183.15715 -26.65016 
L 183.31964 -26.646035 
L 183.482129 -26.641941 
L 183.644619 -26.637878 
L 183.807109 -26.633844 
L 183.969599 -26.629841 
L 184.132088 -26.625867 
L 184.294578 -26.621922 
L 184.457068 -26.618007 
L 184.619558 -26.614121 
L 184.782048 -26.610264 
L 184.944537 -26.606436 
L 185.107027 -26.602635 
L 185.269517 -26.598864 
L 185.432007 -26.59512 
L 185.594496 -26.591404 
L 185.756986 -26.587715 
L 185.919476 -26.584054 
L 186.081966 -26.58042 
L 186.244455 -26.576813 
L 186.406945 -26.573233 
L 186.569435 -26.56968 
L 186.731925 -26.566152 
L 186.894414 -26.562652 
L 187.056904 -26.559177 
L 187.219394 -26.555728 
L 187.381884 -26.552304 
L 187.544373 -26.548906 
L 187.706863 -26.545534 
L 187.869353 -26.542186 
L 188.031843 -26.538864 
L 188.194333 -26.535566 
L 188.356822 -26.532292 
L 188.519312 -26.529043 
L 188.681802 -26.525818 
L 188.844292 -26.522617 
L 189.006781 -26.51944 
L 189.169271 -26.516287 
L 189.331761 -26.513157 
L 189.494251 -26.51005 
L 189.65674 -26.506967 
L 189.81923 -26.503906 
L 189.98172 -26.500868 
L 190.14421 -26.497853 
L 190.306699 -26.49486 
L 190.469189 -26.49189 
L 190.631679 -26.488942 
L 190.794169 -26.486015 
L 190.956658 -26.483111 
L 191.119148 -26.480228 
L 191.281638 -26.477367 
L 191.444128 -26.474527 
L 191.606618 -26.471708 
L 191.769107 -26.46891 
L 191.931597 -26.466133 
L 192.094087 -26.463376 
L 192.256577 -26.460641 
L 192.419066 -26.457925 
L 192.581556 -26.45523 
L 192.744046 -26.452555 
L 192.906536 -26.4499 
L 193.069025 -26.447265 
L 193.231515 -26.444649 
L 193.394005 -26.442053 
L 193.556495 -26.439477 
L 193.718984 -26.436919 
L 193.881474 -26.434381 
L 194.043964 -26.431861 
L 194.206454 -26.429361 
L 194.368943 -26.426879 
L 194.531433 -26.424415 
L 194.693923 -26.42197 
L 194.856413 -26.419543 
L 195.018903 -26.417135 
L 195.181392 -26.414744 
L 195.343882 -26.412371 
L 195.506372 -26.410016 
L 195.668862 -26.407679 
L 195.831351 -26.405359 
L 195.993841 -26.403056 
L 196.156331 -26.40077 
L 196.318821 -26.398502 
L 196.48131 -26.396251 
L 196.6438 -26.394016 
L 196.80629 -26.391798 
L 196.96878 -26.389597 
L 197.131269 -26.387412 
L 197.293759 -26.385243 
L 197.456249 -26.383091 
L 197.618739 -26.380955 
L 197.781229 -26.378835 
L 197.943718 -26.37673 
L 198.106208 -26.374642 
L 198.268698 -26.372569 
L 198.431188 -26.370511 
L 198.593677 -26.368469 
L 198.756167 -26.366442 
L 198.918657 -26.36443 
L 199.081147 -26.362434 
L 199.243636 -26.360452 
L 199.243636 -26.1 
L 199.243636 -26.1 
L 199.081147 -26.1 
L 198.918657 -26.1 
L 198.756167 -26.1 
L 198.593677 -26.1 
L 198.431188 -26.1 
L 198.268698 -26.1 
L 198.106208 -26.1 
L 197.943718 -26.1 
L 197.781229 -26.1 
L 197.618739 -26.1 
L 197.456249 -26.1 
L 197.293759 -26.1 
L 197.131269 -26.1 
L 196.96878 -26.1 
L 196.80629 -26.1 
L 196.6438 -26.1 
L 196.48131 -26.1 
L 196.318821 -26.1 
L 196.156331 -26.1 
L 195.993841 -26.1 
L 195.831351 -26.1 
L 195.668862 -26.1 
L 195.506372 -26.1 
L 195.343882 -26.1 
L 195.181392 -26.1 
L 195.018903 -26.1 
L 194.856413 -26.1 
L 194.693923 -26.1 
L 194.531433 -26.1 
L 194.368943 -26.1 
L 194.206454 -26.1 
L 194.043964 -26.1 
L 193.881474 -26.1 
L 193.718984 -26.1 
L 193.556495 -26.1 
L 193.394005 -26.1 
L 193.231515 -26.1 
L 193.069025 -26.1 
L 192.906536 -26.1 
L 192.744046 -26.1 
L 192.581556 -26.1 
L 192.419066 -26.1 
L 192.256577 -26.1 
L 192.094087 -26.1 
L 191.931597 -26.1 
L 191.769107 -26.1 
L 191.606618 -26.1 
L 191.444128 -26.1 
L 191.281638 -26.1 
L 191.119148 -26.1 
L 190.956658 -26.1 
L 190.794169 -26.1 
L 190.631679 -26.1 
L 190.469189 -26.1 
L 190.306699 -26.1 
L 190.14421 -26.1 
L 189.98172 -26.1 
L 189.81923 -26.1 
L 189.65674 -26.1 
L 189.494251 -26.1 
L 189.331761 -26.1 
L 189.169271 -26.1 
L 189.006781 -26.1 
L 188.844292 -26.1 
L 188.681802 -26.1 
L 188.519312 -26.1 
L 188.356822 -26.1 
L 188.194333 -26.1 
L 188.031843 -26.1 
L 187.869353 -26.1 
L 187.706863 -26.1 
L 187.544373 -26.1 
L 187.381884 -26.1 
L 187.219394 -26.1 
L 187.056904 -26.1 
L 186.894414 -26.1 
L 186.731925 -26.1 
L 186.569435 -26.1 
L 186.406945 -26.1 
L 186.244455 -26.1 
L 186.081966 -26.1 
L 185.919476 -26.1 
L 185.756986 -26.1 
L 185.594496 -26.1 
L 185.432007 -26.1 
L 185.269517 -26.1 
L 185.107027 -26.1 
L 184.944537 -26.1 
L 184.782048 -26.1 
L 184.619558 -26.1 
L 184.457068 -26.1 
L 184.294578 -26.1 
L 184.132088 -26.1 
L 183.969599 -26.1 
L 183.807109 -26.1 
L 183.644619 -26.1 
L 183.482129 -26.1 
L 183.31964 -26.1 
L 183.15715 -26.1 
L 182.99466 -26.1 
L 182.83217 -26.1 
L 182.669681 -26.1 
L 182.507191 -26.1 
L 182.344701 -26.1 
L 182.182211 -26.1 
L 182.019722 -26.1 
L 181.857232 -26.1 
L 181.694742 -26.1 
L 181.532252 -26.1 
L 181.369762 -26.1 
L 181.207273 -26.1 
L 181.044783 -26.1 
L 180.882293 -26.1 
L 180.719803 -26.1 
L 180.557314 -26.1 
L 180.394824 -26.1 
L 180.232334 -26.1 
L 180.069844 -26.1 
L 179.907355 -26.1 
L 179.744865 -26.1 
L 179.582375 -26.1 
L 179.419885 -26.1 
L 179.257396 -26.1 
L 179.094906 -26.1 
L 178.932416 -26.1 
L 178.769926 -26.1 
L 178.607437 -26.1 
L 178.444947 -26.1 
L 178.282457 -26.1 
L 178.119967 -26.1 
L 177.957477 -26.1 
L 177.794988 -26.1 
L 177.632498 -26.1 
L 177.470008 -26.1 
L 177.307518 -26.1 
L 177.145029 -26.1 
L 176.982539 -26.1 
L 176.820049 -26.1 
L 176.657559 -26.1 
L 176.49507 -26.1 
L 176.33258 -26.1 
L 176.17009 -26.1 
L 176.0076 -26.1 
L 175.845111 -26.1 
L 175.682621 -26.1 
L 175.520131 -26.1 
L 175.357641 -26.1 
L 175.195152 -26.1 
L 175.032662 -26.1 
L 174.870172 -26.1 
L 174.707682 -26.1 
L 174.545192 -26.1 
L 174.382703 -26.1 
L 174.220213 -26.1 
L 174.057723 -26.1 
L 173.895233 -26.1 
L 173.732744 -26.1 
L 173.570254 -26.1 
L 173.407764 -26.1 
L 173.245274 -26.1 
L 173.082785 -26.1 
L 172.920295 -26.1 
L 172.757805 -26.1 
L 172.595315 -26.1 
L 172.432826 -26.1 
L 172.270336 -26.1 
L 172.107846 -26.1 
L 171.945356 -26.1 
L 171.782867 -26.1 
L 171.620377 -26.1 
L 171.457887 -26.1 
L 171.295397 -26.1 
L 171.132907 -26.1 
L 170.970418 -26.1 
L 170.807928 -26.1 
L 170.645438 -26.1 
L 170.482948 -26.1 
L 170.320459 -26.1 
L 170.157969 -26.1 
L 169.995479 -26.1 
L 169.832989 -26.1 
L 169.6705 -26.1 
L 169.50801 -26.1 
L 169.34552 -26.1 
L 169.18303 -26.1 
L 169.020541 -26.1 
L 168.858051 -26.1 
L 168.695561 -26.1 
L 168.533071 -26.1 
L 168.370581 -26.1 
L 168.208092 -26.1 
L 168.045602 -26.1 
L 167.883112 -26.1 
L 167.720622 -26.1 
L 167.558133 -26.1 
L 167.395643 -26.1 
L 167.233153 -26.1 
L 167.070663 -26.1 
L 166.908174 -26.1 
L 166.745684 -26.1 
L 166.583194 -26.1 
L 166.420704 -26.1 
L 166.258215 -26.1 
L 166.095725 -26.1 
L 165.933235 -26.1 
L 165.770745 -26.1 
L 165.608256 -26.1 
L 165.445766 -26.1 
L 165.283276 -26.1 
L 165.120786 -26.1 
L 164.958296 -26.1 
L 164.795807 -26.1 
L 164.633317 -26.1 
L 164.470827 -26.1 
L 164.308337 -26.1 
L 164.145848 -26.1 
L 163.983358 -26.1 
L 163.820868 -26.1 
L 163.658378 -26.1 
L 163.495889 -26.1 
L 163.333399 -26.1 
L 163.170909 -26.1 
L 163.008419 -26.1 
L 162.84593 -26.1 
L 162.68344 -26.1 
L 162.52095 -26.1 
L 162.35846 -26.1 
L 162.195971 -26.1 
L 162.033481 -26.1 
L 161.870991 -26.1 
L 161.708501 -26.1 
L 161.546011 -26.1 
L 161.383522 -26.1 
L 161.221032 -26.1 
L 161.058542 -26.1 
L 160.896052 -26.1 
L 160.733563 -26.1 
L 160.571073 -26.1 
L 160.408583 -26.1 
L 160.246093 -26.1 
L 160.083604 -26.1 
L 159.921114 -26.1 
L 159.758624 -26.1 
L 159.596134 -26.1 
L 159.433645 -26.1 
L 159.271155 -26.1 
L 159.108665 -26.1 
L 158.946175 -26.1 
L 158.783686 -26.1 
L 158.621196 -26.1 
L 158.458706 -26.1 
L 158.296216 -26.1 
L 158.133726 -26.1 
L 157.971237 -26.1 
L 157.808747 -26.1 
L 157.646257 -26.1 
L 157.483767 -26.1 
L 157.321278 -26.1 
L 157.158788 -26.1 
L 156.996298 -26.1 
L 156.833808 -26.1 
L 156.671319 -26.1 
L 156.508829 -26.1 
L 156.346339 -26.1 
L 156.183849 -26.1 
L 156.02136 -26.1 
L 155.85887 -26.1 
L 155.69638 -26.1 
L 155.53389 -26.1 
L 155.3714 -26.1 
L 155.208911 -26.1 
L 155.046421 -26.1 
L 154.883931 -26.1 
L 154.721441 -26.1 
L 154.558952 -26.1 
L 154.396462 -26.1 
L 154.233972 -26.1 
L 154.071482 -26.1 
L 153.908993 -26.1 
L 153.746503 -26.1 
L 153.584013 -26.1 
L 153.421523 -26.1 
L 153.259034 -26.1 
L 153.096544 -26.1 
L 152.934054 -26.1 
L 152.771564 -26.1 
L 152.609075 -26.1 
L 152.446585 -26.1 
L 152.284095 -26.1 
L 152.121605 -26.1 
L 151.959115 -26.1 
L 151.796626 -26.1 
L 151.634136 -26.1 
L 151.471646 -26.1 
L 151.309156 -26.1 
L 151.146667 -26.1 
L 150.984177 -26.1 
L 150.821687 -26.1 
L 150.659197 -26.1 
z
" style="stroke: #cc79a7; stroke-opacity: 0.5"/>
    </defs>
    <g clip-path="url(#p0fb87e0d03)">
     <use xlink:href="#mb89b9df7d4" x="0" y="180" style="fill: #cc79a7; fill-opacity: 0.5; stroke: #cc79a7; stroke-opacity: 0.5"/>
    </g>
   </g>
   <g id="PolyCollection_2">
    <defs>
     <path id="m03a268d32f" d="M 150.659197 -26.1 
L 150.659197 -38.072162 
L 150.821687 -38.025676 
L 150.984177 -37.979359 
L 151.146667 -37.933209 
L 151.309156 -37.887226 
L 151.471646 -37.841411 
L 151.634136 -37.795761 
L 151.796626 -37.750278 
L 151.959115 -37.70496 
L 152.121605 -37.659806 
L 152.284095 -37.614817 
L 152.446585 -37.569991 
L 152.609075 -37.525329 
L 152.771564 -37.480829 
L 152.934054 -37.436492 
L 153.096544 -37.392316 
L 153.259034 -37.348301 
L 153.421523 -37.304447 
L 153.584013 -37.260753 
L 153.746503 -37.217219 
L 153.908993 -37.173844 
L 154.071482 -37.130627 
L 154.233972 -37.087568 
L 154.396462 -37.044667 
L 154.558952 -37.001923 
L 154.721441 -36.959336 
L 154.883931 -36.916905 
L 155.046421 -36.874629 
L 155.208911 -36.832509 
L 155.3714 -36.790543 
L 155.53389 -36.748731 
L 155.69638 -36.707072 
L 155.85887 -36.665567 
L 156.02136 -36.624214 
L 156.183849 -36.583014 
L 156.346339 -36.541965 
L 156.508829 -36.501067 
L 156.671319 -36.46032 
L 156.833808 -36.419722 
L 156.996298 -36.379275 
L 157.158788 -36.338977 
L 157.321278 -36.298827 
L 157.483767 -36.258825 
L 157.646257 -36.218972 
L 157.808747 -36.179265 
L 157.971237 -36.139705 
L 158.133726 -36.100292 
L 158.296216 -36.061024 
L 158.458706 -36.021901 
L 158.621196 -35.982924 
L 158.783686 -35.944091 
L 158.946175 -35.905401 
L 159.108665 -35.866855 
L 159.271155 -35.828452 
L 159.433645 -35.790191 
L 159.596134 -35.752073 
L 159.758624 -35.714095 
L 159.921114 -35.676259 
L 160.083604 -35.638564 
L 160.246093 -35.601008 
L 160.408583 -35.563593 
L 160.571073 -35.526316 
L 160.733563 -35.489178 
L 160.896052 -35.452179 
L 161.058542 -35.415317 
L 161.221032 -35.378592 
L 161.383522 -35.342005 
L 161.546011 -35.305554 
L 161.708501 -35.269239 
L 161.870991 -35.233059 
L 162.033481 -35.197014 
L 162.195971 -35.161104 
L 162.35846 -35.125329 
L 162.52095 -35.089687 
L 162.68344 -35.054178 
L 162.84593 -35.018802 
L 163.008419 -34.983558 
L 163.170909 -34.948446 
L 163.333399 -34.913466 
L 163.495889 -34.878617 
L 163.658378 -34.843898 
L 163.820868 -34.80931 
L 163.983358 -34.774851 
L 164.145848 -34.740522 
L 164.308337 -34.706321 
L 164.470827 -34.672249 
L 164.633317 -34.638304 
L 164.795807 -34.604488 
L 164.958296 -34.570798 
L 165.120786 -34.537235 
L 165.283276 -34.503798 
L 165.445766 -34.470487 
L 165.608256 -34.437302 
L 165.770745 -34.404241 
L 165.933235 -34.371305 
L 166.095725 -34.338493 
L 166.258215 -34.305805 
L 166.420704 -34.27324 
L 166.583194 -34.240797 
L 166.745684 -34.208477 
L 166.908174 -34.17628 
L 167.070663 -34.144203 
L 167.233153 -34.112248 
L 167.395643 -34.080414 
L 167.558133 -34.0487 
L 167.720622 -34.017105 
L 167.883112 -33.985631 
L 168.045602 -33.954275 
L 168.208092 -33.923038 
L 168.370581 -33.89192 
L 168.533071 -33.860919 
L 168.695561 -33.830035 
L 168.858051 -33.799269 
L 169.020541 -33.768619 
L 169.18303 -33.738086 
L 169.34552 -33.707668 
L 169.50801 -33.677366 
L 169.6705 -33.647179 
L 169.832989 -33.617106 
L 169.995479 -33.587148 
L 170.157969 -33.557304 
L 170.320459 -33.527573 
L 170.482948 -33.497955 
L 170.645438 -33.468449 
L 170.807928 -33.439056 
L 170.970418 -33.409775 
L 171.132907 -33.380605 
L 171.295397 -33.351547 
L 171.457887 -33.322599 
L 171.620377 -33.293761 
L 171.782867 -33.265034 
L 171.945356 -33.236415 
L 172.107846 -33.207906 
L 172.270336 -33.179506 
L 172.432826 -33.151214 
L 172.595315 -33.123031 
L 172.757805 -33.094954 
L 172.920295 -33.066985 
L 173.082785 -33.039123 
L 173.245274 -33.011368 
L 173.407764 -32.983719 
L 173.570254 -32.956175 
L 173.732744 -32.928737 
L 173.895233 -32.901403 
L 174.057723 -32.874175 
L 174.220213 -32.84705 
L 174.382703 -32.82003 
L 174.545192 -32.793113 
L 174.707682 -32.766299 
L 174.870172 -32.739588 
L 175.032662 -32.71298 
L 175.195152 -32.686473 
L 175.357641 -32.660069 
L 175.520131 -32.633765 
L 175.682621 -32.607563 
L 175.845111 -32.581461 
L 176.0076 -32.55546 
L 176.17009 -32.529558 
L 176.33258 -32.503756 
L 176.49507 -32.478054 
L 176.657559 -32.45245 
L 176.820049 -32.426944 
L 176.982539 -32.401537 
L 177.145029 -32.376228 
L 177.307518 -32.351016 
L 177.470008 -32.325901 
L 177.632498 -32.300883 
L 177.794988 -32.275961 
L 177.957477 -32.251136 
L 178.119967 -32.226406 
L 178.282457 -32.201771 
L 178.444947 -32.177232 
L 178.607437 -32.152787 
L 178.769926 -32.128437 
L 178.932416 -32.10418 
L 179.094906 -32.080018 
L 179.257396 -32.055948 
L 179.419885 -32.031972 
L 179.582375 -32.008088 
L 179.744865 -31.984297 
L 179.907355 -31.960598 
L 180.069844 -31.93699 
L 180.232334 -31.913474 
L 180.394824 -31.890049 
L 180.557314 -31.866714 
L 180.719803 -31.84347 
L 180.882293 -31.820316 
L 181.044783 -31.797251 
L 181.207273 -31.774276 
L 181.369762 -31.75139 
L 181.532252 -31.728593 
L 181.694742 -31.705884 
L 181.857232 -31.683264 
L 182.019722 -31.660731 
L 182.182211 -31.638285 
L 182.344701 -31.615927 
L 182.507191 -31.593655 
L 182.669681 -31.57147 
L 182.83217 -31.549372 
L 182.99466 -31.527359 
L 183.15715 -31.505432 
L 183.31964 -31.48359 
L 183.482129 -31.461833 
L 183.644619 -31.44016 
L 183.807109 -31.418572 
L 183.969599 -31.397068 
L 184.132088 -31.375648 
L 184.294578 -31.354311 
L 184.457068 -31.333057 
L 184.619558 -31.311886 
L 184.782048 -31.290798 
L 184.944537 -31.269791 
L 185.107027 -31.248867 
L 185.269517 -31.228024 
L 185.432007 -31.207263 
L 185.594496 -31.186582 
L 185.756986 -31.165983 
L 185.919476 -31.145463 
L 186.081966 -31.125024 
L 186.244455 -31.104665 
L 186.406945 -31.084385 
L 186.569435 -31.064185 
L 186.731925 -31.044063 
L 186.894414 -31.02402 
L 187.056904 -31.004055 
L 187.219394 -30.984169 
L 187.381884 -30.96436 
L 187.544373 -30.944629 
L 187.706863 -30.924975 
L 187.869353 -30.905398 
L 188.031843 -30.885898 
L 188.194333 -30.866474 
L 188.356822 -30.847126 
L 188.519312 -30.827854 
L 188.681802 -30.808658 
L 188.844292 -30.789536 
L 189.006781 -30.77049 
L 189.169271 -30.751518 
L 189.331761 -30.732621 
L 189.494251 -30.713798 
L 189.65674 -30.695049 
L 189.81923 -30.676374 
L 189.98172 -30.657771 
L 190.14421 -30.639242 
L 190.306699 -30.620786 
L 190.469189 -30.602402 
L 190.631679 -30.58409 
L 190.794169 -30.565851 
L 190.956658 -30.547683 
L 191.119148 -30.529587 
L 191.281638 -30.511561 
L 191.444128 -30.493607 
L 191.606618 -30.475723 
L 191.769107 -30.45791 
L 191.931597 -30.440167 
L 192.094087 -30.422493 
L 192.256577 -30.40489 
L 192.419066 -30.387355 
L 192.581556 -30.36989 
L 192.744046 -30.352494 
L 192.906536 -30.335166 
L 193.069025 -30.317906 
L 193.231515 -30.300715 
L 193.394005 -30.283591 
L 193.556495 -30.266535 
L 193.718984 -30.249546 
L 193.881474 -30.232624 
L 194.043964 -30.215769 
L 194.206454 -30.198981 
L 194.368943 -30.182259 
L 194.531433 -30.165603 
L 194.693923 -30.149012 
L 194.856413 -30.132488 
L 195.018903 -30.116028 
L 195.181392 -30.099634 
L 195.343882 -30.083305 
L 195.506372 -30.06704 
L 195.668862 -30.050839 
L 195.831351 -30.034703 
L 195.993841 -30.01863 
L 196.156331 -30.002621 
L 196.318821 -29.986675 
L 196.48131 -29.970793 
L 196.6438 -29.954973 
L 196.80629 -29.939216 
L 196.96878 -29.923522 
L 197.131269 -29.90789 
L 197.293759 -29.892319 
L 197.456249 -29.876811 
L 197.618739 -29.861364 
L 197.781229 -29.845978 
L 197.943718 -29.830653 
L 198.106208 -29.815389 
L 198.268698 -29.800186 
L 198.431188 -29.785043 
L 198.593677 -29.76996 
L 198.756167 -29.754937 
L 198.918657 -29.739973 
L 199.081147 -29.725069 
L 199.243636 -29.710225 
L 199.243636 -26.1 
L 199.243636 -26.1 
L 199.081147 -26.1 
L 198.918657 -26.1 
L 198.756167 -26.1 
L 198.593677 -26.1 
L 198.431188 -26.1 
L 198.268698 -26.1 
L 198.106208 -26.1 
L 197.943718 -26.1 
L 197.781229 -26.1 
L 197.618739 -26.1 
L 197.456249 -26.1 
L 197.293759 -26.1 
L 197.131269 -26.1 
L 196.96878 -26.1 
L 196.80629 -26.1 
L 196.6438 -26.1 
L 196.48131 -26.1 
L 196.318821 -26.1 
L 196.156331 -26.1 
L 195.993841 -26.1 
L 195.831351 -26.1 
L 195.668862 -26.1 
L 195.506372 -26.1 
L 195.343882 -26.1 
L 195.181392 -26.1 
L 195.018903 -26.1 
L 194.856413 -26.1 
L 194.693923 -26.1 
L 194.531433 -26.1 
L 194.368943 -26.1 
L 194.206454 -26.1 
L 194.043964 -26.1 
L 193.881474 -26.1 
L 193.718984 -26.1 
L 193.556495 -26.1 
L 193.394005 -26.1 
L 193.231515 -26.1 
L 193.069025 -26.1 
L 192.906536 -26.1 
L 192.744046 -26.1 
L 192.581556 -26.1 
L 192.419066 -26.1 
L 192.256577 -26.1 
L 192.094087 -26.1 
L 191.931597 -26.1 
L 191.769107 -26.1 
L 191.606618 -26.1 
L 191.444128 -26.1 
L 191.281638 -26.1 
L 191.119148 -26.1 
L 190.956658 -26.1 
L 190.794169 -26.1 
L 190.631679 -26.1 
L 190.469189 -26.1 
L 190.306699 -26.1 
L 190.14421 -26.1 
L 189.98172 -26.1 
L 189.81923 -26.1 
L 189.65674 -26.1 
L 189.494251 -26.1 
L 189.331761 -26.1 
L 189.169271 -26.1 
L 189.006781 -26.1 
L 188.844292 -26.1 
L 188.681802 -26.1 
L 188.519312 -26.1 
L 188.356822 -26.1 
L 188.194333 -26.1 
L 188.031843 -26.1 
L 187.869353 -26.1 
L 187.706863 -26.1 
L 187.544373 -26.1 
L 187.381884 -26.1 
L 187.219394 -26.1 
L 187.056904 -26.1 
L 186.894414 -26.1 
L 186.731925 -26.1 
L 186.569435 -26.1 
L 186.406945 -26.1 
L 186.244455 -26.1 
L 186.081966 -26.1 
L 185.919476 -26.1 
L 185.756986 -26.1 
L 185.594496 -26.1 
L 185.432007 -26.1 
L 185.269517 -26.1 
L 185.107027 -26.1 
L 184.944537 -26.1 
L 184.782048 -26.1 
L 184.619558 -26.1 
L 184.457068 -26.1 
L 184.294578 -26.1 
L 184.132088 -26.1 
L 183.969599 -26.1 
L 183.807109 -26.1 
L 183.644619 -26.1 
L 183.482129 -26.1 
L 183.31964 -26.1 
L 183.15715 -26.1 
L 182.99466 -26.1 
L 182.83217 -26.1 
L 182.669681 -26.1 
L 182.507191 -26.1 
L 182.344701 -26.1 
L 182.182211 -26.1 
L 182.019722 -26.1 
L 181.857232 -26.1 
L 181.694742 -26.1 
L 181.532252 -26.1 
L 181.369762 -26.1 
L 181.207273 -26.1 
L 181.044783 -26.1 
L 180.882293 -26.1 
L 180.719803 -26.1 
L 180.557314 -26.1 
L 180.394824 -26.1 
L 180.232334 -26.1 
L 180.069844 -26.1 
L 179.907355 -26.1 
L 179.744865 -26.1 
L 179.582375 -26.1 
L 179.419885 -26.1 
L 179.257396 -26.1 
L 179.094906 -26.1 
L 178.932416 -26.1 
L 178.769926 -26.1 
L 178.607437 -26.1 
L 178.444947 -26.1 
L 178.282457 -26.1 
L 178.119967 -26.1 
L 177.957477 -26.1 
L 177.794988 -26.1 
L 177.632498 -26.1 
L 177.470008 -26.1 
L 177.307518 -26.1 
L 177.145029 -26.1 
L 176.982539 -26.1 
L 176.820049 -26.1 
L 176.657559 -26.1 
L 176.49507 -26.1 
L 176.33258 -26.1 
L 176.17009 -26.1 
L 176.0076 -26.1 
L 175.845111 -26.1 
L 175.682621 -26.1 
L 175.520131 -26.1 
L 175.357641 -26.1 
L 175.195152 -26.1 
L 175.032662 -26.1 
L 174.870172 -26.1 
L 174.707682 -26.1 
L 174.545192 -26.1 
L 174.382703 -26.1 
L 174.220213 -26.1 
L 174.057723 -26.1 
L 173.895233 -26.1 
L 173.732744 -26.1 
L 173.570254 -26.1 
L 173.407764 -26.1 
L 173.245274 -26.1 
L 173.082785 -26.1 
L 172.920295 -26.1 
L 172.757805 -26.1 
L 172.595315 -26.1 
L 172.432826 -26.1 
L 172.270336 -26.1 
L 172.107846 -26.1 
L 171.945356 -26.1 
L 171.782867 -26.1 
L 171.620377 -26.1 
L 171.457887 -26.1 
L 171.295397 -26.1 
L 171.132907 -26.1 
L 170.970418 -26.1 
L 170.807928 -26.1 
L 170.645438 -26.1 
L 170.482948 -26.1 
L 170.320459 -26.1 
L 170.157969 -26.1 
L 169.995479 -26.1 
L 169.832989 -26.1 
L 169.6705 -26.1 
L 169.50801 -26.1 
L 169.34552 -26.1 
L 169.18303 -26.1 
L 169.020541 -26.1 
L 168.858051 -26.1 
L 168.695561 -26.1 
L 168.533071 -26.1 
L 168.370581 -26.1 
L 168.208092 -26.1 
L 168.045602 -26.1 
L 167.883112 -26.1 
L 167.720622 -26.1 
L 167.558133 -26.1 
L 167.395643 -26.1 
L 167.233153 -26.1 
L 167.070663 -26.1 
L 166.908174 -26.1 
L 166.745684 -26.1 
L 166.583194 -26.1 
L 166.420704 -26.1 
L 166.258215 -26.1 
L 166.095725 -26.1 
L 165.933235 -26.1 
L 165.770745 -26.1 
L 165.608256 -26.1 
L 165.445766 -26.1 
L 165.283276 -26.1 
L 165.120786 -26.1 
L 164.958296 -26.1 
L 164.795807 -26.1 
L 164.633317 -26.1 
L 164.470827 -26.1 
L 164.308337 -26.1 
L 164.145848 -26.1 
L 163.983358 -26.1 
L 163.820868 -26.1 
L 163.658378 -26.1 
L 163.495889 -26.1 
L 163.333399 -26.1 
L 163.170909 -26.1 
L 163.008419 -26.1 
L 162.84593 -26.1 
L 162.68344 -26.1 
L 162.52095 -26.1 
L 162.35846 -26.1 
L 162.195971 -26.1 
L 162.033481 -26.1 
L 161.870991 -26.1 
L 161.708501 -26.1 
L 161.546011 -26.1 
L 161.383522 -26.1 
L 161.221032 -26.1 
L 161.058542 -26.1 
L 160.896052 -26.1 
L 160.733563 -26.1 
L 160.571073 -26.1 
L 160.408583 -26.1 
L 160.246093 -26.1 
L 160.083604 -26.1 
L 159.921114 -26.1 
L 159.758624 -26.1 
L 159.596134 -26.1 
L 159.433645 -26.1 
L 159.271155 -26.1 
L 159.108665 -26.1 
L 158.946175 -26.1 
L 158.783686 -26.1 
L 158.621196 -26.1 
L 158.458706 -26.1 
L 158.296216 -26.1 
L 158.133726 -26.1 
L 157.971237 -26.1 
L 157.808747 -26.1 
L 157.646257 -26.1 
L 157.483767 -26.1 
L 157.321278 -26.1 
L 157.158788 -26.1 
L 156.996298 -26.1 
L 156.833808 -26.1 
L 156.671319 -26.1 
L 156.508829 -26.1 
L 156.346339 -26.1 
L 156.183849 -26.1 
L 156.02136 -26.1 
L 155.85887 -26.1 
L 155.69638 -26.1 
L 155.53389 -26.1 
L 155.3714 -26.1 
L 155.208911 -26.1 
L 155.046421 -26.1 
L 154.883931 -26.1 
L 154.721441 -26.1 
L 154.558952 -26.1 
L 154.396462 -26.1 
L 154.233972 -26.1 
L 154.071482 -26.1 
L 153.908993 -26.1 
L 153.746503 -26.1 
L 153.584013 -26.1 
L 153.421523 -26.1 
L 153.259034 -26.1 
L 153.096544 -26.1 
L 152.934054 -26.1 
L 152.771564 -26.1 
L 152.609075 -26.1 
L 152.446585 -26.1 
L 152.284095 -26.1 
L 152.121605 -26.1 
L 151.959115 -26.1 
L 151.796626 -26.1 
L 151.634136 -26.1 
L 151.471646 -26.1 
L 151.309156 -26.1 
L 151.146667 -26.1 
L 150.984177 -26.1 
L 150.821687 -26.1 
L 150.659197 -26.1 
z
" style="stroke: #e5a024; stroke-opacity: 0.2"/>
    </defs>
    <g clip-path="url(#p0fb87e0d03)">
     <use xlink:href="#m03a268d32f" x="0" y="180" style="fill: #e5a024; fill-opacity: 0.2; stroke: #e5a024; stroke-opacity: 0.2"/>
    </g>
   </g>
   <g id="PolyCollection_3">
    <path d="M 118.161245 153.9 
L 118.161245 143.510872 
L 118.323735 143.584183 
L 118.486224 143.656997 
L 118.648714 143.729317 
L 118.811204 143.801146 
L 118.973694 143.872488 
L 119.136183 143.943345 
L 119.298673 144.013721 
L 119.461163 144.083619 
L 119.623653 144.153041 
L 119.786143 144.221991 
L 119.948632 144.290472 
L 120.111122 144.358486 
L 120.273612 144.426038 
L 120.436102 144.493128 
L 120.598591 144.559762 
L 120.761081 144.625941 
L 120.923571 144.691668 
L 121.086061 144.756946 
L 121.24855 144.821779 
L 121.41104 144.886169 
L 121.57353 144.950118 
L 121.73602 145.01363 
L 121.898509 145.076708 
L 122.060999 145.139354 
L 122.223489 145.201571 
L 122.385979 145.263362 
L 122.548468 145.324729 
L 122.710958 145.385676 
L 122.873448 145.446204 
L 123.035938 145.506318 
L 123.198428 145.566018 
L 123.360917 145.625309 
L 123.523407 145.684193 
L 123.685897 145.742671 
L 123.848387 145.800748 
L 124.010876 145.858426 
L 124.173366 145.915706 
L 124.335856 145.972592 
L 124.498346 146.029087 
L 124.660835 146.085192 
L 124.823325 146.140911 
L 124.985815 146.196245 
L 125.148305 146.251198 
L 125.310794 146.305772 
L 125.473284 146.35997 
L 125.635774 146.413793 
L 125.798264 146.467244 
L 125.960753 146.520326 
L 126.123243 146.573041 
L 126.285733 146.625392 
L 126.448223 146.67738 
L 126.610713 146.729009 
L 126.773202 146.780281 
L 126.935692 146.831197 
L 127.098182 146.881761 
L 127.260672 146.931974 
L 127.423161 146.981839 
L 127.585651 147.031359 
L 127.748141 147.080535 
L 127.910631 147.12937 
L 128.07312 147.177865 
L 128.23561 147.226024 
L 128.3981 147.273849 
L 128.56059 147.321341 
L 128.723079 147.368503 
L 128.885569 147.415337 
L 129.048059 147.461845 
L 129.210549 147.50803 
L 129.373038 147.553893 
L 129.535528 147.599437 
L 129.698018 147.644664 
L 129.860508 147.689575 
L 130.022998 147.734174 
L 130.185487 147.778461 
L 130.347977 147.82244 
L 130.510467 147.866112 
L 130.672957 147.909479 
L 130.835446 147.952543 
L 130.997936 147.995306 
L 131.160426 148.037771 
L 131.322916 148.079939 
L 131.485405 148.121813 
L 131.647895 148.163393 
L 131.810385 148.204683 
L 131.972875 148.245683 
L 132.135364 148.286397 
L 132.297854 148.326826 
L 132.460344 148.366972 
L 132.622834 148.406836 
L 132.785324 148.446421 
L 132.947813 148.485729 
L 133.110303 148.52476 
L 133.272793 148.563519 
L 133.435283 148.602005 
L 133.597772 148.640221 
L 133.760262 148.678169 
L 133.922752 148.71585 
L 134.085242 148.753267 
L 134.247731 148.79042 
L 134.410221 148.827313 
L 134.572711 148.863946 
L 134.735201 148.900322 
L 134.89769 148.936441 
L 135.06018 148.972307 
L 135.22267 149.00792 
L 135.38516 149.043282 
L 135.547649 149.078396 
L 135.710139 149.113262 
L 135.872629 149.147882 
L 136.035119 149.182258 
L 136.197609 149.216392 
L 136.360098 149.250285 
L 136.522588 149.283939 
L 136.685078 149.317355 
L 136.847568 149.350536 
L 137.010057 149.383482 
L 137.172547 149.416196 
L 137.335037 149.448678 
L 137.497527 149.480931 
L 137.660016 149.512956 
L 137.822506 149.544755 
L 137.984996 149.576329 
L 138.147486 149.607679 
L 138.309975 149.638808 
L 138.472465 149.669716 
L 138.634955 149.700405 
L 138.797445 149.730877 
L 138.959934 149.761134 
L 139.122424 149.791176 
L 139.284914 149.821005 
L 139.447404 149.850622 
L 139.609894 149.88003 
L 139.772383 149.909229 
L 139.934873 149.93822 
L 140.097363 149.967007 
L 140.259853 149.995588 
L 140.422342 150.023967 
L 140.584832 150.052145 
L 140.747322 150.080122 
L 140.909812 150.1079 
L 141.072301 150.135481 
L 141.234791 150.162866 
L 141.397281 150.190056 
L 141.559771 150.217053 
L 141.72226 150.243858 
L 141.88475 150.270472 
L 142.04724 150.296897 
L 142.20973 150.323133 
L 142.372219 150.349183 
L 142.534709 150.375047 
L 142.697199 150.400727 
L 142.859689 150.426224 
L 143.022179 150.451539 
L 143.184668 150.476674 
L 143.347158 150.50163 
L 143.509648 150.526407 
L 143.672138 150.551008 
L 143.834627 150.575433 
L 143.997117 150.599684 
L 144.159607 150.623762 
L 144.322097 150.647668 
L 144.484586 150.671403 
L 144.647076 150.694969 
L 144.809566 150.718366 
L 144.972056 150.741596 
L 145.134545 150.76466 
L 145.297035 150.787559 
L 145.459525 150.810294 
L 145.622015 150.832867 
L 145.784505 150.855278 
L 145.946994 150.877528 
L 146.109484 150.89962 
L 146.271974 150.921553 
L 146.434464 150.943329 
L 146.596953 150.964949 
L 146.759443 150.986415 
L 146.921933 151.007726 
L 147.084423 151.028885 
L 147.246912 151.049892 
L 147.409402 151.070748 
L 147.571892 151.091455 
L 147.734382 151.112013 
L 147.896871 151.132424 
L 148.059361 151.152688 
L 148.221851 151.172807 
L 148.384341 151.192782 
L 148.54683 151.212613 
L 148.70932 151.232301 
L 148.87181 151.251848 
L 149.0343 151.271255 
L 149.19679 151.290522 
L 149.359279 151.30965 
L 149.521769 151.328642 
L 149.684259 151.347496 
L 149.846749 151.366215 
L 150.009238 151.384799 
L 150.171728 151.40325 
L 150.334218 151.421567 
L 150.496708 151.439753 
L 150.496708 153.9 
L 150.496708 153.9 
L 150.334218 153.9 
L 150.171728 153.9 
L 150.009238 153.9 
L 149.846749 153.9 
L 149.684259 153.9 
L 149.521769 153.9 
L 149.359279 153.9 
L 149.19679 153.9 
L 149.0343 153.9 
L 148.87181 153.9 
L 148.70932 153.9 
L 148.54683 153.9 
L 148.384341 153.9 
L 148.221851 153.9 
L 148.059361 153.9 
L 147.896871 153.9 
L 147.734382 153.9 
L 147.571892 153.9 
L 147.409402 153.9 
L 147.246912 153.9 
L 147.084423 153.9 
L 146.921933 153.9 
L 146.759443 153.9 
L 146.596953 153.9 
L 146.434464 153.9 
L 146.271974 153.9 
L 146.109484 153.9 
L 145.946994 153.9 
L 145.784505 153.9 
L 145.622015 153.9 
L 145.459525 153.9 
L 145.297035 153.9 
L 145.134545 153.9 
L 144.972056 153.9 
L 144.809566 153.9 
L 144.647076 153.9 
L 144.484586 153.9 
L 144.322097 153.9 
L 144.159607 153.9 
L 143.997117 153.9 
L 143.834627 153.9 
L 143.672138 153.9 
L 143.509648 153.9 
L 143.347158 153.9 
L 143.184668 153.9 
L 143.022179 153.9 
L 142.859689 153.9 
L 142.697199 153.9 
L 142.534709 153.9 
L 142.372219 153.9 
L 142.20973 153.9 
L 142.04724 153.9 
L 141.88475 153.9 
L 141.72226 153.9 
L 141.559771 153.9 
L 141.397281 153.9 
L 141.234791 153.9 
L 141.072301 153.9 
L 140.909812 153.9 
L 140.747322 153.9 
L 140.584832 153.9 
L 140.422342 153.9 
L 140.259853 153.9 
L 140.097363 153.9 
L 139.934873 153.9 
L 139.772383 153.9 
L 139.609894 153.9 
L 139.447404 153.9 
L 139.284914 153.9 
L 139.122424 153.9 
L 138.959934 153.9 
L 138.797445 153.9 
L 138.634955 153.9 
L 138.472465 153.9 
L 138.309975 153.9 
L 138.147486 153.9 
L 137.984996 153.9 
L 137.822506 153.9 
L 137.660016 153.9 
L 137.497527 153.9 
L 137.335037 153.9 
L 137.172547 153.9 
L 137.010057 153.9 
L 136.847568 153.9 
L 136.685078 153.9 
L 136.522588 153.9 
L 136.360098 153.9 
L 136.197609 153.9 
L 136.035119 153.9 
L 135.872629 153.9 
L 135.710139 153.9 
L 135.547649 153.9 
L 135.38516 153.9 
L 135.22267 153.9 
L 135.06018 153.9 
L 134.89769 153.9 
L 134.735201 153.9 
L 134.572711 153.9 
L 134.410221 153.9 
L 134.247731 153.9 
L 134.085242 153.9 
L 133.922752 153.9 
L 133.760262 153.9 
L 133.597772 153.9 
L 133.435283 153.9 
L 133.272793 153.9 
L 133.110303 153.9 
L 132.947813 153.9 
L 132.785324 153.9 
L 132.622834 153.9 
L 132.460344 153.9 
L 132.297854 153.9 
L 132.135364 153.9 
L 131.972875 153.9 
L 131.810385 153.9 
L 131.647895 153.9 
L 131.485405 153.9 
L 131.322916 153.9 
L 131.160426 153.9 
L 130.997936 153.9 
L 130.835446 153.9 
L 130.672957 153.9 
L 130.510467 153.9 
L 130.347977 153.9 
L 130.185487 153.9 
L 130.022998 153.9 
L 129.860508 153.9 
L 129.698018 153.9 
L 129.535528 153.9 
L 129.373038 153.9 
L 129.210549 153.9 
L 129.048059 153.9 
L 128.885569 153.9 
L 128.723079 153.9 
L 128.56059 153.9 
L 128.3981 153.9 
L 128.23561 153.9 
L 128.07312 153.9 
L 127.910631 153.9 
L 127.748141 153.9 
L 127.585651 153.9 
L 127.423161 153.9 
L 127.260672 153.9 
L 127.098182 153.9 
L 126.935692 153.9 
L 126.773202 153.9 
L 126.610713 153.9 
L 126.448223 153.9 
L 126.285733 153.9 
L 126.123243 153.9 
L 125.960753 153.9 
L 125.798264 153.9 
L 125.635774 153.9 
L 125.473284 153.9 
L 125.310794 153.9 
L 125.148305 153.9 
L 124.985815 153.9 
L 124.823325 153.9 
L 124.660835 153.9 
L 124.498346 153.9 
L 124.335856 153.9 
L 124.173366 153.9 
L 124.010876 153.9 
L 123.848387 153.9 
L 123.685897 153.9 
L 123.523407 153.9 
L 123.360917 153.9 
L 123.198428 153.9 
L 123.035938 153.9 
L 122.873448 153.9 
L 122.710958 153.9 
L 122.548468 153.9 
L 122.385979 153.9 
L 122.223489 153.9 
L 122.060999 153.9 
L 121.898509 153.9 
L 121.73602 153.9 
L 121.57353 153.9 
L 121.41104 153.9 
L 121.24855 153.9 
L 121.086061 153.9 
L 120.923571 153.9 
L 120.761081 153.9 
L 120.598591 153.9 
L 120.436102 153.9 
L 120.273612 153.9 
L 120.111122 153.9 
L 119.948632 153.9 
L 119.786143 153.9 
L 119.623653 153.9 
L 119.461163 153.9 
L 119.298673 153.9 
L 119.136183 153.9 
L 118.973694 153.9 
L 118.811204 153.9 
L 118.648714 153.9 
L 118.486224 153.9 
L 118.323735 153.9 
L 118.161245 153.9 
z
" clip-path="url(#p0fb87e0d03)" style="fill: url(#h58b9f50dcf); stroke: #cc79a7; stroke-opacity: 0.5"/>
   </g>
   <g id="PolyCollection_4">
    <path d="M 118.161245 153.9 
L 118.161245 128.488925 
L 118.323735 128.580371 
L 118.486224 128.671539 
L 118.648714 128.762429 
L 118.811204 128.85304 
L 118.973694 128.943374 
L 119.136183 129.033431 
L 119.298673 129.123212 
L 119.461163 129.212716 
L 119.623653 129.301944 
L 119.786143 129.390898 
L 119.948632 129.479576 
L 120.111122 129.567981 
L 120.273612 129.656111 
L 120.436102 129.743969 
L 120.598591 129.831553 
L 120.761081 129.918865 
L 120.923571 130.005905 
L 121.086061 130.092674 
L 121.24855 130.179172 
L 121.41104 130.2654 
L 121.57353 130.351357 
L 121.73602 130.437045 
L 121.898509 130.522465 
L 122.060999 130.607616 
L 122.223489 130.692499 
L 122.385979 130.777114 
L 122.548468 130.861463 
L 122.710958 130.945546 
L 122.873448 131.029362 
L 123.035938 131.112913 
L 123.198428 131.1962 
L 123.360917 131.279222 
L 123.523407 131.36198 
L 123.685897 131.444475 
L 123.848387 131.526708 
L 124.010876 131.608678 
L 124.173366 131.690386 
L 124.335856 131.771834 
L 124.498346 131.85302 
L 124.660835 131.933947 
L 124.823325 132.014614 
L 124.985815 132.095022 
L 125.148305 132.175172 
L 125.310794 132.255064 
L 125.473284 132.334698 
L 125.635774 132.414076 
L 125.798264 132.493197 
L 125.960753 132.572063 
L 126.123243 132.650674 
L 126.285733 132.729029 
L 126.448223 132.807131 
L 126.610713 132.884979 
L 126.773202 132.962575 
L 126.935692 133.039918 
L 127.098182 133.117009 
L 127.260672 133.193849 
L 127.423161 133.270438 
L 127.585651 133.346776 
L 127.748141 133.422866 
L 127.910631 133.498706 
L 128.07312 133.574298 
L 128.23561 133.649642 
L 128.3981 133.724738 
L 128.56059 133.799588 
L 128.723079 133.874191 
L 128.885569 133.948549 
L 129.048059 134.022662 
L 129.210549 134.09653 
L 129.373038 134.170155 
L 129.535528 134.243535 
L 129.698018 134.316674 
L 129.860508 134.38957 
L 130.022998 134.462224 
L 130.185487 134.534637 
L 130.347977 134.60681 
L 130.510467 134.678743 
L 130.672957 134.750436 
L 130.835446 134.821891 
L 130.997936 134.893108 
L 131.160426 134.964087 
L 131.322916 135.034829 
L 131.485405 135.105334 
L 131.647895 135.175604 
L 131.810385 135.245638 
L 131.972875 135.315438 
L 132.135364 135.385004 
L 132.297854 135.454336 
L 132.460344 135.523435 
L 132.622834 135.592301 
L 132.785324 135.660936 
L 132.947813 135.72934 
L 133.110303 135.797513 
L 133.272793 135.865456 
L 133.435283 135.93317 
L 133.597772 136.000654 
L 133.760262 136.067911 
L 133.922752 136.134939 
L 134.085242 136.201741 
L 134.247731 136.268316 
L 134.410221 136.334665 
L 134.572711 136.400789 
L 134.735201 136.466688 
L 134.89769 136.532362 
L 135.06018 136.597813 
L 135.22267 136.663041 
L 135.38516 136.728047 
L 135.547649 136.792831 
L 135.710139 136.857393 
L 135.872629 136.921735 
L 136.035119 136.985857 
L 136.197609 137.049759 
L 136.360098 137.113442 
L 136.522588 137.176907 
L 136.685078 137.240154 
L 136.847568 137.303184 
L 137.010057 137.365997 
L 137.172547 137.428594 
L 137.335037 137.490976 
L 137.497527 137.553143 
L 137.660016 137.615096 
L 137.822506 137.676835 
L 137.984996 137.738361 
L 138.147486 137.799674 
L 138.309975 137.860775 
L 138.472465 137.921665 
L 138.634955 137.982345 
L 138.797445 138.042814 
L 138.959934 138.103073 
L 139.122424 138.163124 
L 139.284914 138.222965 
L 139.447404 138.282599 
L 139.609894 138.342026 
L 139.772383 138.401246 
L 139.934873 138.46026 
L 140.097363 138.519068 
L 140.259853 138.577672 
L 140.422342 138.63607 
L 140.584832 138.694266 
L 140.747322 138.752257 
L 140.909812 138.810046 
L 141.072301 138.867633 
L 141.234791 138.925019 
L 141.397281 138.982203 
L 141.559771 139.039187 
L 141.72226 139.095971 
L 141.88475 139.152556 
L 142.04724 139.208943 
L 142.20973 139.265131 
L 142.372219 139.321122 
L 142.534709 139.376915 
L 142.697199 139.432512 
L 142.859689 139.487914 
L 143.022179 139.54312 
L 143.184668 139.598131 
L 143.347158 139.652949 
L 143.509648 139.707573 
L 143.672138 139.762003 
L 143.834627 139.816242 
L 143.997117 139.870288 
L 144.159607 139.924143 
L 144.322097 139.977808 
L 144.484586 140.031282 
L 144.647076 140.084566 
L 144.809566 140.137662 
L 144.972056 140.190569 
L 145.134545 140.243288 
L 145.297035 140.29582 
L 145.459525 140.348164 
L 145.622015 140.400323 
L 145.784505 140.452296 
L 145.946994 140.504083 
L 146.109484 140.555686 
L 146.271974 140.607105 
L 146.434464 140.658341 
L 146.596953 140.709393 
L 146.759443 140.760263 
L 146.921933 140.810951 
L 147.084423 140.861458 
L 147.246912 140.911784 
L 147.409402 140.96193 
L 147.571892 141.011897 
L 147.734382 141.061684 
L 147.896871 141.111292 
L 148.059361 141.160723 
L 148.221851 141.209976 
L 148.384341 141.259052 
L 148.54683 141.307951 
L 148.70932 141.356675 
L 148.87181 141.405224 
L 149.0343 141.453597 
L 149.19679 141.501797 
L 149.359279 141.549822 
L 149.521769 141.597675 
L 149.684259 141.645355 
L 149.846749 141.692862 
L 150.009238 141.740198 
L 150.171728 141.787363 
L 150.334218 141.834358 
L 150.496708 141.881182 
L 150.496708 153.9 
L 150.496708 153.9 
L 150.334218 153.9 
L 150.171728 153.9 
L 150.009238 153.9 
L 149.846749 153.9 
L 149.684259 153.9 
L 149.521769 153.9 
L 149.359279 153.9 
L 149.19679 153.9 
L 149.0343 153.9 
L 148.87181 153.9 
L 148.70932 153.9 
L 148.54683 153.9 
L 148.384341 153.9 
L 148.221851 153.9 
L 148.059361 153.9 
L 147.896871 153.9 
L 147.734382 153.9 
L 147.571892 153.9 
L 147.409402 153.9 
L 147.246912 153.9 
L 147.084423 153.9 
L 146.921933 153.9 
L 146.759443 153.9 
L 146.596953 153.9 
L 146.434464 153.9 
L 146.271974 153.9 
L 146.109484 153.9 
L 145.946994 153.9 
L 145.784505 153.9 
L 145.622015 153.9 
L 145.459525 153.9 
L 145.297035 153.9 
L 145.134545 153.9 
L 144.972056 153.9 
L 144.809566 153.9 
L 144.647076 153.9 
L 144.484586 153.9 
L 144.322097 153.9 
L 144.159607 153.9 
L 143.997117 153.9 
L 143.834627 153.9 
L 143.672138 153.9 
L 143.509648 153.9 
L 143.347158 153.9 
L 143.184668 153.9 
L 143.022179 153.9 
L 142.859689 153.9 
L 142.697199 153.9 
L 142.534709 153.9 
L 142.372219 153.9 
L 142.20973 153.9 
L 142.04724 153.9 
L 141.88475 153.9 
L 141.72226 153.9 
L 141.559771 153.9 
L 141.397281 153.9 
L 141.234791 153.9 
L 141.072301 153.9 
L 140.909812 153.9 
L 140.747322 153.9 
L 140.584832 153.9 
L 140.422342 153.9 
L 140.259853 153.9 
L 140.097363 153.9 
L 139.934873 153.9 
L 139.772383 153.9 
L 139.609894 153.9 
L 139.447404 153.9 
L 139.284914 153.9 
L 139.122424 153.9 
L 138.959934 153.9 
L 138.797445 153.9 
L 138.634955 153.9 
L 138.472465 153.9 
L 138.309975 153.9 
L 138.147486 153.9 
L 137.984996 153.9 
L 137.822506 153.9 
L 137.660016 153.9 
L 137.497527 153.9 
L 137.335037 153.9 
L 137.172547 153.9 
L 137.010057 153.9 
L 136.847568 153.9 
L 136.685078 153.9 
L 136.522588 153.9 
L 136.360098 153.9 
L 136.197609 153.9 
L 136.035119 153.9 
L 135.872629 153.9 
L 135.710139 153.9 
L 135.547649 153.9 
L 135.38516 153.9 
L 135.22267 153.9 
L 135.06018 153.9 
L 134.89769 153.9 
L 134.735201 153.9 
L 134.572711 153.9 
L 134.410221 153.9 
L 134.247731 153.9 
L 134.085242 153.9 
L 133.922752 153.9 
L 133.760262 153.9 
L 133.597772 153.9 
L 133.435283 153.9 
L 133.272793 153.9 
L 133.110303 153.9 
L 132.947813 153.9 
L 132.785324 153.9 
L 132.622834 153.9 
L 132.460344 153.9 
L 132.297854 153.9 
L 132.135364 153.9 
L 131.972875 153.9 
L 131.810385 153.9 
L 131.647895 153.9 
L 131.485405 153.9 
L 131.322916 153.9 
L 131.160426 153.9 
L 130.997936 153.9 
L 130.835446 153.9 
L 130.672957 153.9 
L 130.510467 153.9 
L 130.347977 153.9 
L 130.185487 153.9 
L 130.022998 153.9 
L 129.860508 153.9 
L 129.698018 153.9 
L 129.535528 153.9 
L 129.373038 153.9 
L 129.210549 153.9 
L 129.048059 153.9 
L 128.885569 153.9 
L 128.723079 153.9 
L 128.56059 153.9 
L 128.3981 153.9 
L 128.23561 153.9 
L 128.07312 153.9 
L 127.910631 153.9 
L 127.748141 153.9 
L 127.585651 153.9 
L 127.423161 153.9 
L 127.260672 153.9 
L 127.098182 153.9 
L 126.935692 153.9 
L 126.773202 153.9 
L 126.610713 153.9 
L 126.448223 153.9 
L 126.285733 153.9 
L 126.123243 153.9 
L 125.960753 153.9 
L 125.798264 153.9 
L 125.635774 153.9 
L 125.473284 153.9 
L 125.310794 153.9 
L 125.148305 153.9 
L 124.985815 153.9 
L 124.823325 153.9 
L 124.660835 153.9 
L 124.498346 153.9 
L 124.335856 153.9 
L 124.173366 153.9 
L 124.010876 153.9 
L 123.848387 153.9 
L 123.685897 153.9 
L 123.523407 153.9 
L 123.360917 153.9 
L 123.198428 153.9 
L 123.035938 153.9 
L 122.873448 153.9 
L 122.710958 153.9 
L 122.548468 153.9 
L 122.385979 153.9 
L 122.223489 153.9 
L 122.060999 153.9 
L 121.898509 153.9 
L 121.73602 153.9 
L 121.57353 153.9 
L 121.41104 153.9 
L 121.24855 153.9 
L 121.086061 153.9 
L 120.923571 153.9 
L 120.761081 153.9 
L 120.598591 153.9 
L 120.436102 153.9 
L 120.273612 153.9 
L 120.111122 153.9 
L 119.948632 153.9 
L 119.786143 153.9 
L 119.623653 153.9 
L 119.461163 153.9 
L 119.298673 153.9 
L 119.136183 153.9 
L 118.973694 153.9 
L 118.811204 153.9 
L 118.648714 153.9 
L 118.486224 153.9 
L 118.323735 153.9 
L 118.161245 153.9 
z
" clip-path="url(#p0fb87e0d03)" style="fill: url(#h021cc97172); stroke: #e5a024; stroke-opacity: 0.5"/>
   </g>
   <g id="matplotlib.axis_1">
    <g id="xtick_1">
     <g id="line2d_1">
      <defs>
       <path id="mf291ad3485" d="M 0 0 
L 0 3.5 
" style="stroke: #000000; stroke-width: 0.8"/>
      </defs>
      <g>
       <use xlink:href="#mf291ad3485" x="36.916364" y="160.2" style="stroke: #000000; stroke-width: 0.8"/>
      </g>
     </g>
     <g id="text_1">
      <text style="font: 6px 'Arial', sans-serif; text-anchor: middle" x="36.916364" y="171.494687" transform="rotate(-0 36.916364 171.494687)">0.0</text>
     </g>
    </g>
    <g id="xtick_2">
     <g id="line2d_2">
      <g>
       <use xlink:href="#mf291ad3485" x="57.207273" y="160.2" style="stroke: #000000; stroke-width: 0.8"/>
      </g>
     </g>
     <g id="text_2">
      <text style="font: 6px 'Arial', sans-serif; text-anchor: middle" x="57.207273" y="171.494687" transform="rotate(-0 57.207273 171.494687)">2.5</text>
     </g>
    </g>
    <g id="xtick_3">
     <g id="line2d_3">
      <g>
       <use xlink:href="#mf291ad3485" x="77.498182" y="160.2" style="stroke: #000000; stroke-width: 0.8"/>
      </g>
     </g>
     <g id="text_3">
      <text style="font: 6px 'Arial', sans-serif; text-anchor: middle" x="77.498182" y="171.494687" transform="rotate(-0 77.498182 171.494687)">5.0</text>
     </g>
    </g>
    <g id="xtick_4">
     <g id="line2d_4">
      <g>
       <use xlink:href="#mf291ad3485" x="97.789091" y="160.2" style="stroke: #000000; stroke-width: 0.8"/>
      </g>
     </g>
     <g id="text_4">
      <text style="font: 6px 'Arial', sans-serif; text-anchor: middle" x="97.789091" y="171.494687" transform="rotate(-0 97.789091 171.494687)">7.5</text>
     </g>
    </g>
    <g id="xtick_5">
     <g id="line2d_5">
      <g>
       <use xlink:href="#mf291ad3485" x="118.08" y="160.2" style="stroke: #000000; stroke-width: 0.8"/>
      </g>
     </g>
     <g id="text_5">
      <text style="font: 6px 'Arial', sans-serif; text-anchor: middle" x="118.08" y="171.494687" transform="rotate(-0 118.08 171.494687)">10.0</text>
     </g>
    </g>
    <g id="xtick_6">
     <g id="line2d_6">
      <g>
       <use xlink:href="#mf291ad3485" x="138.370909" y="160.2" style="stroke: #000000; stroke-width: 0.8"/>
      </g>
     </g>
     <g id="text_6">
      <text style="font: 6px 'Arial', sans-serif; text-anchor: middle" x="138.370909" y="171.494687" transform="rotate(-0 138.370909 171.494687)">12.5</text>
     </g>
    </g>
    <g id="xtick_7">
     <g id="line2d_7">
      <g>
       <use xlink:href="#mf291ad3485" x="158.661818" y="160.2" style="stroke: #000000; stroke-width: 0.8"/>
      </g>
     </g>
     <g id="text_7">
      <text style="font: 6px 'Arial', sans-serif; text-anchor: middle" x="158.661818" y="171.494687" transform="rotate(-0 158.661818 171.494687)">15.0</text>
     </g>
    </g>
    <g id="xtick_8">
     <g id="line2d_8">
      <g>
       <use xlink:href="#mf291ad3485" x="178.952727" y="160.2" style="stroke: #000000; stroke-width: 0.8"/>
      </g>
     </g>
     <g id="text_8">
      <text style="font: 6px 'Arial', sans-serif; text-anchor: middle" x="178.952727" y="171.494687" transform="rotate(-0 178.952727 171.494687)">17.5</text>
     </g>
    </g>
    <g id="xtick_9">
     <g id="line2d_9">
      <g>
       <use xlink:href="#mf291ad3485" x="199.243636" y="160.2" style="stroke: #000000; stroke-width: 0.8"/>
      </g>
     </g>
     <g id="text_9">
      <text style="font: 6px 'Arial', sans-serif; text-anchor: middle" x="199.243636" y="171.494687" transform="rotate(-0 199.243636 171.494687)">20.0</text>
     </g>
    </g>
    <g id="text_10">
     <text style="font: 700 8px 'Arial', sans-serif; text-anchor: middle" x="118.08" y="180.510938" transform="rotate(-0 118.08 180.510938)">Kinetic Energy (kJ/mol)</text>
    </g>
   </g>
   <g id="matplotlib.axis_2">
    <g id="ytick_1">
     <g id="line2d_10">
      <defs>
       <path id="mdaff011c91" d="M 0 0 
L -3.5 0 
" style="stroke: #000000; stroke-width: 0.8"/>
      </defs>
      <g>
       <use xlink:href="#mdaff011c91" x="28.8" y="153.9" style="stroke: #000000; stroke-width: 0.8"/>
      </g>
     </g>
     <g id="text_11">
      <text style="font: 6px 'Arial', sans-serif; text-anchor: end" x="21.8" y="156.047344" transform="rotate(-0 21.8 156.047344)">0.000</text>
     </g>
    </g>
    <g id="ytick_2">
     <g id="line2d_11">
      <g>
       <use xlink:href="#mdaff011c91" x="28.8" y="137.773339" style="stroke: #000000; stroke-width: 0.8"/>
      </g>
     </g>
     <g id="text_12">
      <text style="font: 6px 'Arial', sans-serif; text-anchor: end" x="21.8" y="139.920683" transform="rotate(-0 21.8 139.920683)">0.025</text>
     </g>
    </g>
    <g id="ytick_3">
     <g id="line2d_12">
      <g>
       <use xlink:href="#mdaff011c91" x="28.8" y="121.646679" style="stroke: #000000; stroke-width: 0.8"/>
      </g>
     </g>
     <g id="text_13">
      <text style="font: 6px 'Arial', sans-serif; text-anchor: end" x="21.8" y="123.794023" transform="rotate(-0 21.8 123.794023)">0.050</text>
     </g>
    </g>
    <g id="ytick_4">
     <g id="line2d_13">
      <g>
       <use xlink:href="#mdaff011c91" x="28.8" y="105.520018" style="stroke: #000000; stroke-width: 0.8"/>
      </g>
     </g>
     <g id="text_14">
      <text style="font: 6px 'Arial', sans-serif; text-anchor: end" x="21.8" y="107.667362" transform="rotate(-0 21.8 107.667362)">0.075</text>
     </g>
    </g>
    <g id="ytick_5">
     <g id="line2d_14">
      <g>
       <use xlink:href="#mdaff011c91" x="28.8" y="89.393358" style="stroke: #000000; stroke-width: 0.8"/>
      </g>
     </g>
     <g id="text_15">
      <text style="font: 6px 'Arial', sans-serif; text-anchor: end" x="21.8" y="91.540702" transform="rotate(-0 21.8 91.540702)">0.100</text>
     </g>
    </g>
    <g id="ytick_6">
     <g id="line2d_15">
      <g>
       <use xlink:href="#mdaff011c91" x="28.8" y="73.266697" style="stroke: #000000; stroke-width: 0.8"/>
      </g>
     </g>
     <g id="text_16">
      <text style="font: 6px 'Arial', sans-serif; text-anchor: end" x="21.8" y="75.414041" transform="rotate(-0 21.8 75.414041)">0.125</text>
     </g>
    </g>
    <g id="ytick_7">
     <g id="line2d_16">
      <g>
       <use xlink:href="#mdaff011c91" x="28.8" y="57.140037" style="stroke: #000000; stroke-width: 0.8"/>
      </g>
     </g>
     <g id="text_17">
      <text style="font: 6px 'Arial', sans-serif; text-anchor: end" x="21.8" y="59.287381" transform="rotate(-0 21.8 59.287381)">0.150</text>
     </g>
    </g>
    <g id="ytick_8">
     <g id="line2d_17">
      <g>
       <use xlink:href="#mdaff011c91" x="28.8" y="41.013376" style="stroke: #000000; stroke-width: 0.8"/>
      </g>
     </g>
     <g id="text_18">
      <text style="font: 6px 'Arial', sans-serif; text-anchor: end" x="21.8" y="43.16072" transform="rotate(-0 21.8 43.16072)">0.175</text>
     </g>
    </g>
    <g id="ytick_9">
     <g id="line2d_18">
      <g>
       <use xlink:href="#mdaff011c91" x="28.8" y="24.886716" style="stroke: #000000; stroke-width: 0.8"/>
      </g>
     </g>
     <g id="text_19">
      <text style="font: 6px 'Arial', sans-serif; text-anchor: end" x="21.8" y="27.03406" transform="rotate(-0 21.8 27.03406)">0.200</text>
     </g>
    </g>
    <g id="text_20">
     <text style="font: 700 8px 'Arial', sans-serif; text-anchor: middle" x="3.103125" y="90.9" transform="rotate(-90 3.103125 90.9)">Probability</text>
    </g>
   </g>
   <g id="line2d_19">
    <path d="M 36.916364 153.9 
L 37.241343 117.150733 
L 37.728812 97.18594 
L 38.378771 80.23016 
L 39.19122 65.655853 
L 40.003669 55.169324 
L 40.816118 47.330152 
L 41.628567 41.392586 
L 42.441016 36.902921 
L 43.253464 33.556876 
L 44.065913 31.136649 
L 44.878362 29.478952 
L 45.528321 28.615748 
L 46.17828 28.106352 
L 46.828239 27.90627 
L 47.478198 27.977473 
L 48.128157 28.287161 
L 48.940606 28.966541 
L 49.915545 30.148065 
L 51.052973 31.944493 
L 52.352891 34.438199 
L 53.977789 38.057281 
L 56.090156 43.341031 
L 59.177461 51.726976 
L 68.114398 76.344219 
L 71.526683 84.962153 
L 74.613989 92.192935 
L 77.538804 98.514866 
L 80.46362 104.31813 
L 83.388436 109.613554 
L 86.150762 114.167056 
L 88.913088 118.308521 
L 91.675414 122.063331 
L 94.43774 125.458276 
L 97.200066 128.520511 
L 100.124881 131.430003 
L 103.049697 134.027261 
L 106.137002 136.462336 
L 109.224308 138.614259 
L 112.474103 140.606277 
L 115.886388 142.430548 
L 119.461163 144.083619 
L 123.198428 145.566018 
L 127.260672 146.931974 
L 131.647895 148.163393 
L 136.360098 149.250285 
L 141.559771 150.217053 
L 147.409402 151.070748 
L 154.071482 151.808284 
L 161.708501 152.423349 
L 170.807928 152.927165 
L 182.182211 153.324438 
L 197.293759 153.614757 
L 199.243636 153.639548 
L 199.243636 153.639548 
" clip-path="url(#p0fb87e0d03)" style="fill: none; stroke: #cc79a7; stroke-width: 1.5; stroke-linecap: square"/>
   </g>
   <g id="line2d_20">
    <path d="M 36.916364 153.9 
L 37.241343 137.983776 
L 37.728812 129.079454 
L 38.378771 121.207413 
L 39.19122 114.053132 
L 40.166159 107.571554 
L 41.141097 102.516702 
L 42.278526 97.847464 
L 43.415954 94.145408 
L 44.553382 91.181853 
L 45.690811 88.80552 
L 46.828239 86.909196 
L 47.965667 85.413066 
L 49.103096 84.255489 
L 50.240524 83.387489 
L 51.377952 82.769272 
L 52.677871 82.326618 
L 53.977789 82.126563 
L 55.440197 82.149428 
L 56.902604 82.396163 
L 58.527502 82.892064 
L 60.314889 83.662827 
L 62.427256 84.821776 
L 64.864603 86.422035 
L 67.789419 88.619684 
L 71.526683 91.726533 
L 77.051335 96.649629 
L 90.050516 108.32382 
L 95.737658 113.083731 
L 100.93733 117.151399 
L 105.974513 120.809721 
L 110.849206 124.078843 
L 115.723898 127.083475 
L 120.598591 129.831553 
L 125.635774 132.414076 
L 130.672957 134.750436 
L 135.872629 136.921735 
L 141.234791 138.925019 
L 146.921933 140.810951 
L 152.934054 142.563508 
L 159.271155 144.171548 
L 165.933235 145.628695 
L 173.082785 146.960877 
L 180.719803 148.15653 
L 189.169271 149.248482 
L 198.431188 150.214957 
L 199.243636 150.289775 
L 199.243636 150.289775 
" clip-path="url(#p0fb87e0d03)" style="fill: none; stroke: #e5a024; stroke-width: 1.5; stroke-linecap: square"/>
   </g>
   <g id="LineCollection_1">
    <path d="M 150.545455 153.9 
L 150.545455 89.393358 
" clip-path="url(#p0fb87e0d03)" style="fill: none; stroke: #000000; stroke-width: 1.5"/>
   </g>
   <g id="LineCollection_2">
    <path d="M 118.08 153.9 
L 118.08 89.393358 
" clip-path="url(#p0fb87e0d03)" style="fill: none; stroke-dasharray: 1.5,2.475; stroke-dashoffset: 0; stroke: #000000; stroke-width: 1.5"/>
   </g>
   <g id="patch_3">
    <path d="M 28.8 160.2 
L 28.8 21.6 
" style="fill: none; stroke: #000000; stroke-linejoin: miter; stroke-linecap: square"/>
   </g>
   <g id="patch_4">
    <path d="M 207.36 160.2 
L 207.36 21.6 
" style="fill: none; stroke: #000000; stroke-linejoin: miter; stroke-linecap: square"/>
   </g>
   <g id="patch_5">
    <path d="M 28.8 160.2 
L 207.36 160.2 
" style="fill: none; stroke: #000000; stroke-linejoin: miter; stroke-linecap: square"/>
   </g>
   <g id="patch_6">
    <path d="M 28.8 21.6 
L 207.36 21.6 
" style="fill: none; stroke: #000000; stroke-linejoin: miter; stroke-linecap: square"/>
   </g>
  </g>
 </g>
 <defs>
  <clipPath id="p0fb87e0d03">
   <rect x="28.8" y="21.6" width="178.56" height="138.6"/>
  </clipPath>
 </defs>
 <defs>
  <pattern id="h58b9f50dcf" patternUnits="userSpaceOnUse" x="0" y="0" width="72" height="72">
   <rect x="0" y="0" width="73" height="73" fill="none"/>
   <path d="M -36 36 
L 36 -36 
M -34 38 
L 38 -34 
M -32 40 
L 40 -32 
M -30 42 
L 42 -30 
M -28 44 
L 44 -28 
M -26 46 
L 46 -26 
M -24 48 
L 48 -24 
M -22 50 
L 50 -22 
M -20 52 
L 52 -20 
M -18 54 
L 54 -18 
M -16 56 
L 56 -16 
M -14 58 
L 58 -14 
M -12 60 
L 60 -12 
M -10 62 
L 62 -10 
M -8 64 
L 64 -8 
M -6 66 
L 66 -6 
M -4 68 
L 68 -4 
M -2 70 
L 70 -2 
M 0 72 
L 72 0 
M 2 74 
L 74 2 
M 4 76 
L 76 4 
M 6 78 
L 78 6 
M 8 80 
L 80 8 
M 10 82 
L 82 10 
M 12 84 
L 84 12 
M 14 86 
L 86 14 
M 16 88 
L 88 16 
M 18 90 
L 90 18 
M 20 92 
L 92 20 
M 22 94 
L 94 22 
M 24 96 
L 96 24 
M 26 98 
L 98 26 
M 28 100 
L 100 28 
M 30 102 
L 102 30 
M 32 104 
L 104 32 
M 34 106 
L 106 34 
M 36 108 
L 108 36 
" style="fill: #cc79a7; stroke: #cc79a7; stroke-width: 1.0; stroke-linecap: butt; stroke-linejoin: miter; stroke-opacity: 0.5"/>
  </pattern>
  <pattern id="h021cc97172" patternUnits="userSpaceOnUse" x="0" y="0" width="72" height="72">
   <rect x="0" y="0" width="73" height="73" fill="none"/>
   <path d="M 1.5 72 
L 1.5 0 
M 4.5 72 
L 4.5 0 
M 7.5 72 
L 7.5 0 
M 10.5 72 
L 10.5 0 
M 13.5 72 
L 13.5 0 
M 16.5 72 
L 16.5 0 
M 19.5 72 
L 19.5 0 
M 22.5 72 
L 22.5 0 
M 25.5 72 
L 25.5 0 
M 28.5 72 
L 28.5 0 
M 31.5 72 
L 31.5 0 
M 34.5 72 
L 34.5 0 
M 37.5 72 
L 37.5 0 
M 40.5 72 
L 40.5 0 
M 43.5 72 
L 43.5 0 
M 46.5 72 
L 46.5 0 
M 49.5 72 
L 49.5 0 
M 52.5 72 
L 52.5 0 
M 55.5 72 
L 55.5 0 
M 58.5 72 
L 58.5 0 
M 61.5 72 
L 61.5 0 
M 64.5 72 
L 64.5 0 
M 67.5 72 
L 67.5 0 
M 70.5 72 
L 70.5 0 
" style="fill: #e5a024; stroke: #e5a024; stroke-width: 1.0; stroke-linecap: butt; stroke-linejoin: miter; stroke-opacity: 0.5"/>
  </pattern>
 </defs>
</svg>
