<?xml version="1.0" encoding="utf-8" standalone="no"?>
<!DOCTYPE svg PUBLIC "-//W3C//DTD SVG 1.1//EN"
  "http://www.w3.org/Graphics/SVG/1.1/DTD/svg11.dtd">
<svg xmlns:xlink="http://www.w3.org/1999/xlink" width="345.6pt" height="180pt" viewBox="0 0 345.6 180" xmlns="http://www.w3.org/2000/svg" version="1.1">
 <metadata>
  <rdf:RDF xmlns:dc="http://purl.org/dc/elements/1.1/" xmlns:cc="http://creativecommons.org/ns#" xmlns:rdf="http://www.w3.org/1999/02/22-rdf-syntax-ns#">
   <cc:Work>
    <dc:type rdf:resource="http://purl.org/dc/dcmitype/StillImage"/>
    <dc:date>2025-09-22T14:44:19.076376</dc:date>
    <dc:format>image/svg+xml</dc:format>
    <dc:creator>
     <cc:Agent>
      <dc:title>Matplotlib v3.8.4, https://matplotlib.org/</dc:title>
     </cc:Agent>
    </dc:creator>
   </cc:Work>
  </rdf:RDF>
 </metadata>
 <defs>
  <style type="text/css">*{stroke-linejoin: round; stroke-linecap: butt}</style>
 </defs>
 <g id="figure_1">
  <g id="patch_1">
   <path d="M 0 180 
L 345.6 180 
L 345.6 0 
L 0 0 
z
" style="fill: #ffffff"/>
  </g>
  <g id="axes_1">
   <g id="patch_2">
    <path d="M 43.2 160.2 
L 121.976471 160.2 
L 121.976471 21.6 
L 43.2 21.6 
z
" style="fill: #ffffff"/>
   </g>
   <g id="matplotlib.axis_1">
    <g id="xtick_1">
     <g id="line2d_1">
      <defs>
       <path id="m82824d3595" d="M 0 0 
L 0 3.5 
" style="stroke: #000000; stroke-width: 0.8"/>
      </defs>
      <g>
       <use xlink:href="#m82824d3595" x="44.936834" y="160.2" style="stroke: #000000; stroke-width: 0.8"/>
      </g>
     </g>
     <g id="text_1">
      <text style="font: 6px 'Arial', sans-serif; text-anchor: middle" x="44.936834" y="171.494687" transform="rotate(-0 44.936834 171.494687)">-100</text>
     </g>
    </g>
    <g id="xtick_2">
     <g id="line2d_2">
      <g>
       <use xlink:href="#m82824d3595" x="52.439355" y="160.2" style="stroke: #000000; stroke-width: 0.8"/>
      </g>
     </g>
     <g id="text_2">
      <text style="font: 6px 'Arial', sans-serif; text-anchor: middle" x="52.439355" y="171.494687" transform="rotate(-0 52.439355 171.494687)">0</text>
     </g>
    </g>
    <g id="xtick_3">
     <g id="line2d_3">
      <g>
       <use xlink:href="#m82824d3595" x="67.444397" y="160.2" style="stroke: #000000; stroke-width: 0.8"/>
      </g>
     </g>
     <g id="text_3">
      <text style="font: 6px 'Arial', sans-serif; text-anchor: middle" x="67.444397" y="171.494687" transform="rotate(-0 67.444397 171.494687)">200</text>
     </g>
    </g>
    <g id="xtick_4">
     <g id="line2d_4">
      <g>
       <use xlink:href="#m82824d3595" x="82.449439" y="160.2" style="stroke: #000000; stroke-width: 0.8"/>
      </g>
     </g>
     <g id="text_4">
      <text style="font: 6px 'Arial', sans-serif; text-anchor: middle" x="82.449439" y="171.494687" transform="rotate(-0 82.449439 171.494687)">400</text>
     </g>
    </g>
    <g id="xtick_5">
     <g id="line2d_5">
      <g>
       <use xlink:href="#m82824d3595" x="97.454481" y="160.2" style="stroke: #000000; stroke-width: 0.8"/>
      </g>
     </g>
     <g id="text_5">
      <text style="font: 6px 'Arial', sans-serif; text-anchor: middle" x="97.454481" y="171.494687" transform="rotate(-0 97.454481 171.494687)">600</text>
     </g>
    </g>
    <g id="xtick_6">
     <g id="line2d_6">
      <g>
       <use xlink:href="#m82824d3595" x="112.459523" y="160.2" style="stroke: #000000; stroke-width: 0.8"/>
      </g>
     </g>
     <g id="text_6">
      <text style="font: 6px 'Arial', sans-serif; text-anchor: middle" x="112.459523" y="171.494687" transform="rotate(-0 112.459523 171.494687)">800</text>
     </g>
    </g>
    <g id="text_7">
     <text style="font: 700 8px 'Arial', sans-serif; text-anchor: middle" x="82.588235" y="180.510938" transform="rotate(-0 82.588235 180.510938)">Temperature (°C)</text>
    </g>
   </g>
   <g id="matplotlib.axis_2">
    <g id="ytick_1">
     <g id="line2d_7">
      <defs>
       <path id="mb6ff4c7202" d="M 0 0 
L -3.5 0 
" style="stroke: #000000; stroke-width: 0.8"/>
      </defs>
      <g>
       <use xlink:href="#mb6ff4c7202" x="43.2" y="144.8" style="stroke: #000000; stroke-width: 0.8"/>
      </g>
     </g>
     <g id="text_8">
      <text style="font: 6px 'Arial', sans-serif; text-anchor: end" x="36.2" y="146.947344" transform="rotate(-0 36.2 146.947344)">-1.6</text>
     </g>
    </g>
    <g id="ytick_2">
     <g id="line2d_8">
      <g>
       <use xlink:href="#mb6ff4c7202" x="43.2" y="129.4" style="stroke: #000000; stroke-width: 0.8"/>
      </g>
     </g>
     <g id="text_9">
      <text style="font: 6px 'Arial', sans-serif; text-anchor: end" x="36.2" y="131.547344" transform="rotate(-0 36.2 131.547344)">-1.4</text>
     </g>
    </g>
    <g id="ytick_3">
     <g id="line2d_9">
      <g>
       <use xlink:href="#mb6ff4c7202" x="43.2" y="114" style="stroke: #000000; stroke-width: 0.8"/>
      </g>
     </g>
     <g id="text_10">
      <text style="font: 6px 'Arial', sans-serif; text-anchor: end" x="36.2" y="116.147344" transform="rotate(-0 36.2 116.147344)">-1.2</text>
     </g>
    </g>
    <g id="ytick_4">
     <g id="line2d_10">
      <g>
       <use xlink:href="#mb6ff4c7202" x="43.2" y="98.6" style="stroke: #000000; stroke-width: 0.8"/>
      </g>
     </g>
     <g id="text_11">
      <text style="font: 6px 'Arial', sans-serif; text-anchor: end" x="36.2" y="100.747344" transform="rotate(-0 36.2 100.747344)">-1</text>
     </g>
    </g>
    <g id="ytick_5">
     <g id="line2d_11">
      <g>
       <use xlink:href="#mb6ff4c7202" x="43.2" y="83.2" style="stroke: #000000; stroke-width: 0.8"/>
      </g>
     </g>
     <g id="text_12">
      <text style="font: 6px 'Arial', sans-serif; text-anchor: end" x="36.2" y="85.347344" transform="rotate(-0 36.2 85.347344)">-0.8</text>
     </g>
    </g>
    <g id="ytick_6">
     <g id="line2d_12">
      <g>
       <use xlink:href="#mb6ff4c7202" x="43.2" y="67.8" style="stroke: #000000; stroke-width: 0.8"/>
      </g>
     </g>
     <g id="text_13">
      <text style="font: 6px 'Arial', sans-serif; text-anchor: end" x="36.2" y="69.947344" transform="rotate(-0 36.2 69.947344)">-0.6</text>
     </g>
    </g>
    <g id="ytick_7">
     <g id="line2d_13">
      <g>
       <use xlink:href="#mb6ff4c7202" x="43.2" y="52.4" style="stroke: #000000; stroke-width: 0.8"/>
      </g>
     </g>
     <g id="text_14">
      <text style="font: 6px 'Arial', sans-serif; text-anchor: end" x="36.2" y="54.547344" transform="rotate(-0 36.2 54.547344)">-0.4</text>
     </g>
    </g>
    <g id="ytick_8">
     <g id="line2d_14">
      <g>
       <use xlink:href="#mb6ff4c7202" x="43.2" y="37" style="stroke: #000000; stroke-width: 0.8"/>
      </g>
     </g>
     <g id="text_15">
      <text style="font: 6px 'Arial', sans-serif; text-anchor: end" x="36.2" y="39.147344" transform="rotate(-0 36.2 39.147344)">-0.2</text>
     </g>
    </g>
    <g id="ytick_9">
     <g id="line2d_15">
      <g>
       <use xlink:href="#mb6ff4c7202" x="43.2" y="21.6" style="stroke: #000000; stroke-width: 0.8"/>
      </g>
     </g>
     <g id="text_16">
      <text style="font: 6px 'Arial', sans-serif; text-anchor: end" x="36.2" y="23.747344" transform="rotate(-0 36.2 23.747344)">0</text>
     </g>
    </g>
    <g id="text_17">
     <text style="font: 700 8px 'Arial', sans-serif; text-anchor: middle" x="22.178438" y="90.9" transform="rotate(-90 22.178438 90.9)">Potential (V)</text>
    </g>
   </g>
   <g id="line2d_16">
    <path d="M 62.494821 181 
L 64.09988 174.982098 
L 65.707563 168.955383 
L 67.315246 162.933722 
L 68.922929 156.93336 
L 70.530612 151.008627 
L 72.138295 145.295715 
L 73.745978 139.997251 
L 75.353661 135.223375 
L 76.961345 130.922042 
L 78.569028 127.009602 
L 80.176711 123.464287 
L 81.784394 120.319146 
L 83.392077 117.608173 
L 84.99976 115.321118 
L 86.607443 113.401918 
L 88.215126 111.77531 
L 89.822809 110.369987 
L 91.430492 109.128182 
L 93.038175 108.006416 
L 94.645858 106.972987 
L 96.253541 106.005033 
L 97.861224 105.08606 
L 99.468908 104.204103 
L 101.076591 103.350409 
L 102.684274 102.518516 
L 104.291957 101.703602 
L 105.89964 100.902037 
L 107.507323 100.111057 
L 109.115006 99.328545 
L 110.722689 98.552859 
L 112.330372 97.782716 
L 113.938055 97.017108 
L 115.545738 96.255233 
L 117.153421 95.496453 
L 118.761104 94.740252 
L 120.368788 93.986215 
L 121.976471 93.234 
" clip-path="url(#ped07d0c0ed)" style="fill: none; stroke: #d55e00; stroke-width: 1.5; stroke-linecap: square"/>
   </g>
   <g id="line2d_17">
    <path d="M 43.2 129.34693 
L 44.807683 128.607307 
L 46.415366 127.867684 
L 48.023049 127.128061 
L 49.630732 126.388439 
L 51.238415 125.648816 
L 52.846098 124.909193 
L 54.453782 124.16957 
L 56.061465 123.429948 
L 57.669148 122.690325 
L 59.276831 121.950702 
L 60.884514 121.211079 
L 62.492197 120.471457 
L 64.09988 119.731834 
L 65.707563 118.992211 
L 67.315246 118.252588 
L 68.922929 117.512966 
L 70.530612 116.773343 
L 72.138295 116.03372 
L 73.745978 115.294098 
L 75.353661 114.554475 
L 76.961345 113.814852 
L 78.569028 113.075229 
L 80.176711 112.335607 
L 81.784394 111.595984 
L 83.392077 110.856361 
L 84.99976 110.116738 
L 86.607443 109.377116 
L 88.215126 108.637493 
L 89.822809 107.89787 
L 91.430492 107.158247 
L 93.038175 106.418625 
L 94.645858 105.679002 
L 96.253541 104.939379 
L 97.861224 104.199756 
L 99.468908 103.460134 
L 101.076591 102.720511 
L 102.684274 101.980888 
L 104.291957 101.241265 
L 105.89964 100.501643 
L 107.507323 99.76202 
L 109.115006 99.022397 
L 110.722689 98.282775 
L 112.330372 97.543152 
L 113.938055 96.803529 
L 115.545738 96.063906 
L 117.153421 95.324284 
L 118.761104 94.584661 
L 120.368788 93.845038 
L 121.976471 93.105415 
" clip-path="url(#ped07d0c0ed)" style="fill: none; stroke-dasharray: 5.55,2.4; stroke-dashoffset: 0; stroke: #56b4e9; stroke-width: 1.5"/>
   </g>
   <g id="line2d_18">
    <path d="M 43.2 98.52839 
L 44.807683 95.609263 
L 46.415366 92.690135 
L 48.023049 89.771007 
L 49.630732 86.85188 
L 51.238415 83.932752 
L 52.846098 81.013624 
L 54.453782 78.094497 
L 56.061465 75.175369 
L 57.669148 72.256241 
L 59.276831 69.337114 
L 60.884514 66.417986 
L 62.492197 63.498859 
L 64.09988 60.579737 
L 65.707563 57.660637 
L 67.315246 54.741632 
L 68.922929 51.822981 
L 70.530612 48.905505 
L 72.138295 45.991536 
L 73.745978 43.087101 
L 75.353661 40.206365 
L 76.961345 37.379387 
L 78.569028 34.662172 
L 80.176711 32.141295 
L 81.784394 29.917579 
L 83.392077 28.065095 
L 84.99976 26.597243 
L 86.607443 25.47215 
L 88.215126 24.623248 
L 89.822809 23.984681 
L 91.430492 23.502174 
L 93.038175 23.134531 
L 94.645858 22.851574 
L 96.253541 22.631473 
L 97.861224 22.458448 
L 99.468908 22.321032 
L 101.076591 22.21083 
L 102.684274 22.121633 
L 104.291957 22.048808 
L 105.89964 21.988862 
L 107.507323 21.939136 
L 109.115006 21.897589 
L 110.722689 21.862638 
L 112.330372 21.833047 
L 113.938055 21.807843 
L 115.545738 21.786252 
L 117.153421 21.767657 
L 118.761104 21.75156 
L 120.368788 21.737558 
L 121.976471 21.725324 
" clip-path="url(#ped07d0c0ed)" style="fill: none; stroke-dasharray: 5.55,2.4; stroke-dashoffset: 0; stroke: #0072b2; stroke-width: 1.5"/>
   </g>
   <g id="line2d_19">
    <path d="M 59.804679 -1 
L 60.884514 0.591315 
L 62.492197 2.960479 
L 64.09988 5.329472 
L 65.707563 7.697465 
L 67.315246 10.060498 
L 68.922929 12.402587 
L 70.530612 14.670221 
L 72.138295 16.729541 
L 73.745978 18.383948 
L 75.353661 19.537465 
L 76.961345 20.272198 
L 78.569028 20.727799 
L 80.176711 21.012614 
L 81.784394 21.194417 
L 83.392077 21.313282 
L 84.99976 21.392863 
L 86.607443 21.447348 
L 88.215126 21.485431 
L 89.822809 21.512564 
L 91.430492 21.532239 
L 93.038175 21.54674 
L 94.645858 21.557589 
L 96.253541 21.56582 
L 97.861224 21.572144 
L 99.468908 21.577063 
L 101.076591 21.580932 
L 102.684274 21.584005 
L 104.291957 21.586472 
L 105.89964 21.588468 
L 107.507323 21.590099 
L 109.115006 21.591441 
L 110.722689 21.592554 
L 112.330372 21.593483 
L 113.938055 21.594264 
L 115.545738 21.594925 
L 117.153421 21.595487 
L 118.761104 21.595968 
L 120.368788 21.596382 
L 121.976471 21.596739 
" clip-path="url(#ped07d0c0ed)" style="fill: none; stroke-dasharray: 1.5,2.475; stroke-dashoffset: 0; stroke: #0072b2; stroke-width: 1.5"/>
   </g>
   <g id="patch_3">
    <path d="M 43.2 160.2 
L 43.2 21.6 
" style="fill: none; stroke: #000000; stroke-linejoin: miter; stroke-linecap: square"/>
   </g>
   <g id="patch_4">
    <path d="M 121.976471 160.2 
L 121.976471 21.6 
" style="fill: none; stroke: #000000; stroke-linejoin: miter; stroke-linecap: square"/>
   </g>
   <g id="patch_5">
    <path d="M 43.2 160.2 
L 121.976471 160.2 
" style="fill: none; stroke: #000000; stroke-linejoin: miter; stroke-linecap: square"/>
   </g>
   <g id="patch_6">
    <path d="M 43.2 21.6 
L 121.976471 21.6 
" style="fill: none; stroke: #000000; stroke-linejoin: miter; stroke-linecap: square"/>
   </g>
  </g>
  <g id="axes_2">
   <g id="patch_7">
    <path d="M 137.731765 160.2 
L 216.508235 160.2 
L 216.508235 21.6 
L 137.731765 21.6 
z
" style="fill: #ffffff"/>
   </g>
   <g id="matplotlib.axis_3">
    <g id="xtick_7">
     <g id="line2d_20">
      <g>
       <use xlink:href="#m82824d3595" x="139.468598" y="160.2" style="stroke: #000000; stroke-width: 0.8"/>
      </g>
     </g>
     <g id="text_18">
      <text style="font: 6px 'Arial', sans-serif; text-anchor: middle" x="139.468598" y="171.494687" transform="rotate(-0 139.468598 171.494687)">-100</text>
     </g>
    </g>
    <g id="xtick_8">
     <g id="line2d_21">
      <g>
       <use xlink:href="#m82824d3595" x="146.971119" y="160.2" style="stroke: #000000; stroke-width: 0.8"/>
      </g>
     </g>
     <g id="text_19">
      <text style="font: 6px 'Arial', sans-serif; text-anchor: middle" x="146.971119" y="171.494687" transform="rotate(-0 146.971119 171.494687)">0</text>
     </g>
    </g>
    <g id="xtick_9">
     <g id="line2d_22">
      <g>
       <use xlink:href="#m82824d3595" x="161.976161" y="160.2" style="stroke: #000000; stroke-width: 0.8"/>
      </g>
     </g>
     <g id="text_20">
      <text style="font: 6px 'Arial', sans-serif; text-anchor: middle" x="161.976161" y="171.494687" transform="rotate(-0 161.976161 171.494687)">200</text>
     </g>
    </g>
    <g id="xtick_10">
     <g id="line2d_23">
      <g>
       <use xlink:href="#m82824d3595" x="176.981203" y="160.2" style="stroke: #000000; stroke-width: 0.8"/>
      </g>
     </g>
     <g id="text_21">
      <text style="font: 6px 'Arial', sans-serif; text-anchor: middle" x="176.981203" y="171.494687" transform="rotate(-0 176.981203 171.494687)">400</text>
     </g>
    </g>
    <g id="xtick_11">
     <g id="line2d_24">
      <g>
       <use xlink:href="#m82824d3595" x="191.986245" y="160.2" style="stroke: #000000; stroke-width: 0.8"/>
      </g>
     </g>
     <g id="text_22">
      <text style="font: 6px 'Arial', sans-serif; text-anchor: middle" x="191.986245" y="171.494687" transform="rotate(-0 191.986245 171.494687)">600</text>
     </g>
    </g>
    <g id="xtick_12">
     <g id="line2d_25">
      <g>
       <use xlink:href="#m82824d3595" x="206.991287" y="160.2" style="stroke: #000000; stroke-width: 0.8"/>
      </g>
     </g>
     <g id="text_23">
      <text style="font: 6px 'Arial', sans-serif; text-anchor: middle" x="206.991287" y="171.494687" transform="rotate(-0 206.991287 171.494687)">800</text>
     </g>
    </g>
   </g>
   <g id="matplotlib.axis_4">
    <g id="ytick_10">
     <g id="line2d_26">
      <g>
       <use xlink:href="#mb6ff4c7202" x="137.731765" y="144.8" style="stroke: #000000; stroke-width: 0.8"/>
      </g>
     </g>
    </g>
    <g id="ytick_11">
     <g id="line2d_27">
      <g>
       <use xlink:href="#mb6ff4c7202" x="137.731765" y="129.4" style="stroke: #000000; stroke-width: 0.8"/>
      </g>
     </g>
    </g>
    <g id="ytick_12">
     <g id="line2d_28">
      <g>
       <use xlink:href="#mb6ff4c7202" x="137.731765" y="114" style="stroke: #000000; stroke-width: 0.8"/>
      </g>
     </g>
    </g>
    <g id="ytick_13">
     <g id="line2d_29">
      <g>
       <use xlink:href="#mb6ff4c7202" x="137.731765" y="98.6" style="stroke: #000000; stroke-width: 0.8"/>
      </g>
     </g>
    </g>
    <g id="ytick_14">
     <g id="line2d_30">
      <g>
       <use xlink:href="#mb6ff4c7202" x="137.731765" y="83.2" style="stroke: #000000; stroke-width: 0.8"/>
      </g>
     </g>
    </g>
    <g id="ytick_15">
     <g id="line2d_31">
      <g>
       <use xlink:href="#mb6ff4c7202" x="137.731765" y="67.8" style="stroke: #000000; stroke-width: 0.8"/>
      </g>
     </g>
    </g>
    <g id="ytick_16">
     <g id="line2d_32">
      <g>
       <use xlink:href="#mb6ff4c7202" x="137.731765" y="52.4" style="stroke: #000000; stroke-width: 0.8"/>
      </g>
     </g>
    </g>
    <g id="ytick_17">
     <g id="line2d_33">
      <g>
       <use xlink:href="#mb6ff4c7202" x="137.731765" y="37" style="stroke: #000000; stroke-width: 0.8"/>
      </g>
     </g>
    </g>
    <g id="ytick_18">
     <g id="line2d_34">
      <g>
       <use xlink:href="#mb6ff4c7202" x="137.731765" y="21.6" style="stroke: #000000; stroke-width: 0.8"/>
      </g>
     </g>
    </g>
   </g>
   <g id="line2d_35">
    <path d="M 137.731765 139.965041 
L 139.339448 136.048239 
L 140.947131 132.132921 
L 142.554814 128.228348 
L 144.162497 124.374345 
L 145.77018 120.678468 
L 147.377863 117.293323 
L 148.985546 114.282259 
L 150.593229 111.577558 
L 152.200912 109.077332 
L 153.808595 106.704824 
L 155.416279 104.009267 
L 157.023962 101.094926 
L 158.631645 98.214229 
L 160.239328 95.356389 
L 161.847011 92.514516 
L 163.454694 89.684081 
L 165.062377 86.862028 
L 166.67006 84.046244 
L 168.277743 81.235232 
L 169.885426 78.427915 
L 171.493109 75.623499 
L 173.100792 72.821392 
L 174.708475 70.021148 
L 176.316158 67.22243 
L 177.923842 64.424995 
L 179.531525 61.628716 
L 181.139208 58.833675 
L 182.746891 56.040427 
L 184.354574 53.250651 
L 185.962257 50.468614 
L 187.56994 47.704235 
L 189.177623 44.978845 
L 190.785306 42.334291 
L 192.392989 39.842506 
L 194.000672 37.604234 
L 195.608355 35.721488 
L 197.216038 34.251856 
L 198.823721 33.185501 
L 200.431405 32.463872 
L 202.039088 32.013052 
L 203.646771 31.765491 
L 205.254454 31.667424 
L 206.862137 31.678671 
L 208.46982 31.770011 
L 210.077503 31.92038 
L 211.685186 32.114595 
L 213.292869 32.341658 
L 214.900552 32.593548 
L 216.508235 32.864367 
" clip-path="url(#pabd61870b8)" style="fill: none; stroke: #d55e00; stroke-width: 1.5; stroke-linecap: square"/>
   </g>
   <g id="line2d_36">
    <path d="M 137.731765 8.628338 
L 139.339448 9.644428 
L 140.947131 10.660519 
L 142.554814 11.676609 
L 144.162497 12.6927 
L 145.77018 13.708791 
L 147.377863 14.724881 
L 148.985546 15.740972 
L 150.593229 16.757062 
L 152.200912 17.773153 
L 153.808595 18.789244 
L 155.416279 19.402508 
L 157.023962 19.745955 
L 158.631645 20.089402 
L 160.239328 20.43285 
L 161.847011 20.776297 
L 163.454694 21.119744 
L 165.062377 21.463191 
L 166.67006 21.806638 
L 168.277743 22.150086 
L 169.885426 22.493533 
L 171.493109 22.83698 
L 173.100792 23.180427 
L 174.708475 23.523874 
L 176.316158 23.867321 
L 177.923842 24.210769 
L 179.531525 24.554216 
L 181.139208 24.897663 
L 182.746891 25.24111 
L 184.354574 25.584557 
L 185.962257 25.928004 
L 187.56994 26.271452 
L 189.177623 26.614899 
L 190.785306 26.958346 
L 192.392989 27.301793 
L 194.000672 27.64524 
L 195.608355 27.988687 
L 197.216038 28.332135 
L 198.823721 28.675582 
L 200.431405 29.019029 
L 202.039088 29.362476 
L 203.646771 29.705923 
L 205.254454 30.04937 
L 206.862137 30.392818 
L 208.46982 30.736265 
L 210.077503 31.079712 
L 211.685186 31.423159 
L 213.292869 31.766606 
L 214.900552 32.110053 
L 216.508235 32.453501 
" clip-path="url(#pabd61870b8)" style="fill: none; stroke-dasharray: 5.55,2.4; stroke-dashoffset: 0; stroke: #56b4e9; stroke-width: 1.5"/>
   </g>
   <g id="line2d_37">
    <path d="M 137.731765 140.000451 
L 139.339448 136.867635 
L 140.947131 133.73482 
L 142.554814 130.602005 
L 144.162497 127.469189 
L 145.77018 124.336374 
L 147.377863 121.203558 
L 148.985546 118.070743 
L 150.593229 114.937928 
L 152.200912 111.805112 
L 153.808595 108.672297 
L 155.416279 105.539481 
L 157.023962 102.406666 
L 158.631645 99.273851 
L 160.239328 96.141035 
L 161.847011 93.00822 
L 163.454694 89.875404 
L 165.062377 86.742589 
L 166.67006 83.609774 
L 168.277743 80.476958 
L 169.885426 77.344143 
L 171.493109 74.211328 
L 173.100792 71.078513 
L 174.708475 67.945701 
L 176.316158 64.812899 
L 177.923842 61.680135 
L 179.531525 58.547492 
L 181.139208 55.41522 
L 182.746891 52.284011 
L 184.354574 49.155652 
L 185.962257 46.0345 
L 187.56994 42.930549 
L 189.177623 39.865192 
L 190.785306 36.880324 
L 192.392989 34.047924 
L 194.000672 31.468773 
L 195.608355 29.244912 
L 197.216038 27.433958 
L 198.823721 26.026096 
L 200.431405 24.962795 
L 202.039088 24.170155 
L 203.646771 23.580642 
L 205.254454 23.140501 
L 206.862137 22.809567 
L 208.46982 22.558626 
L 210.077503 22.366625 
L 211.685186 22.218389 
L 213.292869 22.102926 
L 214.900552 22.012221 
L 216.508235 21.940382 
" clip-path="url(#pabd61870b8)" style="fill: none; stroke-dasharray: 5.55,2.4; stroke-dashoffset: 0; stroke: #0072b2; stroke-width: 1.5"/>
   </g>
   <g id="line2d_38">
    <path d="M 137.731765 8.663748 
L 139.339448 10.463825 
L 140.947131 12.262418 
L 142.554814 14.050266 
L 144.162497 15.787544 
L 145.77018 17.366697 
L 147.377863 18.635117 
L 148.985546 19.529455 
L 150.593229 20.117432 
L 152.200912 20.500933 
L 153.808595 20.756716 
L 155.416279 20.932722 
L 157.023962 21.057695 
L 158.631645 21.149024 
L 160.239328 21.217496 
L 161.847011 21.270001 
L 163.454694 21.311068 
L 165.062377 21.343752 
L 166.67006 21.370168 
L 168.277743 21.391811 
L 169.885426 21.409761 
L 171.493109 21.424809 
L 173.100792 21.437548 
L 174.708475 21.448427 
L 176.316158 21.457791 
L 177.923842 21.465908 
L 179.531525 21.472991 
L 181.139208 21.479208 
L 182.746891 21.484694 
L 184.354574 21.489558 
L 185.962257 21.493891 
L 187.56994 21.497766 
L 189.177623 21.501245 
L 190.785306 21.504379 
L 192.392989 21.507212 
L 194.000672 21.509779 
L 195.608355 21.512111 
L 197.216038 21.514237 
L 198.823721 21.516177 
L 200.431405 21.517952 
L 202.039088 21.519579 
L 203.646771 21.521074 
L 205.254454 21.522448 
L 206.862137 21.523713 
L 208.46982 21.52488 
L 210.077503 21.525958 
L 211.685186 21.526953 
L 213.292869 21.527874 
L 214.900552 21.528727 
L 216.508235 21.529516 
" clip-path="url(#pabd61870b8)" style="fill: none; stroke-dasharray: 1.5,2.475; stroke-dashoffset: 0; stroke: #0072b2; stroke-width: 1.5"/>
   </g>
   <g id="line2d_39">
    <path d="M 137.731765 146.956 
L 139.339448 142.864 
L 140.947131 138.772 
L 142.554814 134.68 
L 144.162497 130.588 
L 145.77018 126.496 
L 147.377863 122.404 
L 148.985546 118.312 
L 150.593229 114.22 
L 152.200912 110.128 
L 153.808595 106.036 
L 155.416279 101.944 
L 157.023962 97.852 
L 158.631645 93.76 
L 160.239328 89.668 
L 161.847011 85.576 
L 163.454694 81.484 
L 165.062377 77.392 
L 166.67006 73.3 
L 168.277743 69.208 
L 169.885426 65.116 
L 171.493109 61.024 
L 173.100792 56.932 
L 174.708475 52.84 
L 176.316158 48.748 
L 177.923842 44.656 
L 179.531525 40.564 
L 181.139208 36.472 
L 182.746891 32.38 
L 184.354574 28.288 
L 185.962257 24.196 
L 187.56994 20.104 
L 189.177623 16.012 
L 190.785306 11.92 
L 192.392989 7.828 
L 194.000672 3.736 
L 195.608355 -0.356 
L 195.861373 -1 
" clip-path="url(#pabd61870b8)" style="fill: none; stroke: #2c457d; stroke-width: 1.5; stroke-linecap: square"/>
   </g>
   <g id="patch_8">
    <path d="M 137.731765 160.2 
L 137.731765 21.6 
" style="fill: none; stroke: #000000; stroke-linejoin: miter; stroke-linecap: square"/>
   </g>
   <g id="patch_9">
    <path d="M 216.508235 160.2 
L 216.508235 21.6 
" style="fill: none; stroke: #000000; stroke-linejoin: miter; stroke-linecap: square"/>
   </g>
   <g id="patch_10">
    <path d="M 137.731765 160.2 
L 216.508235 160.2 
" style="fill: none; stroke: #000000; stroke-linejoin: miter; stroke-linecap: square"/>
   </g>
   <g id="patch_11">
    <path d="M 137.731765 21.6 
L 216.508235 21.6 
" style="fill: none; stroke: #000000; stroke-linejoin: miter; stroke-linecap: square"/>
   </g>
  </g>
  <g id="axes_3">
   <g id="patch_12">
    <path d="M 232.263529 160.2 
L 311.04 160.2 
L 311.04 21.6 
L 232.263529 21.6 
z
" style="fill: #ffffff"/>
   </g>
   <g id="matplotlib.axis_5">
    <g id="xtick_13">
     <g id="line2d_40">
      <g>
       <use xlink:href="#m82824d3595" x="234.000363" y="160.2" style="stroke: #000000; stroke-width: 0.8"/>
      </g>
     </g>
     <g id="text_24">
      <text style="font: 6px 'Arial', sans-serif; text-anchor: middle" x="234.000363" y="171.494687" transform="rotate(-0 234.000363 171.494687)">-100</text>
     </g>
    </g>
    <g id="xtick_14">
     <g id="line2d_41">
      <g>
       <use xlink:href="#m82824d3595" x="241.502884" y="160.2" style="stroke: #000000; stroke-width: 0.8"/>
      </g>
     </g>
     <g id="text_25">
      <text style="font: 6px 'Arial', sans-serif; text-anchor: middle" x="241.502884" y="171.494687" transform="rotate(-0 241.502884 171.494687)">0</text>
     </g>
    </g>
    <g id="xtick_15">
     <g id="line2d_42">
      <g>
       <use xlink:href="#m82824d3595" x="256.507926" y="160.2" style="stroke: #000000; stroke-width: 0.8"/>
      </g>
     </g>
     <g id="text_26">
      <text style="font: 6px 'Arial', sans-serif; text-anchor: middle" x="256.507926" y="171.494687" transform="rotate(-0 256.507926 171.494687)">200</text>
     </g>
    </g>
    <g id="xtick_16">
     <g id="line2d_43">
      <g>
       <use xlink:href="#m82824d3595" x="271.512968" y="160.2" style="stroke: #000000; stroke-width: 0.8"/>
      </g>
     </g>
     <g id="text_27">
      <text style="font: 6px 'Arial', sans-serif; text-anchor: middle" x="271.512968" y="171.494687" transform="rotate(-0 271.512968 171.494687)">400</text>
     </g>
    </g>
    <g id="xtick_17">
     <g id="line2d_44">
      <g>
       <use xlink:href="#m82824d3595" x="286.51801" y="160.2" style="stroke: #000000; stroke-width: 0.8"/>
      </g>
     </g>
     <g id="text_28">
      <text style="font: 6px 'Arial', sans-serif; text-anchor: middle" x="286.51801" y="171.494687" transform="rotate(-0 286.51801 171.494687)">600</text>
     </g>
    </g>
    <g id="xtick_18">
     <g id="line2d_45">
      <g>
       <use xlink:href="#m82824d3595" x="301.523052" y="160.2" style="stroke: #000000; stroke-width: 0.8"/>
      </g>
     </g>
     <g id="text_29">
      <text style="font: 6px 'Arial', sans-serif; text-anchor: middle" x="301.523052" y="171.494687" transform="rotate(-0 301.523052 171.494687)">800</text>
     </g>
    </g>
   </g>
   <g id="matplotlib.axis_6">
    <g id="ytick_19">
     <g id="line2d_46">
      <g>
       <use xlink:href="#mb6ff4c7202" x="232.263529" y="144.8" style="stroke: #000000; stroke-width: 0.8"/>
      </g>
     </g>
    </g>
    <g id="ytick_20">
     <g id="line2d_47">
      <g>
       <use xlink:href="#mb6ff4c7202" x="232.263529" y="129.4" style="stroke: #000000; stroke-width: 0.8"/>
      </g>
     </g>
    </g>
    <g id="ytick_21">
     <g id="line2d_48">
      <g>
       <use xlink:href="#mb6ff4c7202" x="232.263529" y="114" style="stroke: #000000; stroke-width: 0.8"/>
      </g>
     </g>
    </g>
    <g id="ytick_22">
     <g id="line2d_49">
      <g>
       <use xlink:href="#mb6ff4c7202" x="232.263529" y="98.6" style="stroke: #000000; stroke-width: 0.8"/>
      </g>
     </g>
    </g>
    <g id="ytick_23">
     <g id="line2d_50">
      <g>
       <use xlink:href="#mb6ff4c7202" x="232.263529" y="83.2" style="stroke: #000000; stroke-width: 0.8"/>
      </g>
     </g>
    </g>
    <g id="ytick_24">
     <g id="line2d_51">
      <g>
       <use xlink:href="#mb6ff4c7202" x="232.263529" y="67.8" style="stroke: #000000; stroke-width: 0.8"/>
      </g>
     </g>
    </g>
    <g id="ytick_25">
     <g id="line2d_52">
      <g>
       <use xlink:href="#mb6ff4c7202" x="232.263529" y="52.4" style="stroke: #000000; stroke-width: 0.8"/>
      </g>
     </g>
    </g>
    <g id="ytick_26">
     <g id="line2d_53">
      <g>
       <use xlink:href="#mb6ff4c7202" x="232.263529" y="37" style="stroke: #000000; stroke-width: 0.8"/>
      </g>
     </g>
    </g>
    <g id="ytick_27">
     <g id="line2d_54">
      <g>
       <use xlink:href="#mb6ff4c7202" x="232.263529" y="21.6" style="stroke: #000000; stroke-width: 0.8"/>
      </g>
     </g>
    </g>
   </g>
   <g id="line2d_55">
    <path d="M 232.263529 115.275339 
L 233.871212 111.214526 
L 235.478896 107.155198 
L 237.086579 103.106615 
L 238.694262 99.108602 
L 240.301945 95.268714 
L 241.909628 91.739559 
L 243.517311 88.584485 
L 245.124994 85.735773 
L 246.732677 83.091536 
L 248.34036 80.575018 
L 249.948043 77.534038 
L 251.555726 74.139366 
L 253.163409 70.778342 
L 254.771092 67.440197 
L 256.378776 64.118114 
L 257.986459 60.807825 
L 259.594142 57.507091 
L 261.201825 54.216134 
L 262.809508 50.939483 
L 264.417191 47.690225 
L 266.024874 44.497627 
L 267.632557 41.417099 
L 269.24024 38.534771 
L 270.847923 35.951119 
L 272.455606 33.739944 
L 274.063289 31.914437 
L 275.670972 30.432555 
L 277.278655 29.227594 
L 278.886339 28.233589 
L 280.494022 27.396178 
L 282.101705 26.674087 
L 283.709388 26.037078 
L 285.317071 25.46327 
L 286.924754 24.93684 
L 288.532437 24.446285 
L 290.14012 23.983177 
L 291.747803 23.541283 
L 293.355486 23.115945 
L 294.963169 22.703651 
L 296.570852 22.301725 
L 298.178535 21.908111 
L 299.786218 21.521213 
L 301.393902 21.139784 
L 303.001585 20.76284 
L 304.609268 20.389599 
L 306.216951 20.019436 
L 307.824634 19.651845 
L 309.432317 19.286419 
L 311.04 18.922822 
" clip-path="url(#p933b986dc9)" style="fill: none; stroke: #d55e00; stroke-width: 1.5; stroke-linecap: square"/>
   </g>
   <g id="line2d_56">
    <path d="M 232.263529 25.410696 
L 233.871212 26.069088 
L 235.478896 26.727481 
L 237.086579 27.385873 
L 238.694262 28.044266 
L 240.301945 28.702658 
L 241.909628 29.361051 
L 243.517311 30.019443 
L 245.124994 30.677836 
L 246.732677 31.336228 
L 248.34036 31.994621 
L 249.948043 32.048774 
L 251.555726 31.698202 
L 253.163409 31.347629 
L 254.771092 30.997057 
L 256.378776 30.646484 
L 257.986459 30.295911 
L 259.594142 29.945339 
L 261.201825 29.594766 
L 262.809508 29.244193 
L 264.417191 28.893621 
L 266.024874 28.543048 
L 267.632557 28.192476 
L 269.24024 27.841903 
L 270.847923 27.49133 
L 272.455606 27.140758 
L 274.063289 26.790185 
L 275.670972 26.439612 
L 277.278655 26.08904 
L 278.886339 25.738467 
L 280.494022 25.387894 
L 282.101705 25.037322 
L 283.709388 24.686749 
L 285.317071 24.336177 
L 286.924754 23.985604 
L 288.532437 23.635031 
L 290.14012 23.284459 
L 291.747803 22.933886 
L 293.355486 22.583313 
L 294.963169 22.232741 
L 296.570852 21.882168 
L 298.178535 21.531596 
L 299.786218 21.181023 
L 301.393902 20.83045 
L 303.001585 20.479878 
L 304.609268 20.129305 
L 306.216951 19.778732 
L 307.824634 19.42816 
L 309.432317 19.077587 
L 311.04 18.727015 
" clip-path="url(#p933b986dc9)" style="fill: none; stroke-dasharray: 5.55,2.4; stroke-dashoffset: 0; stroke: #56b4e9; stroke-width: 1.5"/>
   </g>
   <g id="line2d_57">
    <path d="M 232.263529 98.52839 
L 233.871212 95.609263 
L 235.478896 92.690135 
L 237.086579 89.771007 
L 238.694262 86.85188 
L 240.301945 83.932752 
L 241.909628 81.013624 
L 243.517311 78.094497 
L 245.124994 75.175369 
L 246.732677 72.256241 
L 248.34036 69.337114 
L 249.948043 66.417986 
L 251.555726 63.498859 
L 253.163409 60.579737 
L 254.771092 57.660637 
L 256.378776 54.741632 
L 257.986459 51.822981 
L 259.594142 48.905505 
L 261.201825 45.991536 
L 262.809508 43.087101 
L 264.417191 40.206365 
L 266.024874 37.379387 
L 267.632557 34.662172 
L 269.24024 32.141295 
L 270.847923 29.917579 
L 272.455606 28.065095 
L 274.063289 26.597243 
L 275.670972 25.47215 
L 277.278655 24.623248 
L 278.886339 23.984681 
L 280.494022 23.502174 
L 282.101705 23.134531 
L 283.709388 22.851574 
L 285.317071 22.631473 
L 286.924754 22.458448 
L 288.532437 22.321032 
L 290.14012 22.21083 
L 291.747803 22.121633 
L 293.355486 22.048808 
L 294.963169 21.988862 
L 296.570852 21.939136 
L 298.178535 21.897589 
L 299.786218 21.862638 
L 301.393902 21.833047 
L 303.001585 21.807843 
L 304.609268 21.786252 
L 306.216951 21.767657 
L 307.824634 21.75156 
L 309.432317 21.737558 
L 311.04 21.725324 
" clip-path="url(#p933b986dc9)" style="fill: none; stroke-dasharray: 5.55,2.4; stroke-dashoffset: 0; stroke: #0072b2; stroke-width: 1.5"/>
   </g>
   <g id="line2d_58">
    <path d="M 232.263529 8.663748 
L 233.871212 10.463825 
L 235.478896 12.262418 
L 237.086579 14.050266 
L 238.694262 15.787544 
L 240.301945 17.366697 
L 241.909628 18.635117 
L 243.517311 19.529455 
L 245.124994 20.117432 
L 246.732677 20.500933 
L 248.34036 20.756716 
L 249.948043 20.932722 
L 251.555726 21.057695 
L 253.163409 21.149024 
L 254.771092 21.217496 
L 256.378776 21.270001 
L 257.986459 21.311068 
L 259.594142 21.343752 
L 261.201825 21.370168 
L 262.809508 21.391811 
L 264.417191 21.409761 
L 266.024874 21.424809 
L 267.632557 21.437548 
L 269.24024 21.448427 
L 270.847923 21.457791 
L 272.455606 21.465908 
L 274.063289 21.472991 
L 275.670972 21.479208 
L 277.278655 21.484694 
L 278.886339 21.489558 
L 280.494022 21.493891 
L 282.101705 21.497766 
L 283.709388 21.501245 
L 285.317071 21.504379 
L 286.924754 21.507212 
L 288.532437 21.509779 
L 290.14012 21.512111 
L 291.747803 21.514237 
L 293.355486 21.516177 
L 294.963169 21.517952 
L 296.570852 21.519579 
L 298.178535 21.521074 
L 299.786218 21.522448 
L 301.393902 21.523713 
L 303.001585 21.52488 
L 304.609268 21.525958 
L 306.216951 21.526953 
L 307.824634 21.527874 
L 309.432317 21.528727 
L 311.04 21.529516 
" clip-path="url(#p933b986dc9)" style="fill: none; stroke-dasharray: 1.5,2.475; stroke-dashoffset: 0; stroke: #0072b2; stroke-width: 1.5"/>
   </g>
   <g id="patch_13">
    <path d="M 232.263529 160.2 
L 232.263529 21.6 
" style="fill: none; stroke: #000000; stroke-linejoin: miter; stroke-linecap: square"/>
   </g>
   <g id="patch_14">
    <path d="M 311.04 160.2 
L 311.04 21.6 
" style="fill: none; stroke: #000000; stroke-linejoin: miter; stroke-linecap: square"/>
   </g>
   <g id="patch_15">
    <path d="M 232.263529 160.2 
L 311.04 160.2 
" style="fill: none; stroke: #000000; stroke-linejoin: miter; stroke-linecap: square"/>
   </g>
   <g id="patch_16">
    <path d="M 232.263529 21.6 
L 311.04 21.6 
" style="fill: none; stroke: #000000; stroke-linejoin: miter; stroke-linecap: square"/>
   </g>
  </g>
 </g>
 <defs>
  <clipPath id="ped07d0c0ed">
   <rect x="43.2" y="21.6" width="78.776471" height="138.6"/>
  </clipPath>
  <clipPath id="pabd61870b8">
   <rect x="137.731765" y="21.6" width="78.776471" height="138.6"/>
  </clipPath>
  <clipPath id="p933b986dc9">
   <rect x="232.263529" y="21.6" width="78.776471" height="138.6"/>
  </clipPath>
 </defs>
</svg>
