<?xml version="1.0" encoding="utf-8" standalone="no"?>
<!DOCTYPE svg PUBLIC "-//W3C//DTD SVG 1.1//EN"
  "http://www.w3.org/Graphics/SVG/1.1/DTD/svg11.dtd">
<svg xmlns:xlink="http://www.w3.org/1999/xlink" width="195.776333pt" height="193.677375pt" viewBox="0 0 195.776333 193.677375" xmlns="http://www.w3.org/2000/svg" version="1.1">
 <metadata>
  <rdf:RDF xmlns:dc="http://purl.org/dc/elements/1.1/" xmlns:cc="http://creativecommons.org/ns#" xmlns:rdf="http://www.w3.org/1999/02/22-rdf-syntax-ns#">
   <cc:Work>
    <dc:type rdf:resource="http://purl.org/dc/dcmitype/StillImage"/>
    <dc:date>2025-09-22T14:44:14.611921</dc:date>
    <dc:format>image/svg+xml</dc:format>
    <dc:creator>
     <cc:Agent>
      <dc:title>Matplotlib v3.8.4, https://matplotlib.org/</dc:title>
     </cc:Agent>
    </dc:creator>
   </cc:Work>
  </rdf:RDF>
 </metadata>
 <defs>
  <style type="text/css">*{stroke-linejoin: round; stroke-linecap: butt}</style>
 </defs>
 <g id="figure_1">
  <g id="patch_1">
   <path d="M 0 193.677375 
L 195.776333 193.677375 
L 195.776333 0 
L 0 0 
z
" style="fill: #ffffff"/>
  </g>
  <g id="axes_1">
   <g id="patch_2">
    <path d="M 33.717188 162.589875 
L 182.696333 162.589875 
L 182.696333 7.2 
L 33.717188 7.2 
z
" style="fill: #ffffff"/>
   </g>
   <g id="PolyCollection_1">
    <path d="M 33.717188 170.003999 
L 33.717188 179.54648 
L 33.866316 179.020299 
L 34.015444 178.494118 
L 34.164572 177.967937 
L 34.313701 177.441757 
L 34.462829 176.915576 
L 34.611957 176.389395 
L 34.761085 175.863214 
L 34.910214 175.337033 
L 35.059342 174.810852 
L 35.20847 174.284671 
L 35.357599 173.75849 
L 35.506727 173.232309 
L 35.655855 172.706128 
L 35.804983 172.179947 
L 35.954112 171.653766 
L 36.10324 171.127585 
L 36.252368 170.601404 
L 36.401496 170.075223 
L 36.550625 169.549042 
L 36.699753 169.022861 
L 36.848881 168.49668 
L 36.99801 167.970499 
L 37.147138 167.444319 
L 37.296266 166.918138 
L 37.445394 166.391957 
L 37.594523 165.865776 
L 37.743651 165.339595 
L 37.892779 164.813414 
L 38.041907 164.287233 
L 38.191036 163.761052 
L 38.340164 163.234871 
L 38.489292 162.70869 
L 38.638421 162.182509 
L 38.787549 161.656328 
L 38.936677 161.130147 
L 39.085805 160.603966 
L 39.234934 160.077785 
L 39.384062 159.551604 
L 39.53319 159.025423 
L 39.682318 158.499242 
L 39.831447 157.973062 
L 39.980575 157.446881 
L 40.129703 156.9207 
L 40.278832 156.394519 
L 40.42796 155.868338 
L 40.577088 155.342157 
L 40.726216 154.815976 
L 40.875345 154.289795 
L 41.024473 153.763614 
L 41.173601 153.237433 
L 41.322729 152.711252 
L 41.471858 152.185071 
L 41.620986 151.65889 
L 41.770114 151.132709 
L 41.919243 150.606528 
L 42.068371 150.080347 
L 42.217499 149.554166 
L 42.366627 149.027985 
L 42.515756 148.501805 
L 42.664884 147.975624 
L 42.814012 147.449443 
L 42.96314 146.923262 
L 43.112269 146.397081 
L 43.261397 145.8709 
L 43.410525 145.344719 
L 43.559654 144.818538 
L 43.708782 144.292357 
L 43.85791 143.766176 
L 44.007038 143.239995 
L 44.156167 142.713814 
L 44.305295 142.187633 
L 44.454423 141.661452 
L 44.603552 141.135271 
L 44.75268 140.60909 
L 44.901808 140.082909 
L 45.050936 139.556728 
L 45.200065 139.030548 
L 45.349193 138.504367 
L 45.498321 137.978186 
L 45.647449 137.452005 
L 45.796578 136.925824 
L 45.945706 136.399643 
L 46.094834 135.873462 
L 46.243963 135.347281 
L 46.393091 134.8211 
L 46.542219 134.294919 
L 46.691347 133.768738 
L 46.840476 133.242557 
L 46.989604 132.716376 
L 47.138732 132.190195 
L 47.28786 131.664014 
L 47.436989 131.137833 
L 47.586117 130.611652 
L 47.735245 130.085471 
L 47.884374 129.559291 
L 48.033502 129.03311 
L 48.18263 128.506929 
L 48.331758 127.980748 
L 48.480887 127.454567 
L 48.630015 126.928386 
L 48.779143 126.402205 
L 48.928271 125.876024 
L 49.0774 125.349843 
L 49.226528 124.823662 
L 49.375656 124.297481 
L 49.524785 123.7713 
L 49.673913 123.245119 
L 49.823041 122.718938 
L 49.972169 122.192757 
L 50.121298 121.666576 
L 50.270426 121.140395 
L 50.419554 120.614214 
L 50.568682 120.088034 
L 50.717811 119.561853 
L 50.866939 119.035672 
L 51.016067 118.509491 
L 51.165196 117.98331 
L 51.314324 117.457129 
L 51.463452 116.930948 
L 51.61258 116.404767 
L 51.761709 115.878586 
L 51.910837 115.352405 
L 52.059965 114.826224 
L 52.209093 114.300043 
L 52.358222 113.773862 
L 52.50735 113.247681 
L 52.656478 112.7215 
L 52.805607 112.195319 
L 52.954735 111.669138 
L 53.103863 111.142957 
L 53.252991 110.616777 
L 53.40212 110.090596 
L 53.551248 109.564415 
L 53.700376 109.038234 
L 53.849504 108.512053 
L 53.998633 107.985872 
L 54.147761 107.459691 
L 54.296889 106.93351 
L 54.446018 106.407329 
L 54.595146 105.881148 
L 54.744274 105.354967 
L 54.893402 104.828786 
L 55.042531 104.302605 
L 55.191659 103.776424 
L 55.340787 103.250243 
L 55.489916 102.724062 
L 55.639044 102.197881 
L 55.788172 101.6717 
L 55.9373 101.14552 
L 56.086429 100.619339 
L 56.235557 100.093158 
L 56.384685 99.566977 
L 56.533813 99.040796 
L 56.682942 98.514615 
L 56.83207 97.988434 
L 56.981198 97.462253 
L 57.130327 96.936072 
L 57.279455 96.409891 
L 57.428583 95.88371 
L 57.577711 95.357529 
L 57.72684 94.831348 
L 57.875968 94.305167 
L 58.025096 93.778986 
L 58.174224 93.252805 
L 58.323353 92.726624 
L 58.472481 92.200443 
L 58.621609 91.674263 
L 58.770738 91.148082 
L 58.919866 90.621901 
L 59.068994 90.09572 
L 59.218122 89.569539 
L 59.367251 89.043358 
L 59.516379 88.517177 
L 59.665507 87.990996 
L 59.814635 87.464815 
L 59.963764 86.938634 
L 60.112892 86.412453 
L 60.26202 85.886272 
L 60.411149 85.360091 
L 60.560277 84.83391 
L 60.709405 84.307729 
L 60.858533 83.781548 
L 61.007662 83.255367 
L 61.15679 82.729186 
L 61.305918 82.203006 
L 61.455046 81.676825 
L 61.604175 81.150644 
L 61.753303 80.624463 
L 61.902431 80.098282 
L 62.05156 79.572101 
L 62.200688 79.04592 
L 62.349816 78.519739 
L 62.498944 77.993558 
L 62.648073 77.467377 
L 62.797201 76.941196 
L 62.946329 76.415015 
L 63.095457 75.888834 
L 63.244586 75.362653 
L 63.393714 74.836472 
L 63.542842 74.310291 
L 63.691971 73.78411 
L 63.841099 73.257929 
L 63.990227 72.731749 
L 64.139355 72.205568 
L 64.288484 71.679387 
L 64.437612 71.153206 
L 64.58674 70.627025 
L 64.735868 70.100844 
L 64.884997 69.574663 
L 65.034125 69.048482 
L 65.183253 68.522301 
L 65.332382 67.99612 
L 65.48151 67.469939 
L 65.630638 66.943758 
L 65.779766 66.417577 
L 65.928895 65.891396 
L 66.078023 65.365215 
L 66.227151 64.839034 
L 66.37628 64.312853 
L 66.525408 63.786672 
L 66.674536 63.260492 
L 66.823664 62.734311 
L 66.972793 62.20813 
L 67.121921 61.681949 
L 67.271049 61.155768 
L 67.420177 60.629587 
L 67.569306 60.103406 
L 67.718434 59.577225 
L 67.867562 59.051044 
L 68.016691 58.524863 
L 68.165819 57.998682 
L 68.314947 57.472501 
L 68.464075 56.94632 
L 68.613204 56.420139 
L 68.762332 55.893958 
L 68.91146 55.367777 
L 69.060588 54.841596 
L 69.209717 54.315415 
L 69.358845 53.789235 
L 69.507973 53.263054 
L 69.657102 52.736873 
L 69.80623 52.210692 
L 69.955358 51.684511 
L 70.104486 51.15833 
L 70.253615 50.632149 
L 70.402743 50.105968 
L 70.551871 49.579787 
L 70.700999 49.053606 
L 70.850128 48.527425 
L 70.999256 48.001244 
L 71.148384 47.475063 
L 71.297513 46.948882 
L 71.446641 46.422701 
L 71.595769 45.89652 
L 71.744897 45.370339 
L 71.894026 44.844158 
L 72.043154 44.317977 
L 72.192282 43.791797 
L 72.34141 43.265616 
L 72.490539 42.739435 
L 72.639667 42.213254 
L 72.788795 41.687073 
L 72.937924 41.160892 
L 73.087052 40.634711 
L 73.23618 40.10853 
L 73.385308 39.582349 
L 73.534437 39.056168 
L 73.683565 38.529987 
L 73.832693 38.003806 
L 73.981821 37.477625 
L 74.13095 36.951444 
L 74.280078 36.425263 
L 74.429206 35.899082 
L 74.578335 35.372901 
L 74.727463 34.84672 
L 74.876591 34.32054 
L 75.025719 33.794359 
L 75.174848 33.268178 
L 75.323976 32.741997 
L 75.473104 32.215816 
L 75.622232 31.689635 
L 75.771361 31.163454 
L 75.920489 30.637273 
L 76.069617 30.111092 
L 76.218746 29.584911 
L 76.367874 29.05873 
L 76.517002 28.532549 
L 76.66613 28.006368 
L 76.815259 27.480187 
L 76.964387 26.954006 
L 77.113515 26.427825 
L 77.262644 25.901644 
L 77.411772 25.375463 
L 77.5609 24.849283 
L 77.710028 24.323102 
L 77.859157 23.796921 
L 78.008285 23.27074 
L 78.157413 22.744559 
L 78.306541 22.218378 
L 78.45567 21.692197 
L 78.604798 21.166016 
L 78.753926 20.639835 
L 78.903055 20.113654 
L 79.052183 19.587473 
L 79.201311 19.061292 
L 79.350439 18.535111 
L 79.499568 18.00893 
L 79.648696 17.482749 
L 79.797824 16.956568 
L 79.946952 16.430387 
L 80.096081 15.904206 
L 80.245209 15.378026 
L 80.394337 14.851845 
L 80.543466 14.325664 
L 80.692594 13.799483 
L 80.841722 13.273302 
L 80.99085 12.747121 
L 81.139979 12.22094 
L 81.289107 11.694759 
L 81.438235 11.168578 
L 81.587363 10.642397 
L 81.736492 10.116216 
L 81.88562 9.590035 
L 82.034748 9.063854 
L 82.183877 8.537673 
L 82.333005 8.011492 
L 82.482133 7.485311 
L 82.631261 6.95913 
L 82.78039 6.432949 
L 82.929518 5.906769 
L 83.078646 5.380588 
L 83.227774 4.854407 
L 83.376903 4.328226 
L 83.526031 3.802045 
L 83.675159 3.275864 
L 83.824288 2.749683 
L 83.973416 2.223502 
L 84.122544 1.697321 
L 84.271672 1.17114 
L 84.420801 0.644959 
L 84.569929 0.118778 
L 84.719057 -0.407403 
L 84.868185 -0.933584 
L 85.017314 -1.459765 
L 85.166442 -1.985946 
L 85.31557 -2.512127 
L 85.464699 -3.038308 
L 85.613827 -3.564488 
L 85.762955 -4.090669 
L 85.912083 -4.61685 
L 86.061212 -5.143031 
L 86.21034 -5.669212 
L 86.359468 -6.195393 
L 86.508596 -6.721574 
L 86.657725 -7.247755 
L 86.806853 -7.773936 
L 86.955981 -8.300117 
L 87.10511 -8.826298 
L 87.254238 -9.352479 
L 87.403366 -9.87866 
L 87.552494 -10.404841 
L 87.701623 -10.931022 
L 87.850751 -11.457203 
L 87.999879 -11.983384 
L 88.149008 -12.509565 
L 88.298136 -13.035745 
L 88.447264 -13.561926 
L 88.596392 -14.088107 
L 88.745521 -14.614288 
L 88.894649 -15.140469 
L 89.043777 -15.66665 
L 89.192905 -16.192831 
L 89.342034 -16.719012 
L 89.491162 -17.245193 
L 89.64029 -17.771374 
L 89.789419 -18.297555 
L 89.938547 -18.823736 
L 90.087675 -19.349917 
L 90.236803 -19.876098 
L 90.385932 -20.402279 
L 90.53506 -20.92846 
L 90.684188 -21.454641 
L 90.833316 -21.980822 
L 90.982445 -22.507002 
L 91.131573 -23.033183 
L 91.280701 -23.559364 
L 91.42983 -24.085545 
L 91.578958 -24.611726 
L 91.728086 -25.137907 
L 91.877214 -25.664088 
L 92.026343 -26.190269 
L 92.175471 -26.71645 
L 92.324599 -27.242631 
L 92.473727 -27.768812 
L 92.622856 -28.294993 
L 92.771984 -28.821174 
L 92.921112 -29.347355 
L 93.070241 -29.873536 
L 93.219369 -30.399717 
L 93.368497 -30.925898 
L 93.517625 -31.452079 
L 93.666754 -31.978259 
L 93.815882 -32.50444 
L 93.96501 -33.030621 
L 94.114138 -33.556802 
L 94.263267 -34.082983 
L 94.412395 -34.609164 
L 94.561523 -35.135345 
L 94.710652 -35.661526 
L 94.85978 -36.187707 
L 95.008908 -36.713888 
L 95.158036 -37.240069 
L 95.307165 -37.76625 
L 95.456293 -38.292431 
L 95.605421 -38.818612 
L 95.754549 -39.344793 
L 95.903678 -39.870974 
L 96.052806 -40.397155 
L 96.201934 -40.923336 
L 96.351063 -41.449516 
L 96.500191 -41.975697 
L 96.649319 -42.501878 
L 96.798447 -43.028059 
L 96.947576 -43.55424 
L 97.096704 -44.080421 
L 97.245832 -44.606602 
L 97.39496 -45.132783 
L 97.544089 -45.658964 
L 97.693217 -46.185145 
L 97.842345 -46.711326 
L 97.991474 -47.237507 
L 98.140602 -47.763688 
L 98.28973 -48.289869 
L 98.438858 -48.81605 
L 98.587987 -49.342231 
L 98.737115 -49.868412 
L 98.886243 -50.394593 
L 99.035372 -50.920773 
L 99.1845 -51.446954 
L 99.333628 -51.973135 
L 99.482756 -52.499316 
L 99.631885 -53.025497 
L 99.781013 -53.551678 
L 99.930141 -54.077859 
L 100.079269 -54.60404 
L 100.228398 -55.130221 
L 100.377526 -55.656402 
L 100.526654 -56.182583 
L 100.675783 -56.708764 
L 100.824911 -57.234945 
L 100.974039 -57.761126 
L 101.123167 -58.287307 
L 101.272296 -58.813488 
L 101.421424 -59.339669 
L 101.570552 -59.86585 
L 101.71968 -60.39203 
L 101.868809 -60.918211 
L 102.017937 -61.444392 
L 102.167065 -61.970573 
L 102.316194 -62.496754 
L 102.465322 -63.022935 
L 102.61445 -63.549116 
L 102.763578 -64.075297 
L 102.912707 -64.601478 
L 103.061835 -65.127659 
L 103.210963 -65.65384 
L 103.360091 -66.180021 
L 103.50922 -66.706202 
L 103.658348 -67.232383 
L 103.807476 -67.758564 
L 103.956605 -68.284745 
L 104.105733 -68.810926 
L 104.254861 -69.337107 
L 104.403989 -69.863287 
L 104.553118 -70.389468 
L 104.702246 -70.915649 
L 104.851374 -71.44183 
L 105.000502 -71.968011 
L 105.149631 -72.494192 
L 105.298759 -73.020373 
L 105.447887 -73.546554 
L 105.597016 -74.072735 
L 105.746144 -74.598916 
L 105.895272 -75.125097 
L 106.0444 -75.651278 
L 106.193529 -76.177459 
L 106.342657 -76.70364 
L 106.491785 -77.229821 
L 106.640913 -77.756002 
L 106.790042 -78.282183 
L 106.93917 -78.808364 
L 107.088298 -79.334545 
L 107.237427 -79.860725 
L 107.386555 -80.386906 
L 107.535683 -80.913087 
L 107.684811 -81.439268 
L 107.83394 -81.965449 
L 107.983068 -82.49163 
L 108.132196 -83.017811 
L 108.281324 -83.543992 
L 108.430453 -84.070173 
L 108.579581 -84.596354 
L 108.728709 -85.122535 
L 108.877838 -85.648716 
L 109.026966 -86.174897 
L 109.176094 -86.701078 
L 109.325222 -87.227259 
L 109.474351 -87.75344 
L 109.623479 -88.279621 
L 109.772607 -88.805802 
L 109.921736 -89.331982 
L 110.070864 -89.858163 
L 110.219992 -90.384344 
L 110.36912 -90.910525 
L 110.518249 -91.436706 
L 110.667377 -91.962887 
L 110.816505 -92.489068 
L 110.965633 -93.015249 
L 111.114762 -93.54143 
L 111.26389 -94.067611 
L 111.413018 -94.593792 
L 111.562147 -95.119973 
L 111.711275 -95.646154 
L 111.860403 -96.172335 
L 112.009531 -96.698516 
L 112.15866 -97.224697 
L 112.307788 -97.750878 
L 112.456916 -98.277059 
L 112.606044 -98.803239 
L 112.755173 -99.32942 
L 112.904301 -99.855601 
L 113.053429 -100.381782 
L 113.202558 -100.907963 
L 113.351686 -101.434144 
L 113.500814 -101.960325 
L 113.649942 -102.486506 
L 113.799071 -103.012687 
L 113.948199 -103.538868 
L 114.097327 -104.065049 
L 114.246455 -104.59123 
L 114.395584 -105.117411 
L 114.544712 -105.643592 
L 114.69384 -106.169773 
L 114.842969 -106.695954 
L 114.992097 -107.222135 
L 115.141225 -107.748316 
L 115.290353 -108.274496 
L 115.439482 -108.800677 
L 115.58861 -109.326858 
L 115.737738 -109.853039 
L 115.886866 -110.37922 
L 116.035995 -110.905401 
L 116.185123 -111.431582 
L 116.334251 -111.957763 
L 116.48338 -112.483944 
L 116.632508 -113.010125 
L 116.781636 -113.536306 
L 116.930764 -114.062487 
L 117.079893 -114.588668 
L 117.229021 -115.114849 
L 117.378149 -115.64103 
L 117.527277 -116.167211 
L 117.676406 -116.693392 
L 117.825534 -117.219573 
L 117.974662 -117.745753 
L 118.123791 -118.271934 
L 118.272919 -118.798115 
L 118.422047 -119.324296 
L 118.571175 -119.850477 
L 118.720304 -120.376658 
L 118.869432 -120.902839 
L 119.01856 -121.42902 
L 119.167688 -121.955201 
L 119.316817 -122.481382 
L 119.465945 -123.007563 
L 119.615073 -123.533744 
L 119.764202 -124.059925 
L 119.91333 -124.586106 
L 120.062458 -125.112287 
L 120.211586 -125.638468 
L 120.360715 -126.164649 
L 120.509843 -126.69083 
L 120.658971 -127.21701 
L 120.8081 -127.743191 
L 120.957228 -128.269372 
L 121.106356 -128.795553 
L 121.255484 -129.321734 
L 121.404613 -129.847915 
L 121.553741 -130.374096 
L 121.702869 -130.900277 
L 121.851997 -131.426458 
L 122.001126 -131.952639 
L 122.150254 -132.47882 
L 122.299382 -133.005001 
L 122.448511 -133.531182 
L 122.597639 -134.057363 
L 122.746767 -134.583544 
L 122.895895 -135.109725 
L 123.045024 -135.635906 
L 123.194152 -136.162087 
L 123.34328 -136.688267 
L 123.492408 -137.214448 
L 123.641537 -137.740629 
L 123.790665 -138.26681 
L 123.939793 -138.792991 
L 124.088922 -139.319172 
L 124.23805 -139.845353 
L 124.387178 -140.371534 
L 124.536306 -140.897715 
L 124.685435 -141.423896 
L 124.834563 -141.950077 
L 124.983691 -142.476258 
L 125.132819 -143.002439 
L 125.281948 -143.52862 
L 125.431076 -144.054801 
L 125.580204 -144.580982 
L 125.729333 -145.107163 
L 125.878461 -145.633344 
L 126.027589 -146.159524 
L 126.176717 -146.685705 
L 126.325846 -147.211886 
L 126.474974 -147.738067 
L 126.624102 -148.264248 
L 126.77323 -148.790429 
L 126.922359 -149.31661 
L 127.071487 -149.842791 
L 127.220615 -150.368972 
L 127.369744 -150.895153 
L 127.518872 -151.421334 
L 127.668 -151.947515 
L 127.817128 -152.473696 
L 127.966257 -152.999877 
L 128.115385 -153.526058 
L 128.264513 -154.052239 
L 128.413641 -154.57842 
L 128.56277 -155.104601 
L 128.711898 -155.630781 
L 128.861026 -156.156962 
L 129.010155 -156.683143 
L 129.159283 -157.209324 
L 129.308411 -157.735505 
L 129.457539 -158.261686 
L 129.606668 -158.787867 
L 129.755796 -159.314048 
L 129.904924 -159.840229 
L 130.054052 -160.36641 
L 130.203181 -160.892591 
L 130.352309 -161.418772 
L 130.501437 -161.944953 
L 130.650566 -162.471134 
L 130.799694 -162.997315 
L 130.948822 -163.523496 
L 131.09795 -164.049677 
L 131.247079 -164.575858 
L 131.396207 -165.102038 
L 131.545335 -165.628219 
L 131.694464 -166.1544 
L 131.843592 -166.680581 
L 131.99272 -167.206762 
L 132.141848 -167.732943 
L 132.290977 -168.259124 
L 132.440105 -168.785305 
L 132.589233 -169.311486 
L 132.738361 -169.837667 
L 132.88749 -170.363848 
L 133.036618 -170.890029 
L 133.185746 -171.41621 
L 133.334875 -171.942391 
L 133.484003 -172.468572 
L 133.633131 -172.994753 
L 133.782259 -173.520934 
L 133.931388 -174.047115 
L 134.080516 -174.573295 
L 134.229644 -175.099476 
L 134.378772 -175.625657 
L 134.527901 -176.151838 
L 134.677029 -176.678019 
L 134.826157 -177.2042 
L 134.975286 -177.730381 
L 135.124414 -178.256562 
L 135.273542 -178.782743 
L 135.42267 -179.308924 
L 135.571799 -179.835105 
L 135.720927 -180.361286 
L 135.870055 -180.887467 
L 136.019183 -181.413648 
L 136.168312 -181.939829 
L 136.31744 -182.46601 
L 136.466568 -182.992191 
L 136.615697 -183.518372 
L 136.764825 -184.044552 
L 136.913953 -184.570733 
L 137.063081 -185.096914 
L 137.21221 -185.623095 
L 137.361338 -186.149276 
L 137.510466 -186.675457 
L 137.659594 -187.201638 
L 137.808723 -187.727819 
L 137.957851 -188.254 
L 138.106979 -188.780181 
L 138.256108 -189.306362 
L 138.405236 -189.832543 
L 138.554364 -190.358724 
L 138.703492 -190.884905 
L 138.852621 -191.411086 
L 139.001749 -191.937267 
L 139.150877 -192.463448 
L 139.300005 -192.989629 
L 139.449134 -193.515809 
L 139.598262 -194.04199 
L 139.74739 -194.568171 
L 139.896519 -195.094352 
L 140.045647 -195.620533 
L 140.194775 -196.146714 
L 140.343903 -196.672895 
L 140.493032 -197.199076 
L 140.64216 -197.725257 
L 140.791288 -198.251438 
L 140.940416 -198.777619 
L 141.089545 -199.3038 
L 141.238673 -199.829981 
L 141.387801 -200.356162 
L 141.53693 -200.882343 
L 141.686058 -201.408524 
L 141.835186 -201.934705 
L 141.984314 -202.460886 
L 142.133443 -202.987067 
L 142.282571 -203.513247 
L 142.431699 -204.039428 
L 142.580828 -204.565609 
L 142.729956 -205.09179 
L 142.879084 -205.617971 
L 143.028212 -206.144152 
L 143.177341 -206.670333 
L 143.326469 -207.196514 
L 143.475597 -207.722695 
L 143.624725 -208.248876 
L 143.773854 -208.775057 
L 143.922982 -209.301238 
L 144.07211 -209.827419 
L 144.221239 -210.3536 
L 144.370367 -210.879781 
L 144.519495 -211.405962 
L 144.668623 -211.932143 
L 144.817752 -212.458324 
L 144.96688 -212.984504 
L 145.116008 -213.510685 
L 145.265136 -214.036866 
L 145.414265 -214.563047 
L 145.563393 -215.089228 
L 145.712521 -215.615409 
L 145.86165 -216.14159 
L 146.010778 -216.667771 
L 146.159906 -217.193952 
L 146.309034 -217.720133 
L 146.458163 -218.246314 
L 146.607291 -218.772495 
L 146.756419 -219.298676 
L 146.905547 -219.824857 
L 147.054676 -220.351038 
L 147.203804 -220.877219 
L 147.352932 -221.4034 
L 147.502061 -221.929581 
L 147.651189 -222.455761 
L 147.800317 -222.981942 
L 147.949445 -223.508123 
L 148.098574 -224.034304 
L 148.247702 -224.560485 
L 148.39683 -225.086666 
L 148.545958 -225.612847 
L 148.695087 -226.139028 
L 148.844215 -226.665209 
L 148.993343 -227.19139 
L 149.142472 -227.717571 
L 149.2916 -228.243752 
L 149.440728 -228.769933 
L 149.589856 -229.296114 
L 149.738985 -229.822295 
L 149.888113 -230.348476 
L 150.037241 -230.874657 
L 150.186369 -231.400838 
L 150.335498 -231.927018 
L 150.484626 -232.453199 
L 150.633754 -232.97938 
L 150.782883 -233.505561 
L 150.932011 -234.031742 
L 151.081139 -234.557923 
L 151.230267 -235.084104 
L 151.379396 -235.610285 
L 151.528524 -236.136466 
L 151.677652 -236.662647 
L 151.82678 -237.188828 
L 151.975909 -237.715009 
L 152.125037 -238.24119 
L 152.274165 -238.767371 
L 152.423294 -239.293552 
L 152.572422 -239.819733 
L 152.72155 -240.345914 
L 152.870678 -240.872095 
L 153.019807 -241.398275 
L 153.168935 -241.924456 
L 153.318063 -242.450637 
L 153.467192 -242.976818 
L 153.61632 -243.502999 
L 153.765448 -244.02918 
L 153.914576 -244.555361 
L 154.063705 -245.081542 
L 154.212833 -245.607723 
L 154.361961 -246.133904 
L 154.511089 -246.660085 
L 154.660218 -247.186266 
L 154.809346 -247.712447 
L 154.958474 -248.238628 
L 155.107603 -248.764809 
L 155.256731 -249.29099 
L 155.405859 -249.817171 
L 155.554987 -250.343352 
L 155.704116 -250.869532 
L 155.853244 -251.395713 
L 156.002372 -251.921894 
L 156.1515 -252.448075 
L 156.300629 -252.974256 
L 156.449757 -253.500437 
L 156.598885 -254.026618 
L 156.748014 -254.552799 
L 156.897142 -255.07898 
L 157.04627 -255.605161 
L 157.195398 -256.131342 
L 157.344527 -256.657523 
L 157.493655 -257.183704 
L 157.642783 -257.709885 
L 157.791911 -258.236066 
L 157.94104 -258.762247 
L 158.090168 -259.288428 
L 158.239296 -259.814609 
L 158.388425 -260.340789 
L 158.537553 -260.86697 
L 158.686681 -261.393151 
L 158.835809 -261.919332 
L 158.984938 -262.445513 
L 159.134066 -262.971694 
L 159.283194 -263.497875 
L 159.432322 -264.024056 
L 159.581451 -264.550237 
L 159.730579 -265.076418 
L 159.879707 -265.602599 
L 160.028836 -266.12878 
L 160.177964 -266.654961 
L 160.327092 -267.181142 
L 160.47622 -267.707323 
L 160.625349 -268.233504 
L 160.774477 -268.759685 
L 160.923605 -269.285866 
L 161.072733 -269.812046 
L 161.221862 -270.338227 
L 161.37099 -270.864408 
L 161.520118 -271.390589 
L 161.669247 -271.91677 
L 161.818375 -272.442951 
L 161.967503 -272.969132 
L 162.116631 -273.495313 
L 162.26576 -274.021494 
L 162.414888 -274.547675 
L 162.564016 -275.073856 
L 162.713144 -275.600037 
L 162.862273 -276.126218 
L 163.011401 -276.652399 
L 163.160529 -277.17858 
L 163.309658 -277.704761 
L 163.458786 -278.230942 
L 163.607914 -278.757123 
L 163.757042 -279.283303 
L 163.906171 -279.809484 
L 164.055299 -280.335665 
L 164.204427 -280.861846 
L 164.353556 -281.388027 
L 164.502684 -281.914208 
L 164.651812 -282.440389 
L 164.80094 -282.96657 
L 164.950069 -283.492751 
L 165.099197 -284.018932 
L 165.248325 -284.545113 
L 165.397453 -285.071294 
L 165.546582 -285.597475 
L 165.69571 -286.123656 
L 165.844838 -286.649837 
L 165.993967 -287.176018 
L 166.143095 -287.702199 
L 166.292223 -288.22838 
L 166.441351 -288.75456 
L 166.59048 -289.280741 
L 166.739608 -289.806922 
L 166.888736 -290.333103 
L 167.037864 -290.859284 
L 167.186993 -291.385465 
L 167.336121 -291.911646 
L 167.485249 -292.437827 
L 167.634378 -292.964008 
L 167.783506 -293.490189 
L 167.932634 -294.01637 
L 168.081762 -294.542551 
L 168.230891 -295.068732 
L 168.380019 -295.594913 
L 168.529147 -296.121094 
L 168.678275 -296.647275 
L 168.827404 -297.173456 
L 168.976532 -297.699637 
L 169.12566 -298.225817 
L 169.274789 -298.751998 
L 169.423917 -299.278179 
L 169.573045 -299.80436 
L 169.722173 -300.330541 
L 169.871302 -300.856722 
L 170.02043 -301.382903 
L 170.169558 -301.909084 
L 170.318686 -302.435265 
L 170.467815 -302.961446 
L 170.616943 -303.487627 
L 170.766071 -304.013808 
L 170.9152 -304.539989 
L 171.064328 -305.06617 
L 171.213456 -305.592351 
L 171.362584 -306.118532 
L 171.511713 -306.644713 
L 171.660841 -307.170894 
L 171.809969 -307.697074 
L 171.959097 -308.223255 
L 172.108226 -308.749436 
L 172.257354 -309.275617 
L 172.406482 -309.801798 
L 172.555611 -310.327979 
L 172.704739 -310.85416 
L 172.853867 -311.380341 
L 173.002995 -311.906522 
L 173.152124 -312.432703 
L 173.301252 -312.958884 
L 173.45038 -313.485065 
L 173.599508 -314.011246 
L 173.748637 -314.537427 
L 173.897765 -315.063608 
L 174.046893 -315.589789 
L 174.196022 -316.11597 
L 174.34515 -316.642151 
L 174.494278 -317.168331 
L 174.643406 -317.694512 
L 174.792535 -318.220693 
L 174.941663 -318.746874 
L 175.090791 -319.273055 
L 175.23992 -319.799236 
L 175.389048 -320.325417 
L 175.538176 -320.851598 
L 175.687304 -321.377779 
L 175.836433 -321.90396 
L 175.985561 -322.430141 
L 176.134689 -322.956322 
L 176.283817 -323.482503 
L 176.432946 -324.008684 
L 176.582074 -324.534865 
L 176.731202 -325.061046 
L 176.880331 -325.587227 
L 177.029459 -326.113408 
L 177.178587 -326.639589 
L 177.327715 -327.165769 
L 177.476844 -327.69195 
L 177.625972 -328.218131 
L 177.7751 -328.744312 
L 177.924228 -329.270493 
L 178.073357 -329.796674 
L 178.222485 -330.322855 
L 178.371613 -330.849036 
L 178.520742 -331.375217 
L 178.66987 -331.901398 
L 178.818998 -332.427579 
L 178.968126 -332.95376 
L 179.117255 -333.479941 
L 179.266383 -334.006122 
L 179.415511 -334.532303 
L 179.564639 -335.058484 
L 179.713768 -335.584665 
L 179.862896 -336.110846 
L 180.012024 -336.637026 
L 180.161153 -337.163207 
L 180.310281 -337.689388 
L 180.459409 -338.215569 
L 180.608537 -338.74175 
L 180.757666 -339.267931 
L 180.906794 -339.794112 
L 181.055922 -340.320293 
L 181.20505 -340.846474 
L 181.354179 -341.372655 
L 181.503307 -341.898836 
L 181.652435 -342.425017 
L 181.801564 -342.951198 
L 181.950692 -343.477379 
L 182.09982 -344.00356 
L 182.248948 -344.529741 
L 182.398077 -345.055922 
L 182.547205 -345.582103 
L 182.696333 -346.108283 
L 182.696333 -59.833838 
L 182.696333 -59.833838 
L 182.547205 -59.603771 
L 182.398077 -59.373703 
L 182.248948 -59.143635 
L 182.09982 -58.913567 
L 181.950692 -58.683499 
L 181.801564 -58.453431 
L 181.652435 -58.223363 
L 181.503307 -57.993295 
L 181.354179 -57.763227 
L 181.20505 -57.533159 
L 181.055922 -57.303091 
L 180.906794 -57.073024 
L 180.757666 -56.842956 
L 180.608537 -56.612888 
L 180.459409 -56.38282 
L 180.310281 -56.152752 
L 180.161153 -55.922684 
L 180.012024 -55.692616 
L 179.862896 -55.462548 
L 179.713768 -55.23248 
L 179.564639 -55.002412 
L 179.415511 -54.772345 
L 179.266383 -54.542277 
L 179.117255 -54.312209 
L 178.968126 -54.082141 
L 178.818998 -53.852073 
L 178.66987 -53.622005 
L 178.520742 -53.391937 
L 178.371613 -53.161869 
L 178.222485 -52.931801 
L 178.073357 -52.701733 
L 177.924228 -52.471665 
L 177.7751 -52.241598 
L 177.625972 -52.01153 
L 177.476844 -51.781462 
L 177.327715 -51.551394 
L 177.178587 -51.321326 
L 177.029459 -51.091258 
L 176.880331 -50.86119 
L 176.731202 -50.631122 
L 176.582074 -50.401054 
L 176.432946 -50.170986 
L 176.283817 -49.940919 
L 176.134689 -49.710851 
L 175.985561 -49.480783 
L 175.836433 -49.250715 
L 175.687304 -49.020647 
L 175.538176 -48.790579 
L 175.389048 -48.560511 
L 175.23992 -48.330443 
L 175.090791 -48.100375 
L 174.941663 -47.870307 
L 174.792535 -47.640239 
L 174.643406 -47.410172 
L 174.494278 -47.180104 
L 174.34515 -46.950036 
L 174.196022 -46.719968 
L 174.046893 -46.4899 
L 173.897765 -46.259832 
L 173.748637 -46.029764 
L 173.599508 -45.799696 
L 173.45038 -45.569628 
L 173.301252 -45.33956 
L 173.152124 -45.109493 
L 173.002995 -44.879425 
L 172.853867 -44.649357 
L 172.704739 -44.419289 
L 172.555611 -44.189221 
L 172.406482 -43.959153 
L 172.257354 -43.729085 
L 172.108226 -43.499017 
L 171.959097 -43.268949 
L 171.809969 -43.038881 
L 171.660841 -42.808813 
L 171.511713 -42.578746 
L 171.362584 -42.348678 
L 171.213456 -42.11861 
L 171.064328 -41.888542 
L 170.9152 -41.658474 
L 170.766071 -41.428406 
L 170.616943 -41.198338 
L 170.467815 -40.96827 
L 170.318686 -40.738202 
L 170.169558 -40.508134 
L 170.02043 -40.278067 
L 169.871302 -40.047999 
L 169.722173 -39.817931 
L 169.573045 -39.587863 
L 169.423917 -39.357795 
L 169.274789 -39.127727 
L 169.12566 -38.897659 
L 168.976532 -38.667591 
L 168.827404 -38.437523 
L 168.678275 -38.207455 
L 168.529147 -37.977387 
L 168.380019 -37.74732 
L 168.230891 -37.517252 
L 168.081762 -37.287184 
L 167.932634 -37.057116 
L 167.783506 -36.827048 
L 167.634378 -36.59698 
L 167.485249 -36.366912 
L 167.336121 -36.136844 
L 167.186993 -35.906776 
L 167.037864 -35.676708 
L 166.888736 -35.446641 
L 166.739608 -35.216573 
L 166.59048 -34.986505 
L 166.441351 -34.756437 
L 166.292223 -34.526369 
L 166.143095 -34.296301 
L 165.993967 -34.066233 
L 165.844838 -33.836165 
L 165.69571 -33.606097 
L 165.546582 -33.376029 
L 165.397453 -33.145961 
L 165.248325 -32.915894 
L 165.099197 -32.685826 
L 164.950069 -32.455758 
L 164.80094 -32.22569 
L 164.651812 -31.995622 
L 164.502684 -31.765554 
L 164.353556 -31.535486 
L 164.204427 -31.305418 
L 164.055299 -31.07535 
L 163.906171 -30.845282 
L 163.757042 -30.615214 
L 163.607914 -30.385147 
L 163.458786 -30.155079 
L 163.309658 -29.925011 
L 163.160529 -29.694943 
L 163.011401 -29.464875 
L 162.862273 -29.234807 
L 162.713144 -29.004739 
L 162.564016 -28.774671 
L 162.414888 -28.544603 
L 162.26576 -28.314535 
L 162.116631 -28.084468 
L 161.967503 -27.8544 
L 161.818375 -27.624332 
L 161.669247 -27.394264 
L 161.520118 -27.164196 
L 161.37099 -26.934128 
L 161.221862 -26.70406 
L 161.072733 -26.473992 
L 160.923605 -26.243924 
L 160.774477 -26.013856 
L 160.625349 -25.783788 
L 160.47622 -25.553721 
L 160.327092 -25.323653 
L 160.177964 -25.093585 
L 160.028836 -24.863517 
L 159.879707 -24.633449 
L 159.730579 -24.403381 
L 159.581451 -24.173313 
L 159.432322 -23.943245 
L 159.283194 -23.713177 
L 159.134066 -23.483109 
L 158.984938 -23.253042 
L 158.835809 -23.022974 
L 158.686681 -22.792906 
L 158.537553 -22.562838 
L 158.388425 -22.33277 
L 158.239296 -22.102702 
L 158.090168 -21.872634 
L 157.94104 -21.642566 
L 157.791911 -21.412498 
L 157.642783 -21.18243 
L 157.493655 -20.952362 
L 157.344527 -20.722295 
L 157.195398 -20.492227 
L 157.04627 -20.262159 
L 156.897142 -20.032091 
L 156.748014 -19.802023 
L 156.598885 -19.571955 
L 156.449757 -19.341887 
L 156.300629 -19.111819 
L 156.1515 -18.881751 
L 156.002372 -18.651683 
L 155.853244 -18.421616 
L 155.704116 -18.191548 
L 155.554987 -17.96148 
L 155.405859 -17.731412 
L 155.256731 -17.501344 
L 155.107603 -17.271276 
L 154.958474 -17.041208 
L 154.809346 -16.81114 
L 154.660218 -16.581072 
L 154.511089 -16.351004 
L 154.361961 -16.120936 
L 154.212833 -15.890869 
L 154.063705 -15.660801 
L 153.914576 -15.430733 
L 153.765448 -15.200665 
L 153.61632 -14.970597 
L 153.467192 -14.740529 
L 153.318063 -14.510461 
L 153.168935 -14.280393 
L 153.019807 -14.050325 
L 152.870678 -13.820257 
L 152.72155 -13.59019 
L 152.572422 -13.360122 
L 152.423294 -13.130054 
L 152.274165 -12.899986 
L 152.125037 -12.669918 
L 151.975909 -12.43985 
L 151.82678 -12.209782 
L 151.677652 -11.979714 
L 151.528524 -11.749646 
L 151.379396 -11.519578 
L 151.230267 -11.28951 
L 151.081139 -11.059443 
L 150.932011 -10.829375 
L 150.782883 -10.599307 
L 150.633754 -10.369239 
L 150.484626 -10.139171 
L 150.335498 -9.909103 
L 150.186369 -9.679035 
L 150.037241 -9.448967 
L 149.888113 -9.218899 
L 149.738985 -8.988831 
L 149.589856 -8.758764 
L 149.440728 -8.528696 
L 149.2916 -8.298628 
L 149.142472 -8.06856 
L 148.993343 -7.838492 
L 148.844215 -7.608424 
L 148.695087 -7.378356 
L 148.545958 -7.148288 
L 148.39683 -6.91822 
L 148.247702 -6.688152 
L 148.098574 -6.458084 
L 147.949445 -6.228017 
L 147.800317 -5.997949 
L 147.651189 -5.767881 
L 147.502061 -5.537813 
L 147.352932 -5.307745 
L 147.203804 -5.077677 
L 147.054676 -4.847609 
L 146.905547 -4.617541 
L 146.756419 -4.387473 
L 146.607291 -4.157405 
L 146.458163 -3.927337 
L 146.309034 -3.69727 
L 146.159906 -3.467202 
L 146.010778 -3.237134 
L 145.86165 -3.007066 
L 145.712521 -2.776998 
L 145.563393 -2.54693 
L 145.414265 -2.316862 
L 145.265136 -2.086794 
L 145.116008 -1.856726 
L 144.96688 -1.626658 
L 144.817752 -1.396591 
L 144.668623 -1.166523 
L 144.519495 -0.936455 
L 144.370367 -0.706387 
L 144.221239 -0.476319 
L 144.07211 -0.246251 
L 143.922982 -0.016183 
L 143.773854 0.213885 
L 143.624725 0.443953 
L 143.475597 0.674021 
L 143.326469 0.904089 
L 143.177341 1.134156 
L 143.028212 1.364224 
L 142.879084 1.594292 
L 142.729956 1.82436 
L 142.580828 2.054428 
L 142.431699 2.284496 
L 142.282571 2.514564 
L 142.133443 2.744632 
L 141.984314 2.9747 
L 141.835186 3.204768 
L 141.686058 3.434835 
L 141.53693 3.664903 
L 141.387801 3.894971 
L 141.238673 4.125039 
L 141.089545 4.355107 
L 140.940416 4.585175 
L 140.791288 4.815243 
L 140.64216 5.045311 
L 140.493032 5.275379 
L 140.343903 5.505447 
L 140.194775 5.735515 
L 140.045647 5.965582 
L 139.896519 6.19565 
L 139.74739 6.425718 
L 139.598262 6.655786 
L 139.449134 6.885854 
L 139.300005 7.115922 
L 139.150877 7.34599 
L 139.001749 7.576058 
L 138.852621 7.806126 
L 138.703492 8.036194 
L 138.554364 8.266261 
L 138.405236 8.496329 
L 138.256108 8.726397 
L 138.106979 8.956465 
L 137.957851 9.186533 
L 137.808723 9.416601 
L 137.659594 9.646669 
L 137.510466 9.876737 
L 137.361338 10.106805 
L 137.21221 10.336873 
L 137.063081 10.566941 
L 136.913953 10.797008 
L 136.764825 11.027076 
L 136.615697 11.257144 
L 136.466568 11.487212 
L 136.31744 11.71728 
L 136.168312 11.947348 
L 136.019183 12.177416 
L 135.870055 12.407484 
L 135.720927 12.637552 
L 135.571799 12.86762 
L 135.42267 13.097687 
L 135.273542 13.327755 
L 135.124414 13.557823 
L 134.975286 13.787891 
L 134.826157 14.017959 
L 134.677029 14.248027 
L 134.527901 14.478095 
L 134.378772 14.708163 
L 134.229644 14.938231 
L 134.080516 15.168299 
L 133.931388 15.398367 
L 133.782259 15.628434 
L 133.633131 15.858502 
L 133.484003 16.08857 
L 133.334875 16.318638 
L 133.185746 16.548706 
L 133.036618 16.778774 
L 132.88749 17.008842 
L 132.738361 17.23891 
L 132.589233 17.468978 
L 132.440105 17.699046 
L 132.290977 17.929113 
L 132.141848 18.159181 
L 131.99272 18.389249 
L 131.843592 18.619317 
L 131.694464 18.849385 
L 131.545335 19.079453 
L 131.396207 19.309521 
L 131.247079 19.539589 
L 131.09795 19.769657 
L 130.948822 19.999725 
L 130.799694 20.229793 
L 130.650566 20.45986 
L 130.501437 20.689928 
L 130.352309 20.919996 
L 130.203181 21.150064 
L 130.054052 21.380132 
L 129.904924 21.6102 
L 129.755796 21.840268 
L 129.606668 22.070336 
L 129.457539 22.300404 
L 129.308411 22.530472 
L 129.159283 22.760539 
L 129.010155 22.990607 
L 128.861026 23.220675 
L 128.711898 23.450743 
L 128.56277 23.680811 
L 128.413641 23.910879 
L 128.264513 24.140947 
L 128.115385 24.371015 
L 127.966257 24.601083 
L 127.817128 24.831151 
L 127.668 25.061219 
L 127.518872 25.291286 
L 127.369744 25.521354 
L 127.220615 25.751422 
L 127.071487 25.98149 
L 126.922359 26.211558 
L 126.77323 26.441626 
L 126.624102 26.671694 
L 126.474974 26.901762 
L 126.325846 27.13183 
L 126.176717 27.361898 
L 126.027589 27.591966 
L 125.878461 27.822033 
L 125.729333 28.052101 
L 125.580204 28.282169 
L 125.431076 28.512237 
L 125.281948 28.742305 
L 125.132819 28.972373 
L 124.983691 29.202441 
L 124.834563 29.432509 
L 124.685435 29.662577 
L 124.536306 29.892645 
L 124.387178 30.122712 
L 124.23805 30.35278 
L 124.088922 30.582848 
L 123.939793 30.812916 
L 123.790665 31.042984 
L 123.641537 31.273052 
L 123.492408 31.50312 
L 123.34328 31.733188 
L 123.194152 31.963256 
L 123.045024 32.193324 
L 122.895895 32.423392 
L 122.746767 32.653459 
L 122.597639 32.883527 
L 122.448511 33.113595 
L 122.299382 33.343663 
L 122.150254 33.573731 
L 122.001126 33.803799 
L 121.851997 34.033867 
L 121.702869 34.263935 
L 121.553741 34.494003 
L 121.404613 34.724071 
L 121.255484 34.954138 
L 121.106356 35.184206 
L 120.957228 35.414274 
L 120.8081 35.644342 
L 120.658971 35.87441 
L 120.509843 36.104478 
L 120.360715 36.334546 
L 120.211586 36.564614 
L 120.062458 36.794682 
L 119.91333 37.02475 
L 119.764202 37.254818 
L 119.615073 37.484885 
L 119.465945 37.714953 
L 119.316817 37.945021 
L 119.167688 38.175089 
L 119.01856 38.405157 
L 118.869432 38.635225 
L 118.720304 38.865293 
L 118.571175 39.095361 
L 118.422047 39.325429 
L 118.272919 39.555497 
L 118.123791 39.785564 
L 117.974662 40.015632 
L 117.825534 40.2457 
L 117.676406 40.475768 
L 117.527277 40.705836 
L 117.378149 40.935904 
L 117.229021 41.165972 
L 117.079893 41.39604 
L 116.930764 41.626108 
L 116.781636 41.856176 
L 116.632508 42.086244 
L 116.48338 42.316311 
L 116.334251 42.546379 
L 116.185123 42.776447 
L 116.035995 43.006515 
L 115.886866 43.236583 
L 115.737738 43.466651 
L 115.58861 43.696719 
L 115.439482 43.926787 
L 115.290353 44.156855 
L 115.141225 44.386923 
L 114.992097 44.61699 
L 114.842969 44.847058 
L 114.69384 45.077126 
L 114.544712 45.307194 
L 114.395584 45.537262 
L 114.246455 45.76733 
L 114.097327 45.997398 
L 113.948199 46.227466 
L 113.799071 46.457534 
L 113.649942 46.687602 
L 113.500814 46.91767 
L 113.351686 47.147737 
L 113.202558 47.377805 
L 113.053429 47.607873 
L 112.904301 47.837941 
L 112.755173 48.068009 
L 112.606044 48.298077 
L 112.456916 48.528145 
L 112.307788 48.758213 
L 112.15866 48.988281 
L 112.009531 49.218349 
L 111.860403 49.448416 
L 111.711275 49.678484 
L 111.562147 49.908552 
L 111.413018 50.13862 
L 111.26389 50.368688 
L 111.114762 50.598756 
L 110.965633 50.828824 
L 110.816505 51.058892 
L 110.667377 51.28896 
L 110.518249 51.519028 
L 110.36912 51.749096 
L 110.219992 51.979163 
L 110.070864 52.209231 
L 109.921736 52.439299 
L 109.772607 52.669367 
L 109.623479 52.899435 
L 109.474351 53.129503 
L 109.325222 53.359571 
L 109.176094 53.589639 
L 109.026966 53.819707 
L 108.877838 54.049775 
L 108.728709 54.279842 
L 108.579581 54.50991 
L 108.430453 54.739978 
L 108.281324 54.970046 
L 108.132196 55.200114 
L 107.983068 55.430182 
L 107.83394 55.66025 
L 107.684811 55.890318 
L 107.535683 56.120386 
L 107.386555 56.350454 
L 107.237427 56.580522 
L 107.088298 56.810589 
L 106.93917 57.040657 
L 106.790042 57.270725 
L 106.640913 57.500793 
L 106.491785 57.730861 
L 106.342657 57.960929 
L 106.193529 58.190997 
L 106.0444 58.421065 
L 105.895272 58.651133 
L 105.746144 58.881201 
L 105.597016 59.111269 
L 105.447887 59.341336 
L 105.298759 59.571404 
L 105.149631 59.801472 
L 105.000502 60.03154 
L 104.851374 60.261608 
L 104.702246 60.491676 
L 104.553118 60.721744 
L 104.403989 60.951812 
L 104.254861 61.18188 
L 104.105733 61.411948 
L 103.956605 61.642015 
L 103.807476 61.872083 
L 103.658348 62.102151 
L 103.50922 62.332219 
L 103.360091 62.562287 
L 103.210963 62.792355 
L 103.061835 63.022423 
L 102.912707 63.252491 
L 102.763578 63.482559 
L 102.61445 63.712627 
L 102.465322 63.942695 
L 102.316194 64.172762 
L 102.167065 64.40283 
L 102.017937 64.632898 
L 101.868809 64.862966 
L 101.71968 65.093034 
L 101.570552 65.323102 
L 101.421424 65.55317 
L 101.272296 65.783238 
L 101.123167 66.013306 
L 100.974039 66.243374 
L 100.824911 66.473441 
L 100.675783 66.703509 
L 100.526654 66.933577 
L 100.377526 67.163645 
L 100.228398 67.393713 
L 100.079269 67.623781 
L 99.930141 67.853849 
L 99.781013 68.083917 
L 99.631885 68.313985 
L 99.482756 68.544053 
L 99.333628 68.774121 
L 99.1845 69.004188 
L 99.035372 69.234256 
L 98.886243 69.464324 
L 98.737115 69.694392 
L 98.587987 69.92446 
L 98.438858 70.154528 
L 98.28973 70.384596 
L 98.140602 70.614664 
L 97.991474 70.844732 
L 97.842345 71.0748 
L 97.693217 71.304867 
L 97.544089 71.534935 
L 97.39496 71.765003 
L 97.245832 71.995071 
L 97.096704 72.225139 
L 96.947576 72.455207 
L 96.798447 72.685275 
L 96.649319 72.915343 
L 96.500191 73.145411 
L 96.351063 73.375479 
L 96.201934 73.605547 
L 96.052806 73.835614 
L 95.903678 74.065682 
L 95.754549 74.29575 
L 95.605421 74.525818 
L 95.456293 74.755886 
L 95.307165 74.985954 
L 95.158036 75.216022 
L 95.008908 75.44609 
L 94.85978 75.676158 
L 94.710652 75.906226 
L 94.561523 76.136293 
L 94.412395 76.366361 
L 94.263267 76.596429 
L 94.114138 76.826497 
L 93.96501 77.056565 
L 93.815882 77.286633 
L 93.666754 77.516701 
L 93.517625 77.746769 
L 93.368497 77.976837 
L 93.219369 78.206905 
L 93.070241 78.436973 
L 92.921112 78.66704 
L 92.771984 78.897108 
L 92.622856 79.127176 
L 92.473727 79.357244 
L 92.324599 79.587312 
L 92.175471 79.81738 
L 92.026343 80.047448 
L 91.877214 80.277516 
L 91.728086 80.507584 
L 91.578958 80.737652 
L 91.42983 80.967719 
L 91.280701 81.197787 
L 91.131573 81.427855 
L 90.982445 81.657923 
L 90.833316 81.887991 
L 90.684188 82.118059 
L 90.53506 82.348127 
L 90.385932 82.578195 
L 90.236803 82.808263 
L 90.087675 83.038331 
L 89.938547 83.268399 
L 89.789419 83.498466 
L 89.64029 83.728534 
L 89.491162 83.958602 
L 89.342034 84.18867 
L 89.192905 84.418738 
L 89.043777 84.648806 
L 88.894649 84.878874 
L 88.745521 85.108942 
L 88.596392 85.33901 
L 88.447264 85.569078 
L 88.298136 85.799146 
L 88.149008 86.029213 
L 87.999879 86.259281 
L 87.850751 86.489349 
L 87.701623 86.719417 
L 87.552494 86.949485 
L 87.403366 87.179553 
L 87.254238 87.409621 
L 87.10511 87.639689 
L 86.955981 87.869757 
L 86.806853 88.099825 
L 86.657725 88.329892 
L 86.508596 88.55996 
L 86.359468 88.790028 
L 86.21034 89.020096 
L 86.061212 89.250164 
L 85.912083 89.480232 
L 85.762955 89.7103 
L 85.613827 89.940368 
L 85.464699 90.170436 
L 85.31557 90.400504 
L 85.166442 90.630572 
L 85.017314 90.860639 
L 84.868185 91.090707 
L 84.719057 91.320775 
L 84.569929 91.550843 
L 84.420801 91.780911 
L 84.271672 92.010979 
L 84.122544 92.241047 
L 83.973416 92.471115 
L 83.824288 92.701183 
L 83.675159 92.931251 
L 83.526031 93.161318 
L 83.376903 93.391386 
L 83.227774 93.621454 
L 83.078646 93.851522 
L 82.929518 94.08159 
L 82.78039 94.311658 
L 82.631261 94.541726 
L 82.482133 94.771794 
L 82.333005 95.001862 
L 82.183877 95.23193 
L 82.034748 95.461998 
L 81.88562 95.692065 
L 81.736492 95.922133 
L 81.587363 96.152201 
L 81.438235 96.382269 
L 81.289107 96.612337 
L 81.139979 96.842405 
L 80.99085 97.072473 
L 80.841722 97.302541 
L 80.692594 97.532609 
L 80.543466 97.762677 
L 80.394337 97.992744 
L 80.245209 98.222812 
L 80.096081 98.45288 
L 79.946952 98.682948 
L 79.797824 98.913016 
L 79.648696 99.143084 
L 79.499568 99.373152 
L 79.350439 99.60322 
L 79.201311 99.833288 
L 79.052183 100.063356 
L 78.903055 100.293424 
L 78.753926 100.523491 
L 78.604798 100.753559 
L 78.45567 100.983627 
L 78.306541 101.213695 
L 78.157413 101.443763 
L 78.008285 101.673831 
L 77.859157 101.903899 
L 77.710028 102.133967 
L 77.5609 102.364035 
L 77.411772 102.594103 
L 77.262644 102.82417 
L 77.113515 103.054238 
L 76.964387 103.284306 
L 76.815259 103.514374 
L 76.66613 103.744442 
L 76.517002 103.97451 
L 76.367874 104.204578 
L 76.218746 104.434646 
L 76.069617 104.664714 
L 75.920489 104.894782 
L 75.771361 105.12485 
L 75.622232 105.354917 
L 75.473104 105.584985 
L 75.323976 105.815053 
L 75.174848 106.045121 
L 75.025719 106.275189 
L 74.876591 106.505257 
L 74.727463 106.735325 
L 74.578335 106.965393 
L 74.429206 107.195461 
L 74.280078 107.425529 
L 74.13095 107.655596 
L 73.981821 107.885664 
L 73.832693 108.115732 
L 73.683565 108.3458 
L 73.534437 108.575868 
L 73.385308 108.805936 
L 73.23618 109.036004 
L 73.087052 109.266072 
L 72.937924 109.49614 
L 72.788795 109.726208 
L 72.639667 109.956276 
L 72.490539 110.186343 
L 72.34141 110.416411 
L 72.192282 110.646479 
L 72.043154 110.876547 
L 71.894026 111.106615 
L 71.744897 111.336683 
L 71.595769 111.566751 
L 71.446641 111.796819 
L 71.297513 112.026887 
L 71.148384 112.256955 
L 70.999256 112.487022 
L 70.850128 112.71709 
L 70.700999 112.947158 
L 70.551871 113.177226 
L 70.402743 113.407294 
L 70.253615 113.637362 
L 70.104486 113.86743 
L 69.955358 114.097498 
L 69.80623 114.327566 
L 69.657102 114.557634 
L 69.507973 114.787702 
L 69.358845 115.017769 
L 69.209717 115.247837 
L 69.060588 115.477905 
L 68.91146 115.707973 
L 68.762332 115.938041 
L 68.613204 116.168109 
L 68.464075 116.398177 
L 68.314947 116.628245 
L 68.165819 116.858313 
L 68.016691 117.088381 
L 67.867562 117.318449 
L 67.718434 117.548516 
L 67.569306 117.778584 
L 67.420177 118.008652 
L 67.271049 118.23872 
L 67.121921 118.468788 
L 66.972793 118.698856 
L 66.823664 118.928924 
L 66.674536 119.158992 
L 66.525408 119.38906 
L 66.37628 119.619128 
L 66.227151 119.849195 
L 66.078023 120.079263 
L 65.928895 120.309331 
L 65.779766 120.539399 
L 65.630638 120.769467 
L 65.48151 120.999535 
L 65.332382 121.229603 
L 65.183253 121.459671 
L 65.034125 121.689739 
L 64.884997 121.919807 
L 64.735868 122.149875 
L 64.58674 122.379942 
L 64.437612 122.61001 
L 64.288484 122.840078 
L 64.139355 123.070146 
L 63.990227 123.300214 
L 63.841099 123.530282 
L 63.691971 123.76035 
L 63.542842 123.990418 
L 63.393714 124.220486 
L 63.244586 124.450554 
L 63.095457 124.680621 
L 62.946329 124.910689 
L 62.797201 125.140757 
L 62.648073 125.370825 
L 62.498944 125.600893 
L 62.349816 125.830961 
L 62.200688 126.061029 
L 62.05156 126.291097 
L 61.902431 126.521165 
L 61.753303 126.751233 
L 61.604175 126.981301 
L 61.455046 127.211368 
L 61.305918 127.441436 
L 61.15679 127.671504 
L 61.007662 127.901572 
L 60.858533 128.13164 
L 60.709405 128.361708 
L 60.560277 128.591776 
L 60.411149 128.821844 
L 60.26202 129.051912 
L 60.112892 129.28198 
L 59.963764 129.512047 
L 59.814635 129.742115 
L 59.665507 129.972183 
L 59.516379 130.202251 
L 59.367251 130.432319 
L 59.218122 130.662387 
L 59.068994 130.892455 
L 58.919866 131.122523 
L 58.770738 131.352591 
L 58.621609 131.582659 
L 58.472481 131.812727 
L 58.323353 132.042794 
L 58.174224 132.272862 
L 58.025096 132.50293 
L 57.875968 132.732998 
L 57.72684 132.963066 
L 57.577711 133.193134 
L 57.428583 133.423202 
L 57.279455 133.65327 
L 57.130327 133.883338 
L 56.981198 134.113406 
L 56.83207 134.343473 
L 56.682942 134.573541 
L 56.533813 134.803609 
L 56.384685 135.033677 
L 56.235557 135.263745 
L 56.086429 135.493813 
L 55.9373 135.723881 
L 55.788172 135.953949 
L 55.639044 136.184017 
L 55.489916 136.414085 
L 55.340787 136.644153 
L 55.191659 136.87422 
L 55.042531 137.104288 
L 54.893402 137.334356 
L 54.744274 137.564424 
L 54.595146 137.794492 
L 54.446018 138.02456 
L 54.296889 138.254628 
L 54.147761 138.484696 
L 53.998633 138.714764 
L 53.849504 138.944832 
L 53.700376 139.174899 
L 53.551248 139.404967 
L 53.40212 139.635035 
L 53.252991 139.865103 
L 53.103863 140.095171 
L 52.954735 140.325239 
L 52.805607 140.555307 
L 52.656478 140.785375 
L 52.50735 141.015443 
L 52.358222 141.245511 
L 52.209093 141.475579 
L 52.059965 141.705646 
L 51.910837 141.935714 
L 51.761709 142.165782 
L 51.61258 142.39585 
L 51.463452 142.625918 
L 51.314324 142.855986 
L 51.165196 143.086054 
L 51.016067 143.316122 
L 50.866939 143.54619 
L 50.717811 143.776258 
L 50.568682 144.006326 
L 50.419554 144.236393 
L 50.270426 144.466461 
L 50.121298 144.696529 
L 49.972169 144.926597 
L 49.823041 145.156665 
L 49.673913 145.386733 
L 49.524785 145.616801 
L 49.375656 145.846869 
L 49.226528 146.076937 
L 49.0774 146.307005 
L 48.928271 146.537072 
L 48.779143 146.76714 
L 48.630015 146.997208 
L 48.480887 147.227276 
L 48.331758 147.457344 
L 48.18263 147.687412 
L 48.033502 147.91748 
L 47.884374 148.147548 
L 47.735245 148.377616 
L 47.586117 148.607684 
L 47.436989 148.837752 
L 47.28786 149.067819 
L 47.138732 149.297887 
L 46.989604 149.527955 
L 46.840476 149.758023 
L 46.691347 149.988091 
L 46.542219 150.218159 
L 46.393091 150.448227 
L 46.243963 150.678295 
L 46.094834 150.908363 
L 45.945706 151.138431 
L 45.796578 151.368498 
L 45.647449 151.598566 
L 45.498321 151.828634 
L 45.349193 152.058702 
L 45.200065 152.28877 
L 45.050936 152.518838 
L 44.901808 152.748906 
L 44.75268 152.978974 
L 44.603552 153.209042 
L 44.454423 153.43911 
L 44.305295 153.669178 
L 44.156167 153.899245 
L 44.007038 154.129313 
L 43.85791 154.359381 
L 43.708782 154.589449 
L 43.559654 154.819517 
L 43.410525 155.049585 
L 43.261397 155.279653 
L 43.112269 155.509721 
L 42.96314 155.739789 
L 42.814012 155.969857 
L 42.664884 156.199924 
L 42.515756 156.429992 
L 42.366627 156.66006 
L 42.217499 156.890128 
L 42.068371 157.120196 
L 41.919243 157.350264 
L 41.770114 157.580332 
L 41.620986 157.8104 
L 41.471858 158.040468 
L 41.322729 158.270536 
L 41.173601 158.500604 
L 41.024473 158.730671 
L 40.875345 158.960739 
L 40.726216 159.190807 
L 40.577088 159.420875 
L 40.42796 159.650943 
L 40.278832 159.881011 
L 40.129703 160.111079 
L 39.980575 160.341147 
L 39.831447 160.571215 
L 39.682318 160.801283 
L 39.53319 161.03135 
L 39.384062 161.261418 
L 39.234934 161.491486 
L 39.085805 161.721554 
L 38.936677 161.951622 
L 38.787549 162.18169 
L 38.638421 162.411758 
L 38.489292 162.641826 
L 38.340164 162.871894 
L 38.191036 163.101962 
L 38.041907 163.33203 
L 37.892779 163.562097 
L 37.743651 163.792165 
L 37.594523 164.022233 
L 37.445394 164.252301 
L 37.296266 164.482369 
L 37.147138 164.712437 
L 36.99801 164.942505 
L 36.848881 165.172573 
L 36.699753 165.402641 
L 36.550625 165.632709 
L 36.401496 165.862776 
L 36.252368 166.092844 
L 36.10324 166.322912 
L 35.954112 166.55298 
L 35.804983 166.783048 
L 35.655855 167.013116 
L 35.506727 167.243184 
L 35.357599 167.473252 
L 35.20847 167.70332 
L 35.059342 167.933388 
L 34.910214 168.163456 
L 34.761085 168.393523 
L 34.611957 168.623591 
L 34.462829 168.853659 
L 34.313701 169.083727 
L 34.164572 169.313795 
L 34.015444 169.543863 
L 33.866316 169.773931 
L 33.717188 170.003999 
z
" clip-path="url(#p98e7634b94)" style="fill: #84bca1; fill-opacity: 0.2; stroke: #84bca1; stroke-opacity: 0.2"/>
   </g>
   <g id="matplotlib.axis_1">
    <g id="xtick_1">
     <g id="line2d_1">
      <defs>
       <path id="m6ec4952b77" d="M 0 0 
L 0 3.5 
" style="stroke: #000000; stroke-width: 0.8"/>
      </defs>
      <g>
       <use xlink:href="#m6ec4952b77" x="48.134524" y="162.589875" style="stroke: #000000; stroke-width: 0.8"/>
      </g>
     </g>
     <g id="text_1">
      <!-- $\mathdefault{10^{1}}$ -->
      <g transform="translate(43.424524 175.777375)">
       <text>
        <tspan style="font: 6px 'Arial'" x="0 3.336914" y="-0.7996250000000007">10</tspan>
        <tspan style="font: 4.2px 'Arial'" x="6.778369" y="-4.98125">1</tspan>
       </text>
      </g>
     </g>
    </g>
    <g id="xtick_2">
     <g id="line2d_2">
      <g>
       <use xlink:href="#m6ec4952b77" x="67.35764" y="162.589875" style="stroke: #000000; stroke-width: 0.8"/>
      </g>
     </g>
     <g id="text_2">
      <!-- $\mathdefault{10^{3}}$ -->
      <g transform="translate(62.64764 175.777375)">
       <text>
        <tspan style="font: 6px 'Arial'" x="0 3.336914" y="-0.7996250000000007">10</tspan>
        <tspan style="font: 4.2px 'Arial'" x="6.778369" y="-4.98125">3</tspan>
       </text>
      </g>
     </g>
    </g>
    <g id="xtick_3">
     <g id="line2d_3">
      <g>
       <use xlink:href="#m6ec4952b77" x="86.580755" y="162.589875" style="stroke: #000000; stroke-width: 0.8"/>
      </g>
     </g>
     <g id="text_3">
      <!-- $\mathdefault{10^{5}}$ -->
      <g transform="translate(81.870755 175.717375)">
       <text>
        <tspan style="font: 6px 'Arial'" x="0 3.336914" y="-0.8543125000000007">10</tspan>
        <tspan style="font: 4.2px 'Arial'" x="6.778369" y="-5.0359375">5</tspan>
       </text>
      </g>
     </g>
    </g>
    <g id="xtick_4">
     <g id="line2d_4">
      <g>
       <use xlink:href="#m6ec4952b77" x="105.803871" y="162.589875" style="stroke: #000000; stroke-width: 0.8"/>
      </g>
     </g>
     <g id="text_4">
      <!-- $\mathdefault{10^{7}}$ -->
      <g transform="translate(101.093871 175.717375)">
       <text>
        <tspan style="font: 6px 'Arial'" x="0 3.336914" y="-0.8543125000000007">10</tspan>
        <tspan style="font: 4.2px 'Arial'" x="6.778369" y="-5.0359375">7</tspan>
       </text>
      </g>
     </g>
    </g>
    <g id="xtick_5">
     <g id="line2d_5">
      <g>
       <use xlink:href="#m6ec4952b77" x="125.026986" y="162.589875" style="stroke: #000000; stroke-width: 0.8"/>
      </g>
     </g>
     <g id="text_5">
      <!-- $\mathdefault{10^{9}}$ -->
      <g transform="translate(120.316986 175.777375)">
       <text>
        <tspan style="font: 6px 'Arial'" x="0 3.336914" y="-0.7996250000000007">10</tspan>
        <tspan style="font: 4.2px 'Arial'" x="6.778369" y="-4.98125">9</tspan>
       </text>
      </g>
     </g>
    </g>
    <g id="xtick_6">
     <g id="line2d_6">
      <g>
       <use xlink:href="#m6ec4952b77" x="144.250102" y="162.589875" style="stroke: #000000; stroke-width: 0.8"/>
      </g>
     </g>
     <g id="text_6">
      <!-- $\mathdefault{10^{11}}$ -->
      <g transform="translate(138.370102 175.777375)">
       <text>
        <tspan style="font: 6px 'Arial'" x="0 3.336914" y="-0.7996250000000007">10</tspan>
        <tspan style="font: 4.2px 'Arial'" x="6.778369 9.114209" y="-4.98125">11</tspan>
       </text>
      </g>
     </g>
    </g>
    <g id="xtick_7">
     <g id="line2d_7">
      <g>
       <use xlink:href="#m6ec4952b77" x="163.473218" y="162.589875" style="stroke: #000000; stroke-width: 0.8"/>
      </g>
     </g>
     <g id="text_7">
      <!-- $\mathdefault{10^{13}}$ -->
      <g transform="translate(157.593218 175.777375)">
       <text>
        <tspan style="font: 6px 'Arial'" x="0 3.336914" y="-0.7996250000000007">10</tspan>
        <tspan style="font: 4.2px 'Arial'" x="6.778369 9.114209" y="-4.98125">13</tspan>
       </text>
      </g>
     </g>
    </g>
    <g id="xtick_8">
     <g id="line2d_8">
      <g>
       <use xlink:href="#m6ec4952b77" x="182.696333" y="162.589875" style="stroke: #000000; stroke-width: 0.8"/>
      </g>
     </g>
     <g id="text_8">
      <!-- $\mathdefault{10^{15}}$ -->
      <g transform="translate(176.816333 175.777375)">
       <text>
        <tspan style="font: 6px 'Arial'" x="0 3.336914" y="-0.7996250000000007">10</tspan>
        <tspan style="font: 4.2px 'Arial'" x="6.778369 9.114209" y="-4.98125">15</tspan>
       </text>
      </g>
     </g>
    </g>
    <g id="text_9">
     <text style="font: 700 8px 'Arial', sans-serif; text-anchor: middle" x="108.20676" y="184.793625" transform="rotate(-0 108.20676 184.793625)">Ratio of Operating to Exchange Current</text>
    </g>
   </g>
   <g id="matplotlib.axis_2">
    <g id="ytick_1">
     <g id="line2d_9">
      <defs>
       <path id="ma5ad2e4026" d="M 0 0 
L -3.5 0 
" style="stroke: #000000; stroke-width: 0.8"/>
      </defs>
      <g>
       <use xlink:href="#ma5ad2e4026" x="33.717188" y="162.589875" style="stroke: #000000; stroke-width: 0.8"/>
      </g>
     </g>
     <g id="text_10">
      <text style="font: 6px 'Arial', sans-serif; text-anchor: end" x="26.717188" y="164.737219" transform="rotate(-0 26.717188 164.737219)">0</text>
     </g>
    </g>
    <g id="ytick_2">
     <g id="line2d_10">
      <g>
       <use xlink:href="#ma5ad2e4026" x="33.717188" y="138.68374" style="stroke: #000000; stroke-width: 0.8"/>
      </g>
     </g>
     <g id="text_11">
      <text style="font: 6px 'Arial', sans-serif; text-anchor: end" x="26.717188" y="140.831084" transform="rotate(-0 26.717188 140.831084)">20</text>
     </g>
    </g>
    <g id="ytick_3">
     <g id="line2d_11">
      <g>
       <use xlink:href="#ma5ad2e4026" x="33.717188" y="114.777606" style="stroke: #000000; stroke-width: 0.8"/>
      </g>
     </g>
     <g id="text_12">
      <text style="font: 6px 'Arial', sans-serif; text-anchor: end" x="26.717188" y="116.92495" transform="rotate(-0 26.717188 116.92495)">40</text>
     </g>
    </g>
    <g id="ytick_4">
     <g id="line2d_12">
      <g>
       <use xlink:href="#ma5ad2e4026" x="33.717188" y="90.871471" style="stroke: #000000; stroke-width: 0.8"/>
      </g>
     </g>
     <g id="text_13">
      <text style="font: 6px 'Arial', sans-serif; text-anchor: end" x="26.717188" y="93.018815" transform="rotate(-0 26.717188 93.018815)">60</text>
     </g>
    </g>
    <g id="ytick_5">
     <g id="line2d_13">
      <g>
       <use xlink:href="#ma5ad2e4026" x="33.717188" y="66.965337" style="stroke: #000000; stroke-width: 0.8"/>
      </g>
     </g>
     <g id="text_14">
      <text style="font: 6px 'Arial', sans-serif; text-anchor: end" x="26.717188" y="69.11268" transform="rotate(-0 26.717188 69.11268)">80</text>
     </g>
    </g>
    <g id="ytick_6">
     <g id="line2d_14">
      <g>
       <use xlink:href="#ma5ad2e4026" x="33.717188" y="43.059202" style="stroke: #000000; stroke-width: 0.8"/>
      </g>
     </g>
     <g id="text_15">
      <text style="font: 6px 'Arial', sans-serif; text-anchor: end" x="26.717188" y="45.206546" transform="rotate(-0 26.717188 45.206546)">100</text>
     </g>
    </g>
    <g id="ytick_7">
     <g id="line2d_15">
      <g>
       <use xlink:href="#ma5ad2e4026" x="33.717188" y="19.153067" style="stroke: #000000; stroke-width: 0.8"/>
      </g>
     </g>
     <g id="text_16">
      <text style="font: 6px 'Arial', sans-serif; text-anchor: end" x="26.717188" y="21.300411" transform="rotate(-0 26.717188 21.300411)">120</text>
     </g>
    </g>
    <g id="text_17">
     <text style="font: 700 8px 'Arial', sans-serif; text-anchor: middle" x="13.02375" y="84.894938" transform="rotate(-90 13.02375 84.894938)">Activation Energy (kJ/mol)</text>
    </g>
   </g>
   <g id="QuadContourSet_1">
    <path d="M 38.523417 7.2 
L 38.551156 162.514075 
L 38.551156 162.514075 
" clip-path="url(#p98e7634b94)" style="fill: none; stroke: #84bca1; stroke-width: 0.3"/>
    <path d="M 82.563624 7.2 
L 49.635113 123.383491 
L 38.574279 162.489967 
L 38.574279 162.489967 
" clip-path="url(#p98e7634b94)" style="fill: none; stroke: #84bca1; stroke-width: 0.3"/>
    <path d="M 143.640262 7.2 
L 135.571799 19.126841 
L 126.069754 33.174087 
L 115.8638 48.260832 
L 38.635321 162.425678 
L 38.635321 162.425678 
" clip-path="url(#p98e7634b94)" style="fill: none; stroke: #84bca1; stroke-width: 0.3"/>
    <path d="M 173.112347 7.2 
L 142.580828 42.449558 
L 130.946656 55.881972 
L 38.937019 162.111322 
L 38.937019 162.111322 
" clip-path="url(#p98e7634b94)" style="fill: none; stroke: #84bca1; stroke-width: 0.3"/>
    <path d="M 182.696333 15.147674 
L 87.354391 112.651683 
L 65.48151 135.019684 
L 57.545319 143.13624 
L 38.966422 162.111322 
L 38.966422 162.111322 
" clip-path="url(#p98e7634b94)" style="fill: none; stroke: #84bca1; stroke-width: 0.3"/>
    <path d="M 182.696333 25.469149 
L 162.98472 44.216962 
L 121.553741 83.620608 
L 95.903678 108.015894 
L 49.328012 152.312714 
L 38.99562 162.111322 
L 38.99562 162.111322 
" clip-path="url(#p98e7634b94)" style="fill: none; stroke: #84bca1; stroke-width: 0.3"/>
    <path d="M 39.328108 161.859264 
L 39.024615 162.111322 
M 182.696333 31.950229 
L 39.72279 161.489188 
L 39.72279 161.489188 
" clip-path="url(#p98e7634b94)" style="fill: none; stroke: #84bca1; stroke-width: 0.3"/>
   </g>
   <g id="patch_3">
    <path d="M 33.717188 162.589875 
L 33.717188 7.2 
" style="fill: none; stroke: #000000; stroke-linejoin: miter; stroke-linecap: square"/>
   </g>
   <g id="patch_4">
    <path d="M 182.696333 162.589875 
L 182.696333 7.2 
" style="fill: none; stroke: #000000; stroke-linejoin: miter; stroke-linecap: square"/>
   </g>
   <g id="patch_5">
    <path d="M 33.717188 162.589875 
L 182.696333 162.589875 
" style="fill: none; stroke: #000000; stroke-linejoin: miter; stroke-linecap: square"/>
   </g>
   <g id="patch_6">
    <path d="M 33.717188 7.2 
L 182.696333 7.2 
" style="fill: none; stroke: #000000; stroke-linejoin: miter; stroke-linecap: square"/>
   </g>
   <g id="PathCollection_1">
    <defs>
     <path id="mb274dcae5b" d="M 0 1.936492 
C 0.513564 1.936492 1.006162 1.732451 1.369306 1.369306 
C 1.732451 1.006162 1.936492 0.513564 1.936492 0 
C 1.936492 -0.513564 1.732451 -1.006162 1.369306 -1.369306 
C 1.006162 -1.732451 0.513564 -1.936492 0 -1.936492 
C -0.513564 -1.936492 -1.006162 -1.732451 -1.369306 -1.369306 
C -1.732451 -1.006162 -1.936492 -0.513564 -1.936492 0 
C -1.936492 0.513564 -1.732451 1.006162 -1.369306 1.369306 
C -1.006162 1.732451 -0.513564 1.936492 0 1.936492 
z
" style="stroke: #5ab4e5; stroke-width: 0.6"/>
    </defs>
    <g clip-path="url(#p98e7634b94)">
     <use xlink:href="#mb274dcae5b" x="98.444985" y="89.676164" style="fill: #5ab4e5; stroke: #5ab4e5; stroke-width: 0.6"/>
    </g>
   </g>
   <g id="PathCollection_2">
    <defs>
     <path id="m5542a2e8e6" d="M 0 1.936492 
C 0.513564 1.936492 1.006162 1.732451 1.369306 1.369306 
C 1.732451 1.006162 1.936492 0.513564 1.936492 0 
C 1.936492 -0.513564 1.732451 -1.006162 1.369306 -1.369306 
C 1.006162 -1.732451 0.513564 -1.936492 0 -1.936492 
C -0.513564 -1.936492 -1.006162 -1.732451 -1.369306 -1.369306 
C -1.732451 -1.006162 -1.936492 -0.513564 -1.936492 0 
C -1.936492 0.513564 -1.732451 1.006162 -1.369306 1.369306 
C -1.006162 1.732451 -0.513564 1.936492 0 1.936492 
z
" style="stroke: #5a4a85; stroke-width: 0.6"/>
    </defs>
    <g clip-path="url(#p98e7634b94)">
     <use xlink:href="#m5542a2e8e6" x="87.564718" y="57.64033" style="fill: #5a4a85; stroke: #5a4a85; stroke-width: 0.6"/>
    </g>
   </g>
   <g id="PathCollection_3">
    <defs>
     <path id="macd3325ea1" d="M 0 2.738613 
L 2.738613 0 
L 0 -2.738613 
L -2.738613 0 
z
" style="stroke: #d36027; stroke-width: 0.6"/>
    </defs>
    <g clip-path="url(#p98e7634b94)">
     <use xlink:href="#macd3325ea1" x="51.658434" y="142.866119" style="fill: #d36027; stroke: #d36027; stroke-width: 0.6"/>
    </g>
   </g>
   <g id="PathCollection_4">
    <defs>
     <path id="mab6c8dd24a" d="M -0 1.936492 
L 1.936492 -1.936492 
L -1.936492 -1.936492 
z
" style="stroke: #d36027; stroke-width: 0.6"/>
    </defs>
    <g clip-path="url(#p98e7634b94)">
     <use xlink:href="#mab6c8dd24a" x="57.892974" y="149.152237" style="fill: #d36027; stroke: #d36027; stroke-width: 0.6"/>
    </g>
   </g>
   <g id="PathCollection_5">
    <defs>
     <path id="ma61cc2e9e1" d="M -1.936492 1.936492 
L 1.936492 1.936492 
L 1.936492 -1.936492 
L -1.936492 -1.936492 
z
" style="stroke: #d36027; stroke-width: 0.6"/>
    </defs>
    <g clip-path="url(#p98e7634b94)">
     <use xlink:href="#ma61cc2e9e1" x="62.549773" y="114.722622" style="fill: #d36027; stroke: #d36027; stroke-width: 0.6"/>
    </g>
   </g>
   <g id="PathCollection_6">
    <defs>
     <path id="me4a9550e7c" d="M 0 -1.936492 
L -0.434769 -0.598409 
L -1.841713 -0.598409 
L -0.703472 0.228572 
L -1.138241 1.566655 
L -0 0.739674 
L 1.138241 1.566655 
L 0.703472 0.228572 
L 1.841713 -0.598409 
L 0.434769 -0.598409 
z
" style="stroke: #e5a024; stroke-width: 0.6"/>
    </defs>
    <g clip-path="url(#p98e7634b94)">
     <use xlink:href="#me4a9550e7c" x="39.053781" y="143.464967" style="fill: #e5a024; stroke: #e5a024; stroke-width: 0.6"/>
    </g>
   </g>
   <g id="PathCollection_7">
    <defs>
     <path id="mcd24e52630" d="M 0 1.936492 
C 0.513564 1.936492 1.006162 1.732451 1.369306 1.369306 
C 1.732451 1.006162 1.936492 0.513564 1.936492 0 
C 1.936492 -0.513564 1.732451 -1.006162 1.369306 -1.369306 
C 1.006162 -1.732451 0.513564 -1.936492 0 -1.936492 
C -0.513564 -1.936492 -1.006162 -1.732451 -1.369306 -1.369306 
C -1.732451 -1.006162 -1.936492 -0.513564 -1.936492 0 
C -1.936492 0.513564 -1.732451 1.006162 -1.369306 1.369306 
C -1.006162 1.732451 -0.513564 1.936492 0 1.936492 
z
" style="stroke: #e5a024; stroke-width: 0.6"/>
    </defs>
    <g clip-path="url(#p98e7634b94)">
     <use xlink:href="#mcd24e52630" x="44.321686" y="139.879047" style="fill: #e5a024; stroke: #e5a024; stroke-width: 0.6"/>
    </g>
   </g>
   <g id="PathCollection_8">
    <defs>
     <path id="m0ccb50a777" d="M -0.645497 1.936492 
L 0.645497 1.936492 
L 0.645497 0.645497 
L 1.936492 0.645497 
L 1.936492 -0.645497 
L 0.645497 -0.645497 
L 0.645497 -1.936492 
L -0.645497 -1.936492 
L -0.645497 -0.645497 
L -1.936492 -0.645497 
L -1.936492 0.645497 
L -0.645497 0.645497 
z
" style="stroke: #e5a024; stroke-width: 0.6"/>
    </defs>
    <g clip-path="url(#p98e7634b94)">
     <use xlink:href="#m0ccb50a777" x="55.663201" y="125.535366" style="fill: #e5a024; stroke: #e5a024; stroke-width: 0.6"/>
    </g>
   </g>
   <g id="PathCollection_9">
    <defs>
     <path id="m4d7189b939" d="M -1.936492 1.936492 
L 1.936492 -1.936492 
M -1.936492 -1.936492 
L 1.936492 1.936492 
" style="stroke: #e5a024; stroke-width: 0.6"/>
    </defs>
    <g clip-path="url(#p98e7634b94)">
     <use xlink:href="#m4d7189b939" x="53.288663" y="129.121287" style="fill: #e5a024; stroke: #e5a024; stroke-width: 0.6"/>
    </g>
   </g>
   <g id="PathCollection_10">
    <defs>
     <path id="me634579403" d="M 0 1.936492 
C 0.513564 1.936492 1.006162 1.732451 1.369306 1.369306 
C 1.732451 1.006162 1.936492 0.513564 1.936492 0 
C 1.936492 -0.513564 1.732451 -1.006162 1.369306 -1.369306 
C 1.006162 -1.732451 0.513564 -1.936492 0 -1.936492 
C -0.513564 -1.936492 -1.006162 -1.732451 -1.369306 -1.369306 
C -1.732451 -1.006162 -1.936492 -0.513564 -1.936492 0 
C -1.936492 0.513564 -1.732451 1.006162 -1.369306 1.369306 
C -1.006162 1.732451 -0.513564 1.936492 0 1.936492 
z
" style="stroke: #cc79a7; stroke-width: 0.6"/>
    </defs>
    <g clip-path="url(#p98e7634b94)">
     <use xlink:href="#me634579403" x="92.977175" y="82.504324" style="fill: #ffffff; stroke: #cc79a7; stroke-width: 0.6"/>
    </g>
   </g>
   <g id="PathCollection_11">
    <defs>
     <path id="m05df7e7e1b" d="M 0 2.738613 
L 2.738613 0 
L 0 -2.738613 
L -2.738613 0 
z
" style="stroke: #cc79a7; stroke-width: 0.6"/>
    </defs>
    <g clip-path="url(#p98e7634b94)">
     <use xlink:href="#m05df7e7e1b" x="111.787956" y="82.237384" style="fill: #cc79a7; stroke: #cc79a7; stroke-width: 0.6"/>
    </g>
   </g>
   <g id="PathCollection_12">
    <defs>
     <path id="m7cb0c26486" d="M -0 1.936492 
L 1.936492 -1.936492 
L -1.936492 -1.936492 
z
" style="stroke: #cc79a7; stroke-width: 0.6"/>
    </defs>
    <g clip-path="url(#p98e7634b94)">
     <use xlink:href="#m7cb0c26486" x="112.976075" y="84.622451" style="fill: #cc79a7; stroke: #cc79a7; stroke-width: 0.6"/>
    </g>
   </g>
   <g id="PathCollection_13">
    <defs>
     <path id="mac797fdf8c" d="M -1.936492 1.936492 
L 1.936492 1.936492 
L 1.936492 -1.936492 
L -1.936492 -1.936492 
z
" style="stroke: #cc79a7; stroke-width: 0.6"/>
    </defs>
    <g clip-path="url(#p98e7634b94)">
     <use xlink:href="#mac797fdf8c" x="114.345592" y="71.405204" style="fill: #cc79a7; stroke: #cc79a7; stroke-width: 0.6"/>
    </g>
   </g>
   <g id="PathCollection_14">
    <defs>
     <path id="m6b947d9b23" d="M -1.936492 1.936492 
L 1.936492 1.936492 
L 1.936492 -1.936492 
L -1.936492 -1.936492 
z
" style="stroke: #e5a024; stroke-width: 0.6"/>
    </defs>
    <g clip-path="url(#p98e7634b94)">
     <use xlink:href="#m6b947d9b23" x="55.64814" y="135.757869" style="fill: #ffffff; stroke: #e5a024; stroke-width: 0.6"/>
    </g>
   </g>
   <g id="PathCollection_15">
    <defs>
     <path id="mdd5a7348fc" d="M -0 1.936492 
L 1.936492 -1.936492 
L -1.936492 -1.936492 
z
" style="stroke: #e5a024; stroke-width: 0.6"/>
    </defs>
    <g clip-path="url(#p98e7634b94)">
     <use xlink:href="#mdd5a7348fc" x="56.590342" y="137.238598" style="fill: #ffffff; stroke: #e5a024; stroke-width: 0.6"/>
    </g>
   </g>
   <g id="PathCollection_16">
    <defs>
     <path id="m1776212755" d="M 0 2.738613 
L 2.738613 0 
L 0 -2.738613 
L -2.738613 0 
z
" style="stroke: #e5a024; stroke-width: 0.6"/>
    </defs>
    <g clip-path="url(#p98e7634b94)">
     <use xlink:href="#m1776212755" x="57.896975" y="129.407627" style="fill: #ffffff; stroke: #e5a024; stroke-width: 0.6"/>
    </g>
   </g>
   <g id="PathCollection_17">
    <defs>
     <path id="m2bcdbdc0e2" d="M 0 -1.936492 
L -1.936492 1.936492 
L 1.936492 1.936492 
z
" style="stroke: #e5a024; stroke-width: 0.6"/>
    </defs>
    <g clip-path="url(#p98e7634b94)">
     <use xlink:href="#m2bcdbdc0e2" x="59.059762" y="121.934416" style="fill: #ffffff; stroke: #e5a024; stroke-width: 0.6"/>
    </g>
   </g>
   <g id="PathCollection_18">
    <defs>
     <path id="mc1fcb9daa1" d="M 0 1.936492 
C 0.513564 1.936492 1.006162 1.732451 1.369306 1.369306 
C 1.732451 1.006162 1.936492 0.513564 1.936492 0 
C 1.936492 -0.513564 1.732451 -1.006162 1.369306 -1.369306 
C 1.006162 -1.732451 0.513564 -1.936492 0 -1.936492 
C -0.513564 -1.936492 -1.006162 -1.732451 -1.369306 -1.369306 
C -1.732451 -1.006162 -1.936492 -0.513564 -1.936492 0 
C -1.936492 0.513564 -1.732451 1.006162 -1.369306 1.369306 
C -1.006162 1.732451 -0.513564 1.936492 0 1.936492 
z
" style="stroke: #e5a024; stroke-width: 0.6"/>
    </defs>
    <g clip-path="url(#p98e7634b94)">
     <use xlink:href="#mc1fcb9daa1" x="67.669554" y="109.720885" style="fill: #ffffff; stroke: #e5a024; stroke-width: 0.6"/>
    </g>
   </g>
   <g id="PathCollection_19">
    <defs>
     <path id="m9827480b62" d="M 0 1.936492 
C 0.513564 1.936492 1.006162 1.732451 1.369306 1.369306 
C 1.732451 1.006162 1.936492 0.513564 1.936492 0 
C 1.936492 -0.513564 1.732451 -1.006162 1.369306 -1.369306 
C 1.006162 -1.732451 0.513564 -1.936492 0 -1.936492 
C -0.513564 -1.936492 -1.006162 -1.732451 -1.369306 -1.369306 
C -1.732451 -1.006162 -1.936492 -0.513564 -1.936492 0 
C -1.936492 0.513564 -1.732451 1.006162 -1.369306 1.369306 
C -1.006162 1.732451 -0.513564 1.936492 0 1.936492 
z
" style="stroke: #0073b2; stroke-width: 0.6"/>
    </defs>
    <g clip-path="url(#p98e7634b94)">
     <use xlink:href="#m9827480b62" x="172.12362" y="25.129601" style="fill: #0073b2; stroke: #0073b2; stroke-width: 0.6"/>
    </g>
   </g>
   <g id="PathCollection_20">
    <defs>
     <path id="mcea2cd92f8" d="M 0 1.118034 
C 0.296506 1.118034 0.580908 1.000231 0.790569 0.790569 
C 1.000231 0.580908 1.118034 0.296506 1.118034 0 
C 1.118034 -0.296506 1.000231 -0.580908 0.790569 -0.790569 
C 0.580908 -1.000231 0.296506 -1.118034 0 -1.118034 
C -0.296506 -1.118034 -0.580908 -1.000231 -0.790569 -0.790569 
C -1.000231 -0.580908 -1.118034 -0.296506 -1.118034 0 
C -1.118034 0.296506 -1.000231 0.580908 -0.790569 0.790569 
C -0.580908 1.000231 -0.296506 1.118034 0 1.118034 
z
" style="stroke: #5ab4e5; stroke-width: 0.6"/>
    </defs>
    <g clip-path="url(#p98e7634b94)">
     <use xlink:href="#mcea2cd92f8" x="108.056543" y="89.676164" style="fill: #5ab4e5; stroke: #5ab4e5; stroke-width: 0.6"/>
    </g>
   </g>
   <g id="PathCollection_21">
    <defs>
     <path id="m42dfbcd01f" d="M 0 1.118034 
C 0.296506 1.118034 0.580908 1.000231 0.790569 0.790569 
C 1.000231 0.580908 1.118034 0.296506 1.118034 0 
C 1.118034 -0.296506 1.000231 -0.580908 0.790569 -0.790569 
C 0.580908 -1.000231 0.296506 -1.118034 0 -1.118034 
C -0.296506 -1.118034 -0.580908 -1.000231 -0.790569 -0.790569 
C -1.000231 -0.580908 -1.118034 -0.296506 -1.118034 0 
C -1.118034 0.296506 -1.000231 0.580908 -0.790569 0.790569 
C -0.580908 1.000231 -0.296506 1.118034 0 1.118034 
z
" style="stroke: #5a4a85; stroke-width: 0.6"/>
    </defs>
    <g clip-path="url(#p98e7634b94)">
     <use xlink:href="#m42dfbcd01f" x="97.176276" y="57.64033" style="fill: #5a4a85; stroke: #5a4a85; stroke-width: 0.6"/>
    </g>
   </g>
   <g id="PathCollection_22">
    <defs>
     <path id="m9b9ea601d7" d="M 0 1.581139 
L 1.581139 0 
L 0 -1.581139 
L -1.581139 0 
z
" style="stroke: #d36027; stroke-width: 0.6"/>
    </defs>
    <g clip-path="url(#p98e7634b94)">
     <use xlink:href="#m9b9ea601d7" x="61.269992" y="142.866119" style="fill: #d36027; stroke: #d36027; stroke-width: 0.6"/>
    </g>
   </g>
   <g id="PathCollection_23">
    <defs>
     <path id="m0620b83080" d="M -0 1.118034 
L 1.118034 -1.118034 
L -1.118034 -1.118034 
z
" style="stroke: #d36027; stroke-width: 0.6"/>
    </defs>
    <g clip-path="url(#p98e7634b94)">
     <use xlink:href="#m0620b83080" x="67.504531" y="149.152237" style="fill: #d36027; stroke: #d36027; stroke-width: 0.6"/>
    </g>
   </g>
   <g id="PathCollection_24">
    <defs>
     <path id="m1225389760" d="M -1.118034 1.118034 
L 1.118034 1.118034 
L 1.118034 -1.118034 
L -1.118034 -1.118034 
z
" style="stroke: #d36027; stroke-width: 0.6"/>
    </defs>
    <g clip-path="url(#p98e7634b94)">
     <use xlink:href="#m1225389760" x="72.16133" y="114.722622" style="fill: #d36027; stroke: #d36027; stroke-width: 0.6"/>
    </g>
   </g>
   <g id="PathCollection_25">
    <defs>
     <path id="m84da4e779b" d="M 0 -1.118034 
L -0.251014 -0.345491 
L -1.063314 -0.345492 
L -0.40615 0.131966 
L -0.657164 0.904508 
L -0 0.427051 
L 0.657164 0.904508 
L 0.40615 0.131966 
L 1.063314 -0.345492 
L 0.251014 -0.345491 
z
" style="stroke: #e5a024; stroke-width: 0.6"/>
    </defs>
    <g clip-path="url(#p98e7634b94)">
     <use xlink:href="#m84da4e779b" x="48.665339" y="143.464967" style="fill: #e5a024; stroke: #e5a024; stroke-width: 0.6"/>
    </g>
   </g>
   <g id="PathCollection_26">
    <defs>
     <path id="m0ca7bcd14e" d="M 0 1.118034 
C 0.296506 1.118034 0.580908 1.000231 0.790569 0.790569 
C 1.000231 0.580908 1.118034 0.296506 1.118034 0 
C 1.118034 -0.296506 1.000231 -0.580908 0.790569 -0.790569 
C 0.580908 -1.000231 0.296506 -1.118034 0 -1.118034 
C -0.296506 -1.118034 -0.580908 -1.000231 -0.790569 -0.790569 
C -1.000231 -0.580908 -1.118034 -0.296506 -1.118034 0 
C -1.118034 0.296506 -1.000231 0.580908 -0.790569 0.790569 
C -0.580908 1.000231 -0.296506 1.118034 0 1.118034 
z
" style="stroke: #e5a024; stroke-width: 0.6"/>
    </defs>
    <g clip-path="url(#p98e7634b94)">
     <use xlink:href="#m0ca7bcd14e" x="53.933244" y="139.879047" style="fill: #e5a024; stroke: #e5a024; stroke-width: 0.6"/>
    </g>
   </g>
   <g id="PathCollection_27">
    <defs>
     <path id="mdb5325a6cc" d="M -0.372678 1.118034 
L 0.372678 1.118034 
L 0.372678 0.372678 
L 1.118034 0.372678 
L 1.118034 -0.372678 
L 0.372678 -0.372678 
L 0.372678 -1.118034 
L -0.372678 -1.118034 
L -0.372678 -0.372678 
L -1.118034 -0.372678 
L -1.118034 0.372678 
L -0.372678 0.372678 
z
" style="stroke: #e5a024; stroke-width: 0.6"/>
    </defs>
    <g clip-path="url(#p98e7634b94)">
     <use xlink:href="#mdb5325a6cc" x="65.274759" y="125.535366" style="fill: #e5a024; stroke: #e5a024; stroke-width: 0.6"/>
    </g>
   </g>
   <g id="PathCollection_28">
    <defs>
     <path id="m43dc26bc35" d="M -1.118034 1.118034 
L 1.118034 -1.118034 
M -1.118034 -1.118034 
L 1.118034 1.118034 
" style="stroke: #e5a024; stroke-width: 0.6"/>
    </defs>
    <g clip-path="url(#p98e7634b94)">
     <use xlink:href="#m43dc26bc35" x="62.900221" y="129.121287" style="fill: #e5a024; stroke: #e5a024; stroke-width: 0.6"/>
    </g>
   </g>
   <g id="PathCollection_29">
    <defs>
     <path id="mb2c9f94d18" d="M 0 1.118034 
C 0.296506 1.118034 0.580908 1.000231 0.790569 0.790569 
C 1.000231 0.580908 1.118034 0.296506 1.118034 0 
C 1.118034 -0.296506 1.000231 -0.580908 0.790569 -0.790569 
C 0.580908 -1.000231 0.296506 -1.118034 0 -1.118034 
C -0.296506 -1.118034 -0.580908 -1.000231 -0.790569 -0.790569 
C -1.000231 -0.580908 -1.118034 -0.296506 -1.118034 0 
C -1.118034 0.296506 -1.000231 0.580908 -0.790569 0.790569 
C -0.580908 1.000231 -0.296506 1.118034 0 1.118034 
z
" style="stroke: #cc79a7; stroke-width: 0.6"/>
    </defs>
    <g clip-path="url(#p98e7634b94)">
     <use xlink:href="#mb2c9f94d18" x="102.588732" y="82.504324" style="fill: #ffffff; stroke: #cc79a7; stroke-width: 0.6"/>
    </g>
   </g>
   <g id="PathCollection_30">
    <defs>
     <path id="m4e57ff1df4" d="M 0 1.581139 
L 1.581139 0 
L 0 -1.581139 
L -1.581139 0 
z
" style="stroke: #cc79a7; stroke-width: 0.6"/>
    </defs>
    <g clip-path="url(#p98e7634b94)">
     <use xlink:href="#m4e57ff1df4" x="121.399513" y="82.237384" style="fill: #cc79a7; stroke: #cc79a7; stroke-width: 0.6"/>
    </g>
   </g>
   <g id="PathCollection_31">
    <defs>
     <path id="maf5bf203be" d="M -0 1.118034 
L 1.118034 -1.118034 
L -1.118034 -1.118034 
z
" style="stroke: #cc79a7; stroke-width: 0.6"/>
    </defs>
    <g clip-path="url(#p98e7634b94)">
     <use xlink:href="#maf5bf203be" x="122.587633" y="84.622451" style="fill: #cc79a7; stroke: #cc79a7; stroke-width: 0.6"/>
    </g>
   </g>
   <g id="PathCollection_32">
    <g clip-path="url(#p98e7634b94)">
     <use xlink:href="#mac797fdf8c" x="114.345592" y="71.405204" style="fill: #cc79a7; stroke: #cc79a7; stroke-width: 0.6"/>
    </g>
   </g>
   <g id="PathCollection_33">
    <defs>
     <path id="m5dc15c4fb7" d="M -1.118034 1.118034 
L 1.118034 1.118034 
L 1.118034 -1.118034 
L -1.118034 -1.118034 
z
" style="stroke: #e5a024; stroke-width: 0.6"/>
    </defs>
    <g clip-path="url(#p98e7634b94)">
     <use xlink:href="#m5dc15c4fb7" x="65.259698" y="135.757869" style="fill: #ffffff; stroke: #e5a024; stroke-width: 0.6"/>
    </g>
   </g>
   <g id="PathCollection_34">
    <defs>
     <path id="mcaf5dd8285" d="M -0 1.118034 
L 1.118034 -1.118034 
L -1.118034 -1.118034 
z
" style="stroke: #e5a024; stroke-width: 0.6"/>
    </defs>
    <g clip-path="url(#p98e7634b94)">
     <use xlink:href="#mcaf5dd8285" x="66.2019" y="137.238598" style="fill: #ffffff; stroke: #e5a024; stroke-width: 0.6"/>
    </g>
   </g>
   <g id="PathCollection_35">
    <defs>
     <path id="me3ea7573db" d="M 0 1.581139 
L 1.581139 0 
L 0 -1.581139 
L -1.581139 0 
z
" style="stroke: #e5a024; stroke-width: 0.6"/>
    </defs>
    <g clip-path="url(#p98e7634b94)">
     <use xlink:href="#me3ea7573db" x="67.508533" y="129.407627" style="fill: #ffffff; stroke: #e5a024; stroke-width: 0.6"/>
    </g>
   </g>
   <g id="PathCollection_36">
    <defs>
     <path id="m831731915d" d="M 0 -1.118034 
L -1.118034 1.118034 
L 1.118034 1.118034 
z
" style="stroke: #e5a024; stroke-width: 0.6"/>
    </defs>
    <g clip-path="url(#p98e7634b94)">
     <use xlink:href="#m831731915d" x="68.67132" y="121.934416" style="fill: #ffffff; stroke: #e5a024; stroke-width: 0.6"/>
    </g>
   </g>
   <g id="PathCollection_37">
    <defs>
     <path id="m05549db6e7" d="M 0 1.118034 
C 0.296506 1.118034 0.580908 1.000231 0.790569 0.790569 
C 1.000231 0.580908 1.118034 0.296506 1.118034 0 
C 1.118034 -0.296506 1.000231 -0.580908 0.790569 -0.790569 
C 0.580908 -1.000231 0.296506 -1.118034 0 -1.118034 
C -0.296506 -1.118034 -0.580908 -1.000231 -0.790569 -0.790569 
C -1.000231 -0.580908 -1.118034 -0.296506 -1.118034 0 
C -1.118034 0.296506 -1.000231 0.580908 -0.790569 0.790569 
C -0.580908 1.000231 -0.296506 1.118034 0 1.118034 
z
" style="stroke: #e5a024; stroke-width: 0.6"/>
    </defs>
    <g clip-path="url(#p98e7634b94)">
     <use xlink:href="#m05549db6e7" x="77.281112" y="109.720885" style="fill: #ffffff; stroke: #e5a024; stroke-width: 0.6"/>
    </g>
   </g>
   <g id="PathCollection_38">
    <defs>
     <path id="m75214a829e" d="M 0 1.118034 
C 0.296506 1.118034 0.580908 1.000231 0.790569 0.790569 
C 1.000231 0.580908 1.118034 0.296506 1.118034 0 
C 1.118034 -0.296506 1.000231 -0.580908 0.790569 -0.790569 
C 0.580908 -1.000231 0.296506 -1.118034 0 -1.118034 
C -0.296506 -1.118034 -0.580908 -1.000231 -0.790569 -0.790569 
C -1.000231 -0.580908 -1.118034 -0.296506 -1.118034 0 
C -1.118034 0.296506 -1.000231 0.580908 -0.790569 0.790569 
C -0.580908 1.000231 -0.296506 1.118034 0 1.118034 
z
" style="stroke: #0073b2; stroke-width: 0.6"/>
    </defs>
    <g clip-path="url(#p98e7634b94)">
     <use xlink:href="#m75214a829e" x="181.735177" y="25.129601" style="fill: #0073b2; stroke: #0073b2; stroke-width: 0.6"/>
    </g>
   </g>
   <g id="PathCollection_39">
    <g clip-path="url(#p98e7634b94)">
     <use xlink:href="#mcea2cd92f8" x="88.833428" y="89.676164" style="fill: #5ab4e5; stroke: #5ab4e5; stroke-width: 0.6"/>
    </g>
   </g>
   <g id="PathCollection_40">
    <g clip-path="url(#p98e7634b94)">
     <use xlink:href="#m42dfbcd01f" x="77.953161" y="57.64033" style="fill: #5a4a85; stroke: #5a4a85; stroke-width: 0.6"/>
    </g>
   </g>
   <g id="PathCollection_41">
    <g clip-path="url(#p98e7634b94)">
     <use xlink:href="#m9b9ea601d7" x="42.046876" y="142.866119" style="fill: #d36027; stroke: #d36027; stroke-width: 0.6"/>
    </g>
   </g>
   <g id="PathCollection_42">
    <g clip-path="url(#p98e7634b94)">
     <use xlink:href="#m0620b83080" x="48.281416" y="149.152237" style="fill: #d36027; stroke: #d36027; stroke-width: 0.6"/>
    </g>
   </g>
   <g id="PathCollection_43">
    <g clip-path="url(#p98e7634b94)">
     <use xlink:href="#m1225389760" x="52.938215" y="114.722622" style="fill: #d36027; stroke: #d36027; stroke-width: 0.6"/>
    </g>
   </g>
   <g id="PathCollection_44">
    <g clip-path="url(#p98e7634b94)">
     <use xlink:href="#m84da4e779b" x="29.442223" y="143.464967" style="fill: #e5a024; stroke: #e5a024; stroke-width: 0.6"/>
    </g>
   </g>
   <g id="PathCollection_45">
    <g clip-path="url(#p98e7634b94)">
     <use xlink:href="#m0ca7bcd14e" x="34.710128" y="139.879047" style="fill: #e5a024; stroke: #e5a024; stroke-width: 0.6"/>
    </g>
   </g>
   <g id="PathCollection_46">
    <g clip-path="url(#p98e7634b94)">
     <use xlink:href="#mdb5325a6cc" x="46.051643" y="125.535366" style="fill: #e5a024; stroke: #e5a024; stroke-width: 0.6"/>
    </g>
   </g>
   <g id="PathCollection_47">
    <g clip-path="url(#p98e7634b94)">
     <use xlink:href="#m43dc26bc35" x="43.677106" y="129.121287" style="fill: #e5a024; stroke: #e5a024; stroke-width: 0.6"/>
    </g>
   </g>
   <g id="PathCollection_48">
    <g clip-path="url(#p98e7634b94)">
     <use xlink:href="#mb2c9f94d18" x="83.365617" y="82.504324" style="fill: #ffffff; stroke: #cc79a7; stroke-width: 0.6"/>
    </g>
   </g>
   <g id="PathCollection_49">
    <g clip-path="url(#p98e7634b94)">
     <use xlink:href="#m4e57ff1df4" x="102.176398" y="82.237384" style="fill: #cc79a7; stroke: #cc79a7; stroke-width: 0.6"/>
    </g>
   </g>
   <g id="PathCollection_50">
    <g clip-path="url(#p98e7634b94)">
     <use xlink:href="#maf5bf203be" x="103.364517" y="84.622451" style="fill: #cc79a7; stroke: #cc79a7; stroke-width: 0.6"/>
    </g>
   </g>
   <g id="PathCollection_51">
    <g clip-path="url(#p98e7634b94)">
     <use xlink:href="#mac797fdf8c" x="114.345592" y="71.405204" style="fill: #cc79a7; stroke: #cc79a7; stroke-width: 0.6"/>
    </g>
   </g>
   <g id="PathCollection_52">
    <g clip-path="url(#p98e7634b94)">
     <use xlink:href="#m5dc15c4fb7" x="46.036582" y="135.757869" style="fill: #ffffff; stroke: #e5a024; stroke-width: 0.6"/>
    </g>
   </g>
   <g id="PathCollection_53">
    <g clip-path="url(#p98e7634b94)">
     <use xlink:href="#mcaf5dd8285" x="46.978784" y="137.238598" style="fill: #ffffff; stroke: #e5a024; stroke-width: 0.6"/>
    </g>
   </g>
   <g id="PathCollection_54">
    <g clip-path="url(#p98e7634b94)">
     <use xlink:href="#me3ea7573db" x="48.285417" y="129.407627" style="fill: #ffffff; stroke: #e5a024; stroke-width: 0.6"/>
    </g>
   </g>
   <g id="PathCollection_55">
    <g clip-path="url(#p98e7634b94)">
     <use xlink:href="#m831731915d" x="49.448204" y="121.934416" style="fill: #ffffff; stroke: #e5a024; stroke-width: 0.6"/>
    </g>
   </g>
   <g id="PathCollection_56">
    <g clip-path="url(#p98e7634b94)">
     <use xlink:href="#m05549db6e7" x="58.057996" y="109.720885" style="fill: #ffffff; stroke: #e5a024; stroke-width: 0.6"/>
    </g>
   </g>
   <g id="PathCollection_57">
    <g clip-path="url(#p98e7634b94)">
     <use xlink:href="#m75214a829e" x="162.512062" y="25.129601" style="fill: #0073b2; stroke: #0073b2; stroke-width: 0.6"/>
    </g>
   </g>
  </g>
 </g>
 <defs>
  <clipPath id="p98e7634b94">
   <rect x="33.717188" y="7.2" width="148.979146" height="155.389875"/>
  </clipPath>
 </defs>
</svg>
