<?xml version="1.0" encoding="utf-8" standalone="no"?>
<!DOCTYPE svg PUBLIC "-//W3C//DTD SVG 1.1//EN"
  "http://www.w3.org/Graphics/SVG/1.1/DTD/svg11.dtd">
<svg xmlns:xlink="http://www.w3.org/1999/xlink" width="249.036127pt" height="183.927188pt" viewBox="0 0 249.036127 183.927188" xmlns="http://www.w3.org/2000/svg" version="1.1">
 <metadata>
  <rdf:RDF xmlns:dc="http://purl.org/dc/elements/1.1/" xmlns:cc="http://creativecommons.org/ns#" xmlns:rdf="http://www.w3.org/1999/02/22-rdf-syntax-ns#">
   <cc:Work>
    <dc:type rdf:resource="http://purl.org/dc/dcmitype/StillImage"/>
    <dc:date>2025-09-18T14:28:50.607976</dc:date>
    <dc:format>image/svg+xml</dc:format>
    <dc:creator>
     <cc:Agent>
      <dc:title>Matplotlib v3.9.2, https://matplotlib.org/</dc:title>
     </cc:Agent>
    </dc:creator>
   </cc:Work>
  </rdf:RDF>
 </metadata>
 <defs>
  <style type="text/css">*{stroke-linejoin: round; stroke-linecap: butt}</style>
 </defs>
 <g id="figure_1">
  <g id="patch_1">
   <path d="M 0 183.927188 
L 249.036127 183.927188 
L 249.036127 0 
L 0 0 
z
" style="fill: #ffffff"/>
  </g>
  <g id="axes_1">
   <g id="patch_2">
    <path d="M 30.275625 154.7325 
L 240.881394 154.7325 
L 240.881394 7.2 
L 30.275625 7.2 
z
" style="fill: #ffffff"/>
   </g>
   <g id="patch_3">
    <path d="M 34.325736 154.7325 
L 44.451013 154.7325 
L 44.451013 144.897 
L 34.325736 144.897 
z
" clip-path="url(#p47fe54662e)" style="fill: #f0e442; fill-opacity: 0.75; stroke: #000000; stroke-width: 0.887727; stroke-linejoin: miter"/>
   </g>
   <g id="patch_4">
    <path d="M 44.451013 154.7325 
L 54.576291 154.7325 
L 54.576291 66.213 
L 44.451013 66.213 
z
" clip-path="url(#p47fe54662e)" style="fill: #f0e442; fill-opacity: 0.75; stroke: #000000; stroke-width: 0.887727; stroke-linejoin: miter"/>
   </g>
   <g id="patch_5">
    <path d="M 54.576291 154.7325 
L 64.701568 154.7325 
L 64.701568 36.7065 
L 54.576291 36.7065 
z
" clip-path="url(#p47fe54662e)" style="fill: #f0e442; fill-opacity: 0.75; stroke: #000000; stroke-width: 0.887727; stroke-linejoin: miter"/>
   </g>
   <g id="patch_6">
    <path d="M 64.701568 154.7325 
L 74.826845 154.7325 
L 74.826845 46.542 
L 64.701568 46.542 
z
" clip-path="url(#p47fe54662e)" style="fill: #f0e442; fill-opacity: 0.75; stroke: #000000; stroke-width: 0.887727; stroke-linejoin: miter"/>
   </g>
   <g id="patch_7">
    <path d="M 74.826845 154.7325 
L 84.952123 154.7325 
L 84.952123 56.3775 
L 74.826845 56.3775 
z
" clip-path="url(#p47fe54662e)" style="fill: #f0e442; fill-opacity: 0.75; stroke: #000000; stroke-width: 0.887727; stroke-linejoin: miter"/>
   </g>
   <g id="patch_8">
    <path d="M 84.952123 154.7325 
L 95.0774 154.7325 
L 95.0774 105.555 
L 84.952123 105.555 
z
" clip-path="url(#p47fe54662e)" style="fill: #f0e442; fill-opacity: 0.75; stroke: #000000; stroke-width: 0.887727; stroke-linejoin: miter"/>
   </g>
   <g id="patch_9">
    <path d="M 95.0774 154.7325 
L 105.202678 154.7325 
L 105.202678 76.0485 
L 95.0774 76.0485 
z
" clip-path="url(#p47fe54662e)" style="fill: #f0e442; fill-opacity: 0.75; stroke: #000000; stroke-width: 0.887727; stroke-linejoin: miter"/>
   </g>
   <g id="patch_10">
    <path d="M 105.202678 154.7325 
L 115.327955 154.7325 
L 115.327955 115.3905 
L 105.202678 115.3905 
z
" clip-path="url(#p47fe54662e)" style="fill: #f0e442; fill-opacity: 0.75; stroke: #000000; stroke-width: 0.887727; stroke-linejoin: miter"/>
   </g>
   <g id="patch_11">
    <path d="M 115.327955 154.7325 
L 125.453232 154.7325 
L 125.453232 85.884 
L 115.327955 85.884 
z
" clip-path="url(#p47fe54662e)" style="fill: #f0e442; fill-opacity: 0.75; stroke: #000000; stroke-width: 0.887727; stroke-linejoin: miter"/>
   </g>
   <g id="patch_12">
    <path d="M 125.453232 154.7325 
L 135.57851 154.7325 
L 135.57851 115.3905 
L 125.453232 115.3905 
z
" clip-path="url(#p47fe54662e)" style="fill: #f0e442; fill-opacity: 0.75; stroke: #000000; stroke-width: 0.887727; stroke-linejoin: miter"/>
   </g>
   <g id="patch_13">
    <path d="M 135.57851 154.7325 
L 145.703787 154.7325 
L 145.703787 105.555 
L 135.57851 105.555 
z
" clip-path="url(#p47fe54662e)" style="fill: #f0e442; fill-opacity: 0.75; stroke: #000000; stroke-width: 0.887727; stroke-linejoin: miter"/>
   </g>
   <g id="patch_14">
    <path d="M 145.703787 154.7325 
L 155.829064 154.7325 
L 155.829064 95.7195 
L 145.703787 95.7195 
z
" clip-path="url(#p47fe54662e)" style="fill: #f0e442; fill-opacity: 0.75; stroke: #000000; stroke-width: 0.887727; stroke-linejoin: miter"/>
   </g>
   <g id="patch_15">
    <path d="M 155.829064 154.7325 
L 165.954342 154.7325 
L 165.954342 125.226 
L 155.829064 125.226 
z
" clip-path="url(#p47fe54662e)" style="fill: #f0e442; fill-opacity: 0.75; stroke: #000000; stroke-width: 0.887727; stroke-linejoin: miter"/>
   </g>
   <g id="patch_16">
    <path d="M 165.954342 154.7325 
L 176.079619 154.7325 
L 176.079619 154.7325 
L 165.954342 154.7325 
z
" clip-path="url(#p47fe54662e)" style="fill: #f0e442; fill-opacity: 0.75; stroke: #000000; stroke-width: 0.887727; stroke-linejoin: miter"/>
   </g>
   <g id="patch_17">
    <path d="M 176.079619 154.7325 
L 186.204896 154.7325 
L 186.204896 135.0615 
L 176.079619 135.0615 
z
" clip-path="url(#p47fe54662e)" style="fill: #f0e442; fill-opacity: 0.75; stroke: #000000; stroke-width: 0.887727; stroke-linejoin: miter"/>
   </g>
   <g id="patch_18">
    <path d="M 186.204896 154.7325 
L 196.330174 154.7325 
L 196.330174 154.7325 
L 186.204896 154.7325 
z
" clip-path="url(#p47fe54662e)" style="fill: #f0e442; fill-opacity: 0.75; stroke: #000000; stroke-width: 0.887727; stroke-linejoin: miter"/>
   </g>
   <g id="patch_19">
    <path d="M 196.330174 154.7325 
L 206.455451 154.7325 
L 206.455451 85.884 
L 196.330174 85.884 
z
" clip-path="url(#p47fe54662e)" style="fill: #f0e442; fill-opacity: 0.75; stroke: #000000; stroke-width: 0.887727; stroke-linejoin: miter"/>
   </g>
   <g id="patch_20">
    <path d="M 206.455451 154.7325 
L 216.580729 154.7325 
L 216.580729 144.897 
L 206.455451 144.897 
z
" clip-path="url(#p47fe54662e)" style="fill: #f0e442; fill-opacity: 0.75; stroke: #000000; stroke-width: 0.887727; stroke-linejoin: miter"/>
   </g>
   <g id="patch_21">
    <path d="M 216.580729 154.7325 
L 226.706006 154.7325 
L 226.706006 154.7325 
L 216.580729 154.7325 
z
" clip-path="url(#p47fe54662e)" style="fill: #f0e442; fill-opacity: 0.75; stroke: #000000; stroke-width: 0.887727; stroke-linejoin: miter"/>
   </g>
   <g id="patch_22">
    <path d="M 226.706006 154.7325 
L 236.831283 154.7325 
L 236.831283 125.226 
L 226.706006 125.226 
z
" clip-path="url(#p47fe54662e)" style="fill: #f0e442; fill-opacity: 0.75; stroke: #000000; stroke-width: 0.887727; stroke-linejoin: miter"/>
   </g>
   <g id="matplotlib.axis_1">
    <g id="xtick_1">
     <g id="line2d_1">
      <defs>
       <path id="ma34207f144" d="M 0 0 
L 0 3.5 
" style="stroke: #000000; stroke-width: 0.8"/>
      </defs>
      <g>
       <use xlink:href="#ma34207f144" x="34.325736" y="154.7325" style="stroke: #000000; stroke-width: 0.8"/>
      </g>
     </g>
     <g id="text_1">
      <text style="font: 6px 'Arial', sans-serif; text-anchor: middle" x="34.325736" y="166.027188" transform="rotate(-0 34.325736 166.027188)">0</text>
     </g>
    </g>
    <g id="xtick_2">
     <g id="line2d_2">
      <g>
       <use xlink:href="#ma34207f144" x="74.826845" y="154.7325" style="stroke: #000000; stroke-width: 0.8"/>
      </g>
     </g>
     <g id="text_2">
      <text style="font: 6px 'Arial', sans-serif; text-anchor: middle" x="74.826845" y="166.027188" transform="rotate(-0 74.826845 166.027188)">100</text>
     </g>
    </g>
    <g id="xtick_3">
     <g id="line2d_3">
      <g>
       <use xlink:href="#ma34207f144" x="115.327955" y="154.7325" style="stroke: #000000; stroke-width: 0.8"/>
      </g>
     </g>
     <g id="text_3">
      <text style="font: 6px 'Arial', sans-serif; text-anchor: middle" x="115.327955" y="166.027188" transform="rotate(-0 115.327955 166.027188)">200</text>
     </g>
    </g>
    <g id="xtick_4">
     <g id="line2d_4">
      <g>
       <use xlink:href="#ma34207f144" x="155.829064" y="154.7325" style="stroke: #000000; stroke-width: 0.8"/>
      </g>
     </g>
     <g id="text_4">
      <text style="font: 6px 'Arial', sans-serif; text-anchor: middle" x="155.829064" y="166.027188" transform="rotate(-0 155.829064 166.027188)">300</text>
     </g>
    </g>
    <g id="xtick_5">
     <g id="line2d_5">
      <g>
       <use xlink:href="#ma34207f144" x="196.330174" y="154.7325" style="stroke: #000000; stroke-width: 0.8"/>
      </g>
     </g>
     <g id="text_5">
      <text style="font: 6px 'Arial', sans-serif; text-anchor: middle" x="196.330174" y="166.027188" transform="rotate(-0 196.330174 166.027188)">400</text>
     </g>
    </g>
    <g id="xtick_6">
     <g id="line2d_6">
      <g>
       <use xlink:href="#ma34207f144" x="236.831283" y="154.7325" style="stroke: #000000; stroke-width: 0.8"/>
      </g>
     </g>
     <g id="text_6">
      <text style="font: 6px 'Arial', sans-serif; text-anchor: middle" x="236.831283" y="166.027188" transform="rotate(-0 236.831283 166.027188)">500</text>
     </g>
    </g>
    <g id="text_7">
     <text style="font: 700 8px 'Arial', sans-serif; text-anchor: middle" x="135.57851" y="175.043438" transform="rotate(-0 135.57851 175.043438)">Median Synthesis Temperature °C</text>
    </g>
   </g>
   <g id="matplotlib.axis_2">
    <g id="ytick_1">
     <g id="line2d_7">
      <defs>
       <path id="m60b0cf57c7" d="M 0 0 
L -3.5 0 
" style="stroke: #000000; stroke-width: 0.8"/>
      </defs>
      <g>
       <use xlink:href="#m60b0cf57c7" x="30.275625" y="154.7325" style="stroke: #000000; stroke-width: 0.8"/>
      </g>
     </g>
     <g id="text_8">
      <text style="font: 6px 'Arial', sans-serif; text-anchor: end" x="23.275625" y="156.879844" transform="rotate(-0 23.275625 156.879844)">0</text>
     </g>
    </g>
    <g id="ytick_2">
     <g id="line2d_8">
      <g>
       <use xlink:href="#m60b0cf57c7" x="30.275625" y="135.0615" style="stroke: #000000; stroke-width: 0.8"/>
      </g>
     </g>
     <g id="text_9">
      <text style="font: 6px 'Arial', sans-serif; text-anchor: end" x="23.275625" y="137.208844" transform="rotate(-0 23.275625 137.208844)">2</text>
     </g>
    </g>
    <g id="ytick_3">
     <g id="line2d_9">
      <g>
       <use xlink:href="#m60b0cf57c7" x="30.275625" y="115.3905" style="stroke: #000000; stroke-width: 0.8"/>
      </g>
     </g>
     <g id="text_10">
      <text style="font: 6px 'Arial', sans-serif; text-anchor: end" x="23.275625" y="117.537844" transform="rotate(-0 23.275625 117.537844)">4</text>
     </g>
    </g>
    <g id="ytick_4">
     <g id="line2d_10">
      <g>
       <use xlink:href="#m60b0cf57c7" x="30.275625" y="95.7195" style="stroke: #000000; stroke-width: 0.8"/>
      </g>
     </g>
     <g id="text_11">
      <text style="font: 6px 'Arial', sans-serif; text-anchor: end" x="23.275625" y="97.866844" transform="rotate(-0 23.275625 97.866844)">6</text>
     </g>
    </g>
    <g id="ytick_5">
     <g id="line2d_11">
      <g>
       <use xlink:href="#m60b0cf57c7" x="30.275625" y="76.0485" style="stroke: #000000; stroke-width: 0.8"/>
      </g>
     </g>
     <g id="text_12">
      <text style="font: 6px 'Arial', sans-serif; text-anchor: end" x="23.275625" y="78.195844" transform="rotate(-0 23.275625 78.195844)">8</text>
     </g>
    </g>
    <g id="ytick_6">
     <g id="line2d_12">
      <g>
       <use xlink:href="#m60b0cf57c7" x="30.275625" y="56.3775" style="stroke: #000000; stroke-width: 0.8"/>
      </g>
     </g>
     <g id="text_13">
      <text style="font: 6px 'Arial', sans-serif; text-anchor: end" x="23.275625" y="58.524844" transform="rotate(-0 23.275625 58.524844)">10</text>
     </g>
    </g>
    <g id="ytick_7">
     <g id="line2d_13">
      <g>
       <use xlink:href="#m60b0cf57c7" x="30.275625" y="36.7065" style="stroke: #000000; stroke-width: 0.8"/>
      </g>
     </g>
     <g id="text_14">
      <text style="font: 6px 'Arial', sans-serif; text-anchor: end" x="23.275625" y="38.853844" transform="rotate(-0 23.275625 38.853844)">12</text>
     </g>
    </g>
    <g id="ytick_8">
     <g id="line2d_14">
      <g>
       <use xlink:href="#m60b0cf57c7" x="30.275625" y="17.0355" style="stroke: #000000; stroke-width: 0.8"/>
      </g>
     </g>
     <g id="text_15">
      <text style="font: 6px 'Arial', sans-serif; text-anchor: end" x="23.275625" y="19.182844" transform="rotate(-0 23.275625 19.182844)">14</text>
     </g>
    </g>
    <g id="text_16">
     <text style="font: 700 8px 'Arial', sans-serif; text-anchor: middle" x="13.02375" y="80.96625" transform="rotate(-90 13.02375 80.96625)"># of compounds</text>
    </g>
   </g>
   <g id="LineCollection_1">
    <path d="M 74.826845 154.7325 
L 74.826845 10.15065 
" clip-path="url(#p47fe54662e)" style="fill: none; stroke-dasharray: 1,1.65; stroke-dashoffset: 0; stroke: #000000"/>
   </g>
   <g id="line2d_15">
    <path d="M 34.325736 120.801706 
L 38.379901 113.415009 
L 49.731563 92.405594 
L 52.772187 87.415825 
L 55.407395 83.525818 
L 57.637185 80.607867 
L 59.664268 78.284688 
L 61.69135 76.296071 
L 63.515725 74.803286 
L 65.340099 73.596779 
L 67.164473 72.676626 
L 68.786139 72.09572 
L 70.407805 71.731964 
L 72.029471 71.577251 
L 73.853846 71.640287 
L 75.67822 71.937659 
L 77.502594 72.449733 
L 79.529677 73.244397 
L 81.759468 74.35686 
L 84.394675 75.936698 
L 87.435299 78.029256 
L 91.692172 81.257797 
L 102.638418 89.685677 
L 106.895291 92.604819 
L 110.746748 94.98559 
L 114.800913 97.229848 
L 119.260495 99.439079 
L 125.544451 102.275371 
L 133.855489 106.052767 
L 138.517779 108.421826 
L 142.977361 110.937086 
L 147.842359 113.948502 
L 155.545273 119.036415 
L 161.423812 122.806558 
L 165.477977 125.148567 
L 168.924018 126.894614 
L 172.16735 128.30195 
L 175.410682 129.47482 
L 178.856722 130.481729 
L 182.708179 131.366491 
L 187.775885 132.282721 
L 197.911298 134.065632 
L 202.776296 135.191442 
L 207.641294 136.553903 
L 213.519834 138.447075 
L 232.979826 144.906627 
L 236.831283 146.044702 
L 236.831283 146.044702 
" clip-path="url(#p47fe54662e)" style="fill: none; stroke: #d36027; stroke-width: 1.5; stroke-linecap: square"/>
   </g>
   <g id="patch_23">
    <path d="M 30.275625 154.7325 
L 30.275625 7.2 
" style="fill: none; stroke: #000000; stroke-linejoin: miter; stroke-linecap: square"/>
   </g>
   <g id="patch_24">
    <path d="M 240.881394 154.7325 
L 240.881394 7.2 
" style="fill: none; stroke: #000000; stroke-linejoin: miter; stroke-linecap: square"/>
   </g>
   <g id="patch_25">
    <path d="M 30.275625 154.7325 
L 240.881394 154.7325 
" style="fill: none; stroke: #000000; stroke-linejoin: miter; stroke-linecap: square"/>
   </g>
   <g id="patch_26">
    <path d="M 30.275625 7.2 
L 240.881394 7.2 
" style="fill: none; stroke: #000000; stroke-linejoin: miter; stroke-linecap: square"/>
   </g>
   <g id="patch_27">
    <path d="M 72.828982 34.247625 
Q 56.601269 34.247625 42.050608 34.247625 
" style="fill: none; stroke: #000000; stroke-width: 1.5; stroke-linecap: round"/>
    <path d="M 45.250608 35.847625 
L 42.050608 34.247625 
L 45.250608 32.647625 
" style="fill: none; stroke: #000000; stroke-width: 1.5; stroke-linecap: round"/>
   </g>
   <g id="text_17">
    <text style="font: 8px 'Arial', sans-serif; text-anchor: end" x="74.016823" y="27.018533" transform="rotate(-0 74.016823 27.018533)">32%</text>
   </g>
   <g id="patch_28">
    <path d="M 76.822979 34.247625 
Q 94.063215 34.247625 109.6264 34.247625 
" style="fill: none; stroke: #000000; stroke-width: 1.5; stroke-linecap: round"/>
    <path d="M 106.4264 32.647625 
L 109.6264 34.247625 
L 106.4264 35.847625 
" style="fill: none; stroke: #000000; stroke-width: 1.5; stroke-linecap: round"/>
   </g>
   <g id="text_18">
    <text style="font: 8px 'Arial', sans-serif; text-anchor: start" x="76.041879" y="27.018533" transform="rotate(-0 76.041879 27.018533)">68%</text>
   </g>
  </g>
 </g>
 <defs>
  <clipPath id="p47fe54662e">
   <rect x="30.275625" y="7.2" width="210.605769" height="147.5325"/>
  </clipPath>
 </defs>
</svg>
