<?xml version="1.0" encoding="utf-8" standalone="no"?>
<!DOCTYPE svg PUBLIC "-//W3C//DTD SVG 1.1//EN"
  "http://www.w3.org/Graphics/SVG/1.1/DTD/svg11.dtd">
<svg xmlns:xlink="http://www.w3.org/1999/xlink" width="170.4024pt" height="135.0576pt" viewBox="0 0 170.4024 135.0576" xmlns="http://www.w3.org/2000/svg" version="1.1">
 <metadata>
  <rdf:RDF xmlns:dc="http://purl.org/dc/elements/1.1/" xmlns:cc="http://creativecommons.org/ns#" xmlns:rdf="http://www.w3.org/1999/02/22-rdf-syntax-ns#">
   <cc:Work>
    <dc:type rdf:resource="http://purl.org/dc/dcmitype/StillImage"/>
    <dc:date>2025-09-18T14:29:19.966683</dc:date>
    <dc:format>image/svg+xml</dc:format>
    <dc:creator>
     <cc:Agent>
      <dc:title>Matplotlib v3.9.2, https://matplotlib.org/</dc:title>
     </cc:Agent>
    </dc:creator>
   </cc:Work>
  </rdf:RDF>
 </metadata>
 <defs>
  <style type="text/css">*{stroke-linejoin: round; stroke-linecap: butt}</style>
 </defs>
 <g id="figure_1">
  <g id="patch_1">
   <path d="M 0 135.0576 
L 170.4024 135.0576 
L 170.4024 0 
L 0 0 
z
" style="fill: #ffffff"/>
  </g>
  <g id="axes_1">
   <g id="patch_2">
    <path d="M 37.128 104.0301 
L 159.292051 104.0301 
L 159.292051 8.64 
L 37.128 8.64 
z
" style="fill: #ffffff"/>
   </g>
   <g id="patch_3">
    <path d="M 39.477309 104.0301 
L 45.35058 104.0301 
L 45.35058 103.700942 
L 39.477309 103.700942 
z
" clip-path="url(#pa44dce4493)" style="fill: #2c457d; fill-opacity: 0.4; stroke: #000000; stroke-width: 0.600281; stroke-linejoin: miter"/>
   </g>
   <g id="patch_4">
    <path d="M 45.35058 104.0301 
L 51.223852 104.0301 
L 51.223852 91.74152 
L 45.35058 91.74152 
z
" clip-path="url(#pa44dce4493)" style="fill: #2c457d; fill-opacity: 0.4; stroke: #000000; stroke-width: 0.600281; stroke-linejoin: miter"/>
   </g>
   <g id="patch_5">
    <path d="M 51.223852 104.0301 
L 57.097124 104.0301 
L 57.097124 90.315167 
L 51.223852 90.315167 
z
" clip-path="url(#pa44dce4493)" style="fill: #2c457d; fill-opacity: 0.4; stroke: #000000; stroke-width: 0.600281; stroke-linejoin: miter"/>
   </g>
   <g id="patch_6">
    <path d="M 57.097124 104.0301 
L 62.970395 104.0301 
L 62.970395 90.754045 
L 57.097124 90.754045 
z
" clip-path="url(#pa44dce4493)" style="fill: #2c457d; fill-opacity: 0.4; stroke: #000000; stroke-width: 0.600281; stroke-linejoin: miter"/>
   </g>
   <g id="patch_7">
    <path d="M 62.970395 104.0301 
L 68.843667 104.0301 
L 68.843667 89.327692 
L 62.970395 89.327692 
z
" clip-path="url(#pa44dce4493)" style="fill: #2c457d; fill-opacity: 0.4; stroke: #000000; stroke-width: 0.600281; stroke-linejoin: miter"/>
   </g>
   <g id="patch_8">
    <path d="M 68.843667 104.0301 
L 74.716939 104.0301 
L 74.716939 79.343221 
L 68.843667 79.343221 
z
" clip-path="url(#pa44dce4493)" style="fill: #2c457d; fill-opacity: 0.4; stroke: #000000; stroke-width: 0.600281; stroke-linejoin: miter"/>
   </g>
   <g id="patch_9">
    <path d="M 74.716939 104.0301 
L 80.590211 104.0301 
L 80.590211 89.547131 
L 74.716939 89.547131 
z
" clip-path="url(#pa44dce4493)" style="fill: #2c457d; fill-opacity: 0.4; stroke: #000000; stroke-width: 0.600281; stroke-linejoin: miter"/>
   </g>
   <g id="patch_10">
    <path d="M 80.590211 104.0301 
L 86.463482 104.0301 
L 86.463482 85.487511 
L 80.590211 85.487511 
z
" clip-path="url(#pa44dce4493)" style="fill: #2c457d; fill-opacity: 0.4; stroke: #000000; stroke-width: 0.600281; stroke-linejoin: miter"/>
   </g>
   <g id="patch_11">
    <path d="M 86.463482 104.0301 
L 92.336754 104.0301 
L 92.336754 59.374279 
L 86.463482 59.374279 
z
" clip-path="url(#pa44dce4493)" style="fill: #2c457d; fill-opacity: 0.4; stroke: #000000; stroke-width: 0.600281; stroke-linejoin: miter"/>
   </g>
   <g id="patch_12">
    <path d="M 92.336754 104.0301 
L 98.210026 104.0301 
L 98.210026 86.474986 
L 92.336754 86.474986 
z
" clip-path="url(#pa44dce4493)" style="fill: #2c457d; fill-opacity: 0.4; stroke: #000000; stroke-width: 0.600281; stroke-linejoin: miter"/>
   </g>
   <g id="patch_13">
    <path d="M 98.210026 104.0301 
L 104.083297 104.0301 
L 104.083297 13.182386 
L 98.210026 13.182386 
z
" clip-path="url(#pa44dce4493)" style="fill: #2c457d; fill-opacity: 0.4; stroke: #000000; stroke-width: 0.600281; stroke-linejoin: miter"/>
   </g>
   <g id="patch_14">
    <path d="M 104.083297 104.0301 
L 109.956569 104.0301 
L 109.956569 30.956939 
L 104.083297 30.956939 
z
" clip-path="url(#pa44dce4493)" style="fill: #2c457d; fill-opacity: 0.4; stroke: #000000; stroke-width: 0.600281; stroke-linejoin: miter"/>
   </g>
   <g id="patch_15">
    <path d="M 109.956569 104.0301 
L 115.829841 104.0301 
L 115.829841 63.872777 
L 109.956569 63.872777 
z
" clip-path="url(#pa44dce4493)" style="fill: #2c457d; fill-opacity: 0.4; stroke: #000000; stroke-width: 0.600281; stroke-linejoin: miter"/>
   </g>
   <g id="patch_16">
    <path d="M 115.829841 104.0301 
L 121.703112 104.0301 
L 121.703112 104.0301 
L 115.829841 104.0301 
z
" clip-path="url(#pa44dce4493)" style="fill: #2c457d; fill-opacity: 0.4; stroke: #000000; stroke-width: 0.600281; stroke-linejoin: miter"/>
   </g>
   <g id="patch_17">
    <path d="M 121.703112 104.0301 
L 127.576384 104.0301 
L 127.576384 103.481503 
L 121.703112 103.481503 
z
" clip-path="url(#pa44dce4493)" style="fill: #2c457d; fill-opacity: 0.4; stroke: #000000; stroke-width: 0.600281; stroke-linejoin: miter"/>
   </g>
   <g id="patch_18">
    <path d="M 127.576384 104.0301 
L 133.449656 104.0301 
L 133.449656 104.0301 
L 127.576384 104.0301 
z
" clip-path="url(#pa44dce4493)" style="fill: #2c457d; fill-opacity: 0.4; stroke: #000000; stroke-width: 0.600281; stroke-linejoin: miter"/>
   </g>
   <g id="patch_19">
    <path d="M 133.449656 104.0301 
L 139.322927 104.0301 
L 139.322927 45.988505 
L 133.449656 45.988505 
z
" clip-path="url(#pa44dce4493)" style="fill: #2c457d; fill-opacity: 0.4; stroke: #000000; stroke-width: 0.600281; stroke-linejoin: miter"/>
   </g>
   <g id="patch_20">
    <path d="M 139.322927 104.0301 
L 145.196199 104.0301 
L 145.196199 101.835711 
L 139.322927 101.835711 
z
" clip-path="url(#pa44dce4493)" style="fill: #2c457d; fill-opacity: 0.4; stroke: #000000; stroke-width: 0.600281; stroke-linejoin: miter"/>
   </g>
   <g id="patch_21">
    <path d="M 145.196199 104.0301 
L 151.069471 104.0301 
L 151.069471 104.0301 
L 145.196199 104.0301 
z
" clip-path="url(#pa44dce4493)" style="fill: #2c457d; fill-opacity: 0.4; stroke: #000000; stroke-width: 0.600281; stroke-linejoin: miter"/>
   </g>
   <g id="patch_22">
    <path d="M 151.069471 104.0301 
L 156.942742 104.0301 
L 156.942742 68.919872 
L 151.069471 68.919872 
z
" clip-path="url(#pa44dce4493)" style="fill: #2c457d; fill-opacity: 0.4; stroke: #000000; stroke-width: 0.600281; stroke-linejoin: miter"/>
   </g>
   <g id="matplotlib.axis_1">
    <g id="xtick_1">
     <g id="line2d_1">
      <defs>
       <path id="md3afb99865" d="M 0 0 
L 0 3.5 
" style="stroke: #000000; stroke-width: 0.8"/>
      </defs>
      <g>
       <use xlink:href="#md3afb99865" x="39.477309" y="104.0301" style="stroke: #000000; stroke-width: 0.8"/>
      </g>
     </g>
     <g id="text_1">
      <text style="font: 6px 'Arial', sans-serif; text-anchor: middle" x="39.477309" y="115.324787" transform="rotate(-0 39.477309 115.324787)">0</text>
     </g>
    </g>
    <g id="xtick_2">
     <g id="line2d_2">
      <g>
       <use xlink:href="#md3afb99865" x="62.970395" y="104.0301" style="stroke: #000000; stroke-width: 0.8"/>
      </g>
     </g>
     <g id="text_2">
      <text style="font: 6px 'Arial', sans-serif; text-anchor: middle" x="62.970395" y="115.324787" transform="rotate(-0 62.970395 115.324787)">100</text>
     </g>
    </g>
    <g id="xtick_3">
     <g id="line2d_3">
      <g>
       <use xlink:href="#md3afb99865" x="86.463482" y="104.0301" style="stroke: #000000; stroke-width: 0.8"/>
      </g>
     </g>
     <g id="text_3">
      <text style="font: 6px 'Arial', sans-serif; text-anchor: middle" x="86.463482" y="115.324787" transform="rotate(-0 86.463482 115.324787)">200</text>
     </g>
    </g>
    <g id="xtick_4">
     <g id="line2d_4">
      <g>
       <use xlink:href="#md3afb99865" x="109.956569" y="104.0301" style="stroke: #000000; stroke-width: 0.8"/>
      </g>
     </g>
     <g id="text_4">
      <text style="font: 6px 'Arial', sans-serif; text-anchor: middle" x="109.956569" y="115.324787" transform="rotate(-0 109.956569 115.324787)">300</text>
     </g>
    </g>
    <g id="xtick_5">
     <g id="line2d_5">
      <g>
       <use xlink:href="#md3afb99865" x="133.449656" y="104.0301" style="stroke: #000000; stroke-width: 0.8"/>
      </g>
     </g>
     <g id="text_5">
      <text style="font: 6px 'Arial', sans-serif; text-anchor: middle" x="133.449656" y="115.324787" transform="rotate(-0 133.449656 115.324787)">400</text>
     </g>
    </g>
    <g id="xtick_6">
     <g id="line2d_6">
      <g>
       <use xlink:href="#md3afb99865" x="156.942742" y="104.0301" style="stroke: #000000; stroke-width: 0.8"/>
      </g>
     </g>
     <g id="text_6">
      <text style="font: 6px 'Arial', sans-serif; text-anchor: middle" x="156.942742" y="115.324787" transform="rotate(-0 156.942742 115.324787)">500</text>
     </g>
    </g>
    <g id="text_7">
     <text style="font: 700 8px 'Arial', sans-serif; text-anchor: middle" x="98.210026" y="124.341037" transform="rotate(-0 98.210026 124.341037)">Median Synthesis Temperature °C</text>
    </g>
   </g>
   <g id="matplotlib.axis_2">
    <g id="ytick_1">
     <g id="line2d_7">
      <defs>
       <path id="m2741a76570" d="M 0 0 
L -3.5 0 
" style="stroke: #000000; stroke-width: 0.8"/>
      </defs>
      <g>
       <use xlink:href="#m2741a76570" x="37.128" y="104.0301" style="stroke: #000000; stroke-width: 0.8"/>
      </g>
     </g>
     <g id="text_8">
      <text style="font: 6px 'Arial', sans-serif; text-anchor: end" x="30.128" y="106.177444" transform="rotate(-0 30.128 106.177444)">0.0</text>
     </g>
    </g>
    <g id="ytick_2">
     <g id="line2d_8">
      <g>
       <use xlink:href="#m2741a76570" x="37.128" y="82.086208" style="stroke: #000000; stroke-width: 0.8"/>
      </g>
     </g>
     <g id="text_9">
      <text style="font: 6px 'Arial', sans-serif; text-anchor: end" x="30.128" y="84.233551" transform="rotate(-0 30.128 84.233551)">0.5</text>
     </g>
    </g>
    <g id="ytick_3">
     <g id="line2d_9">
      <g>
       <use xlink:href="#m2741a76570" x="37.128" y="60.142315" style="stroke: #000000; stroke-width: 0.8"/>
      </g>
     </g>
     <g id="text_10">
      <text style="font: 6px 'Arial', sans-serif; text-anchor: end" x="30.128" y="62.289659" transform="rotate(-0 30.128 62.289659)">1.0</text>
     </g>
    </g>
    <g id="ytick_4">
     <g id="line2d_10">
      <g>
       <use xlink:href="#m2741a76570" x="37.128" y="38.198423" style="stroke: #000000; stroke-width: 0.8"/>
      </g>
     </g>
     <g id="text_11">
      <text style="font: 6px 'Arial', sans-serif; text-anchor: end" x="30.128" y="40.345767" transform="rotate(-0 30.128 40.345767)">1.5</text>
     </g>
    </g>
    <g id="ytick_5">
     <g id="line2d_11">
      <g>
       <use xlink:href="#m2741a76570" x="37.128" y="16.254531" style="stroke: #000000; stroke-width: 0.8"/>
      </g>
     </g>
     <g id="text_12">
      <text style="font: 6px 'Arial', sans-serif; text-anchor: end" x="30.128" y="18.401874" transform="rotate(-0 30.128 18.401874)">2.0</text>
     </g>
    </g>
    <g id="text_13">
     <!-- lb/year (×$10^{11}$) -->
     <g transform="translate(18.028 84.17505) rotate(-90)">
      <text>
       <tspan style="font: 700 8px 'Arial'" x="0 2.222656 7.109375 9.332031 13.78125 18.230469 22.679688 25.792969 28.015625 30.679688 52.952344" y="-0.8578125000000005">lb/year (×)</tspan>
       <tspan style="font: 8px 'DejaVu Sans'" x="35.351562 40.441406" y="-0.8578125000000005">10</tspan>
       <tspan style="font: 5.6px 'DejaVu Sans'" x="45.607813 49.170703" y="-3.9203125000000005">11</tspan>
      </text>
     </g>
    </g>
   </g>
   <g id="LineCollection_1">
    <path d="M 62.970395 104.0301 
L 62.970395 32.898973 
" clip-path="url(#pa44dce4493)" style="fill: none; stroke-dasharray: 1,1.65; stroke-dashoffset: 0; stroke: #000000"/>
   </g>
   <g id="line2d_12">
    <path d="M 39.477309 98.97841 
L 44.063046 97.242508 
L 49.236699 95.040311 
L 54.880684 92.399258 
L 59.936754 89.798605 
L 64.169742 87.374692 
L 67.814816 85.038354 
L 71.342306 82.512743 
L 74.98738 79.619065 
L 79.337951 75.858631 
L 86.980847 69.204299 
L 89.685257 67.182227 
L 91.919334 65.782882 
L 93.918245 64.796015 
L 95.681991 64.166917 
L 97.328153 63.804553 
L 98.974315 63.671991 
L 100.620477 63.775651 
L 102.26664 64.115527 
L 103.912802 64.685017 
L 105.676547 65.535051 
L 107.557875 66.688996 
L 109.67437 68.246731 
L 112.261196 70.435216 
L 116.259019 74.157035 
L 121.78542 79.261825 
L 124.960162 81.875778 
L 127.782154 83.916353 
L 130.604147 85.679532 
L 133.543722 87.244444 
L 136.718464 88.6773 
L 140.598703 90.169638 
L 146.242688 92.072933 
L 156.942742 95.563739 
L 156.942742 95.563739 
" clip-path="url(#pa44dce4493)" style="fill: none; stroke: #e30291; stroke-width: 1.5; stroke-linecap: square"/>
   </g>
   <g id="patch_23">
    <path d="M 37.128 104.0301 
L 37.128 8.64 
" style="fill: none; stroke: #000000; stroke-linejoin: miter; stroke-linecap: square"/>
   </g>
   <g id="patch_24">
    <path d="M 159.292051 104.0301 
L 159.292051 8.64 
" style="fill: none; stroke: #000000; stroke-linejoin: miter; stroke-linecap: square"/>
   </g>
   <g id="patch_25">
    <path d="M 37.128 104.0301 
L 159.292051 104.0301 
" style="fill: none; stroke: #000000; stroke-linejoin: miter; stroke-linecap: square"/>
   </g>
   <g id="patch_26">
    <path d="M 37.128 8.64 
L 159.292051 8.64 
" style="fill: none; stroke: #000000; stroke-linejoin: miter; stroke-linecap: square"/>
   </g>
   <g id="patch_27">
    <path d="M 60.970099 44.754161 
Q 52.396193 44.754161 45.499339 44.754161 
" style="fill: none; stroke: #000000; stroke-width: 1.5; stroke-linecap: round"/>
    <path d="M 48.699339 46.354161 
L 45.499339 44.754161 
L 48.699339 43.154161 
" style="fill: none; stroke: #000000; stroke-width: 1.5; stroke-linecap: round"/>
   </g>
   <g id="text_14">
    <text style="font: 6px 'Arial', sans-serif" transform="translate(42.154909 36.036998)">10% of </text>
    <text style="font: 6px 'Arial', sans-serif" transform="translate(43.159909 42.383123)">volume</text>
   </g>
   <g id="patch_28">
    <path d="M 64.972843 44.754161 
Q 74.131404 44.754161 81.612914 44.754161 
" style="fill: none; stroke: #000000; stroke-width: 1.5; stroke-linecap: round"/>
    <path d="M 78.412914 43.154161 
L 81.612914 44.754161 
L 78.412914 46.354161 
" style="fill: none; stroke: #000000; stroke-width: 1.5; stroke-linecap: round"/>
   </g>
   <g id="text_15">
    <text style="font: 6px 'Arial', sans-serif" transform="translate(63.675188 36.036998)">90% of </text>
    <text style="font: 6px 'Arial', sans-serif" transform="translate(63.675188 42.383123)">volume</text>
   </g>
  </g>
 </g>
 <defs>
  <clipPath id="pa44dce4493">
   <rect x="37.128" y="8.64" width="122.164051" height="95.3901"/>
  </clipPath>
 </defs>
</svg>
